<?xml version="1.0" encoding="UTF-8"?>
<svg id="_图层_1" data-name="图层_1" xmlns="http://www.w3.org/2000/svg" version="1.1" viewBox="0 0 800 800">
  <!-- Generator: Adobe Illustrator 29.1.0, SVG Export Plug-In . SVG Version: 2.1.0 Build 142)  -->
  <g id="Calque_1-2">
    <path d="M515.7753,263.3957c-.3881.793-1.1548,1.3417-2.0341,1.4423-20.0438,2.3264-41.343-.4624-49.5537-1.7514-13.7091-13.6948-28.5491-28.9301-39.4887-42.2415-1.1213-1.3632-1.1764-3.3135-.1437-4.751,15.6019-21.7497,29.8884-39.0095,35.9284-45.8449,17.2574-3.7615,34.4645-7.0918,46.0869-7.5661.8769-.0359,1.713.369,2.2282,1.0805,14.979,20.8344,25.6933,40.7992,29.1313,48.0946-6.8785,18.4793-15.1514,37.1479-22.1546,51.5351v.0024ZM496.6515,298.6461c-11.0497,18.4985-19.4425,29.6512-22.133,33.0414-3.6513,5.1535-12.9568,18.5823-27.4135,32.1621-.9224.8673-2.1251,1.3656-3.3926,1.4208-18.1055.7547-34.9389-.5151-41.494-1.9454-5.5512-2.2952-18.4697-8.1052-33.741-16.5482-1.3321-.7355-2.1155-2.1707-2.0149-3.6848.7978-11.8356,4.5521-28.6977,7.8752-46.5277,8.2154-14.4231,16.7303-30.8803,25.5615-44.4002.9296-1.4231,2.6714-2.0844,4.315-1.634,26.4408,7.2187,49.3836,12.6981,58.6987,14.7945,12.7532,14.7897,25.1134,25.1877,33.4271,31.6326.5175.4025.6517,1.1261.3186,1.6867l-.0072.0024ZM336.682,324.3537c-1.3393.829-3.0451.7859-4.3341-.1246-11.5121-8.1483-25.25-18.5632-36.6903-29.2535-6.7491-11.5337-11.953-26.2946-15.5875-38.8633-.2348-.8098-.0551-1.6867.4792-2.3384,12.8394-15.7816,28.2472-28.2712,34.6873-33.0246,14.5309,6.2676,31.2109,11.7996,45.8018,16.6513,1.4926.4959,2.5468,1.8328,2.669,3.3973,2.058,25.9568,6.8138,46.947,8.0836,54.9683-5.4482,5.8196-19.682,19.016-35.109,28.5898v-.0024ZM272.7339,222.2228c-1.9047-12.2525-3.1577-25.1206-3.2943-31.0145-.3163-13.6085,1.8472-25.6597,4.3581-36.8197.4121-1.8256,1.3608-3.4836,2.7433-4.7486,7.293-6.6797,20.4822-18.4673,28.8079-23.8053,7.8465-5.0313,29.6536-12.0704,38.6453-14.6819,1.7418-.5079,3.601.2659,4.497,1.8424,1.0805,1.8999,2.2114,3.7855,3.4093,5.6399,7.0798,11.021,14.8807,20.5086,18.1678,24.6175-4.3557,17.2934-6.2053,36.6807-7.0486,53.0373-.0791,1.5334-1.0566,2.8774-2.4917,3.4381-22.7511,8.8743-39.9463,15.8175-45.7251,18.4841-15.633.6589-30.5209,3.3231-40.5692,5.0792-.7116.1246-1.3848-.3594-1.495-1.0686h-.0048ZM387.424,103.4646c.6229-.9655,1.6412-1.6076,2.7816-1.761,23.3956-3.0907,44.8003-3.5459,53.0277-3.3183,14.9718,9.9548,29.6009,23.0913,41.2784,35.5475.817.8721.9392,2.1874.2947,3.1961-8.3328,13.0287-20.4487,25.5399-25.7723,30.9881-19.7395,4.6719-40.6674,11.4714-57.6541,17.0466-1.6532.5415-3.4692-.0719-4.4563-1.5046-12.8898-18.7213-21.0788-34.7712-24.2917-40.7249,3.486-15.6067,8.3616-29.5075,14.7897-39.4695h.0024ZM543.7039,257.1449c-.4193.1893-.9008-.1054-.9248-.563-.9799-19.2172-2.7481-37.8906-3.6752-44.7188.0743-16.5962-2.6786-33.82-5.4242-46.5181-.0982-.46.3091-.8697.7691-.7763,15.7049,3.2057,20.7458,9.0851,20.7458,9.0851-8.3136-18.6374-20.293-32.682-33.3145-43.2957-11.1312-23.3022-23.9443-34.0788-23.9443-34.0788,1.0374,5.1535.321,10.9826-1.5142,16.9987-.115.3833-.5535.5654-.9152.3905-21.3376-10.4292-43.37-15.1946-51.892-16.3877-12.734-6.1885-26.6444-10.2831-37.9553-13.3857-.3019-.0815-.3833-.472-.1413-.6756,15.0172-12.4561,28.827-15.6258,28.827-15.6258-24.4474-.9799-45.4903,3.4405-63.0855,10.1992-26.2898-2.106-43.0345,2.4653-43.0345,2.4653,0,0,7.2595,8.6826,10.0818,13.5175.3402.5846.1629,1.3345-.3953,1.7178-16.5363,11.457-28.3982,24.0449-33.0773,29.2847-5.211.7044-14.2362,1.9502-22.1186,3.8933-.3139.0791-.5798-.2372-.4528-.5367,7.8944-18.7908,16.4979-29.1936,16.4979-29.1936,0,0-50.7372,36.0027-60.3542,100.6982,0,0,4.1784-11.4666,18.3044-28.8486.1869-.2276.5463-.1821.6661.0862,4.0035,8.8551,8.5796,16.7207,10.8796,20.3289-7.7698,12.4968-13.1341,26.1269-16.4356,37.2773-.115.3881-.4073.6996-.7882.841-11.7517,4.4563-14.7441,8.709-14.7441,8.709,1.828,6.234,5.4146,12.3124,9.9452,18.0409.3929.4959.5942,1.1141.5678,1.7466-1.2483,27.6099,7.6668,45.7826,7.6668,45.7826,2.0125-9.6434,5.9537-19.0088,10.9323-27.7992.1989-.3498.6661-.4384.9799-.1893,11.596,9.2025,23.6089,17.2502,28.3766,20.1061,2.4581,6.2724,9.4996,22.5523,18.9058,39.2514.1964.3522.0359.7978-.3426.9368-11.263,4.0993-22.8182,5.9561-33.4151,3.3782,0,0,12.7772,15.9062,52.1939,22.6864,10.9347,12.9113,24.2437,23.6041,39.7858,27.3177,0,0-4.5545-5.0026-5.6806-23.6472-.024-.3785.2803-.6996.6589-.6948,9.732.1461,22.9332.357,35.018-.5199,4.2814,3.3734,13.6277,10.779,22.744,15.4965.4528.2348.4816.8721.0455,1.138-16.0235,9.6769-26.6851,10.5203-26.6851,10.5203,72.5828,1.5453,116.1635-45.7395,116.1635-45.7395-11.9554,7.8561-25.7627,12.7388-39.5054,15.6498-.4624.0982-.8697-.3115-.7739-.7739,2.5516-12.3315,1.8376-24.2557,1.6579-28.4581,17.2215-4.267,32.2435-11.953,43.3652-19.809.2228-.1581.5247-.1605.7499-.0024,4.6312,3.2176,8.5916,6.8282,12.5471,12.837,0,0,7.5302-10.6424,10.1201-35.2983,18.6446-24.3109,21.4166-49.1967,21.4166-49.1967-4.6767,7.3074-11.7421,12.5711-20.0151,16.3446l-.0071.0073ZM400.0047,497.1962c-31.1319,0-59.3767,13.9008-76.6054,34.4526l5.465,6.7324c15.6474-19.4281,42.2631-32.7874,71.1404-32.7874s55.4954,13.3593,71.1428,32.7874l5.465-6.7324c-17.2311-20.5517-45.4735-34.4526-76.6078-34.4526ZM327.1824,501.5591c-2.0485,1.6627-4.4276,2.4725-6.5311,2.2234-2.6642-.3043-4.2814-1.3944-6.9313-4.6599l-15.2664-18.7285-8.2322,6.6773,16.6273,20.4128c3.5339,4.3222,7.5614,6.6365,12.31,7.0726.563.0527,1.1165.0815,1.6675.0862,4.6024.0407,8.8791-1.5789,13.0215-4.9235,4.6144-3.7615,7.1469-8.1292,7.7411-13.3522.5391-4.7318-.9056-9.1402-4.43-13.4743l-16.6249-20.4056-8.2322,6.6773,15.2616,18.7381h0c2.6594,3.256,3.395,5.0601,3.1482,7.7291-.1845,2.1012-1.4687,4.2623-3.5291,5.9298v-.0024ZM383.4852,442.5561l-26.666,5.4027c-1.2171.2468-2.1802.8529-2.7792,1.761-.6038.9056-.7906,2.0245-.5439,3.2392l5.314,26.1293c.8649,4.2503,2.7744,7.3098,5.6758,9.0971,1.9191,1.1812,4.2215,1.7705,6.8737,1.7705,1.3513,0,2.7936-.1581,4.3198-.4672l16.668-3.3758-2.0053-9.8638-16.2152,3.2847c-3.3183.6709-4.3964.3043-5.1535-3.4141l-.5702-2.8032,18.7548-3.7974-1.9814-9.7512-18.7548,3.7974-1.4231-6.9959,20.4966-4.152-2.0053-9.8614h-.0048ZM435.3389,456.8139l15.9804,4.1305,2.5253-9.7248-16.4308-4.2479c-9.006-2.3288-15.1754,1.0374-17.3652,9.4733l-6.7108,25.8394c-.3091,1.2003-.1845,2.3264.3666,3.2608s1.4759,1.5933,2.6786,1.9023l6.0999,1.5765,4.3245-16.7112,18.4937,4.7821,2.4989-9.6122-18.5009-4.7845.7188-2.7624c.9512-3.6633,2.0461-3.9723,5.3212-3.1242v.0024ZM518.255,480.4132l5.6423-6.9504c-2.8008-2.796-5.7165-5.5105-8.7569-8.1268-31.5679-27.1931-72.4582-42.1648-115.1381-42.1648s-83.5678,14.9742-115.1381,42.1648c-3.0356,2.6163-5.9537,5.3284-8.7545,8.1244l5.6423,6.9504c2.8487-2.875,5.8267-5.6662,8.9366-8.3472,29.9531-25.7963,68.7733-40.0038,109.3161-40.0038s79.363,14.2075,109.3137,40.0038c3.1122,2.681,6.0879,5.4697,8.939,8.3472l-.0024.0024ZM475.1917,514.9088l1.8304-6.3011-7.8728-5.8699,6.3394-4.533,3.6705,2.7528,4.1688-14.0302-24.1982,15.6139-9.9189-5.5991,37.9553-24.5097c1.4639-.9464,3.4644-1.7801,5.9993.1653l1.622,1.2482c2.5564,1.9646,2.1922,4.2167,1.6915,5.7381l-12.5974,43.2645-8.6898-7.9375v-.0023ZM296.5656,719.8056h-27.9909v-21.4502h16.68l6.8282,5.8124h.2276v-21.8982h-.2276l-6.8282,5.8124h-16.68v-18.659h26.9846l7.8393,8.3807h.2228l-.8961-18.5488h-57.5535v.2276l5.2685,6.3658v57.6469l-5.2685,6.3658v.2228h60.0164l1.4567-21.3376h-.2276l-9.8518,11.0593h0ZM307.141,577.2396l19.821,50.4977h11.0833l18.3643-51.0535,3.1314,44.4577-6.9432,6.3658v.2276h30.1184v-.2276l-5.8172-6.3658-4.2599-57.6469,4.5929-6.3658v-.2204h-25.0775l-17.0202,47.2512-18.3643-47.2512h-25.4153v.2204l5.1535,6.3658-3.026,57.6469-6.1526,6.3658v.2276h24.7373v-.2276l-6.155-6.3658,1.2291-43.9018h0ZM223.8008,719.693h-24.2941v-53.8447l6.6078-6.3658v-.2276h-30.013v.2276l5.2685,6.3658v57.6469l-5.2685,6.2532v.3354h56.3196l2.6906-22.2264h-.2276l-11.0833,11.8356h0ZM169.5632,627.5073v.2276h28.5539v-.2276l-5.2685-6.3658v-57.6469l5.2685-6.3658v-.2204h-28.5539v.2204l5.1511,6.3658v21.4502h-25.4153v-21.4502l5.1511-6.3658v-.2204h-28.5539v.2204l5.2637,6.3658v57.6469l-5.2637,6.3658v.2276h28.5539v-.2276l-5.1511-6.3658v-24.9122h25.4153v24.9122l-5.1511,6.3658ZM615.508,719.8056h-27.9933v-21.4502h16.68l6.8306,5.8124h.2276v-21.8982h-.2276l-6.8306,5.8124h-16.68v-18.659h26.987l7.8345,8.3807h.2228l-.8913-18.5488h-57.5535v.2276l5.2661,6.3658v57.6469l-5.2661,6.3658v.2228h60.014l1.4567-21.3376h-.2276l-9.8494,11.0593h0ZM358.5539,701.8174l-8.3927-28.1466-9.8566,28.1466h18.2493ZM383.6338,723.4928l5.822,6.3658v.2228h-30.3388v-.2228l5.822-6.3658-3.2464-11.0593h-25.0799l-3.8118,11.0593,5.4865,6.3658v.2228h-23.7358v-.2228l5.5991-6.3658,21.8311-57.6469-4.1449-6.3658v-.2276h24.0713l21.7185,64.2404h.0072ZM92.771,618.3479c-14.5597,0-23.8508-14.749-23.8508-27.4878,0-15.6378,8.5077-25.8011,20.7123-25.8011,3.2464,0,6.385.3354,9.1857,1.1117l10.9707,13.5222h.2252l-.7834-22.3438c-3.1386-1.2267-9.9644-2.9062-18.3643-2.9062-25.9712,0-40.8663,17.6551-40.8663,37.9864s14.3297,37.7589,38.9616,37.7589c6.6078,0,16.347-2.2306,23.065-7.2571l1.0063-11.7301h-.2228c-5.7093,4.4659-13.8888,7.1517-20.0414,7.1517l.0024-.0048ZM500.4778,627.5049l-5.1511-6.3658v-57.6469l5.1511-6.3658v-.2204h-28.5539v.2204l5.2637,6.3658v57.6469l-5.2637,6.3658v.2276h28.5539v-.2276ZM437.845,696.9011l7.051,6.373v13.2947c-2.2401,2.566-6.1598,4.6863-11.4187,4.6863-12.5423,0-19.1478-15.3024-19.1478-28.1514,0-13.9655,7.0582-25.6933,21.6107-25.6933,4.0298,0,8.2849.3354,11.7541,1.5597l11.1983,12.0632h.2228l-.6733-19.4353c-6.4928-3.3518-14.3297-4.7989-22.2791-4.7989-23.8461,0-40.7537,14.634-40.7537,38.7627,0,20.2163,12.988,36.9802,33.2522,36.9802,8.8479,0,16.9076-2.0149,24.4091-7.4847l8.8407,7.4847h.2276v-29.2679l5.5943-6.373v-.2228h-29.8884v.2228h0ZM419.313,593.3231c2.2401.6709,4.8133,1.0039,7.5015,1.0039,9.8566,0,14.1093-5.3619,14.1093-13.2947,0-9.387-5.4865-13.8505-15.6785-13.8505h-5.9322v26.1437-.0024ZM401.1787,621.1367v-57.6469l-5.2661-6.3658v-.2204h33.5924c20.3792,0,29.6704,9.2648,29.6704,23.3501s-11.0833,23.6808-26.1988,23.6808c-4.9259,0-9.9644-.3354-13.6612-1.2267v18.4314l7.3888,6.3658v.2276h-30.7917v-.2276l5.2661-6.3658v-.0023ZM570.3388,597.4511c0-12.286-4.5881-31.8386-20.269-31.8386-12.54,0-16.1218,12.5112-16.1218,20.9997,0,12.4034,5.1535,32.3993,20.269,32.3993,10.8557,0,16.1218-10.2806,16.1218-21.5628v.0024ZM551.5264,630.1811c-22.1689,0-36.4986-18.211-36.4986-38.8705s16.4572-36.8724,37.0617-36.8724c22.7248,0,37.2821,17.7677,37.2821,38.099,0,23.2375-17.5785,37.6438-37.8451,37.6438h0ZM527.8481,659.4753l5.8244,6.3658v40.3344c0,11.6151-5.7093,14.5214-15.0029,14.5214s-15.1155-2.6834-15.1155-14.5214v-40.3344l5.822-6.3658v-.2276h-29.2248v.2276l5.2661,6.3658v40.3344c0,19.3202,9.8518,26.3641,30.8995,26.3641,19.1478,0,28.8893-6.5934,28.8893-25.8083v-40.8902l5.1463-6.3658v-.2276h-22.502v.2276h-.0024ZM663.0731,668.1795c0-5.0361-3.8262-8.8407-8.6562-8.8407s-8.7018,3.807-8.7018,8.8407,3.8214,8.9198,8.7018,8.9198,8.6562-3.7807,8.6562-8.9198ZM665.2198,668.1795c0,6.1813-4.9882,10.688-10.803,10.688s-10.8461-4.509-10.8461-10.688,4.981-10.6209,10.8461-10.6209,10.803,4.5138,10.803,10.6209ZM654.4001,667.444c1.5741,0,2.9924-.0863,2.9924-1.9838,0-1.5285-1.3848-1.8041-2.6977-1.8041h-2.5444v3.7879h2.2498ZM656.1491,668.9462l3.4764,5.4123h-2.0724l-3.2368-5.326h-2.1659v5.326h-1.852v-12.286h4.6887c2.911,0,4.3437,1.0709,4.3437,3.4908,0,2.1994-1.3848,3.1481-3.1817,3.383h0ZM651.494,557.1216l6.833,6.3658v37.536l-28.7792-44.1247h-25.8634v.2204l5.2661,6.3658v57.6469l-5.2661,6.3658v.2276h23.6233v-.2276l-6.9384-6.3658v-46.923l35.9356,53.5188h13.4384v-64.2428l5.2613-6.3658v-.2204h-23.5106v.2229ZM723.691,584.1589c-12.8754-3.5746-16.795-5.1391-16.795-11.0593,0-6.8138,8.8479-8.1579,14.4447-8.1579,4.7031,0,9.0708.5559,12.988,1.7873l10.7479,11.6199h.2228l-.8937-20.0007c-6.7228-2.566-13.7738-3.91-21.8312-3.91-16.9076,0-33.1444,5.8123-33.1444,22.5739,0,10.8341,7.5015,17.3125,23.7359,21.7856,12.5424,3.462,18.6997,5.6926,18.6997,12.0632,0,7.3721-9.4062,8.9342-15.6785,8.9342-5.2613,0-9.9644-.7787-13.9966-2.0101l-10.8557-13.4049h-.2276l.7835,21.225c7.3937,3.3518,16.3494,4.5785,24.7421,4.5785,18.1391,0,33.3672-7.5925,33.3672-22.8973,0-14.4135-9.9644-18.544-26.3138-23.1249l.0048-.0025ZM232.1313,599.4614h18.2493l-8.3927-28.1538-9.8566,28.1538ZM230.1188,627.7278h-23.7382v-.2276l5.6015-6.3658,21.8311-57.6469-4.1448-6.3658v-.2204h24.0713l21.7209,64.2332,5.8219,6.3658v.2276h-30.3412v-.2276l5.8243-6.3658-3.2488-11.0593h-25.0799l-3.8094,11.0593,5.4865,6.3658v.2276h.0048Z" style="fill: #000040;"/>
  </g>
</svg>