<?xml version="1.0" encoding="UTF-8"?>
<svg id="_图层_1" data-name="图层_1" xmlns="http://www.w3.org/2000/svg" version="1.1" viewBox="0 0 800 800">
  <!-- Generator: Adobe Illustrator 29.1.0, SVG Export Plug-In . SVG Version: 2.1.0 Build 142)  -->
  <path d="M466.2367,263.6893c6.8526-7.5559,19.1713-22.2055,22.7681-33.5796,3.798-11.9568,2.7131-23.0294-3.2356-32.8963-7.6762-12.7406-22.386-17.2821-33.5996-17.2821-2.9535,0-5.8677.3014-8.5201.8641-.8843.1608-1.9091.4018-3.0344.7235-3.8182-1.045-7.7971-1.5675-11.8366-1.5675-2.9737,0-5.8677.2813-8.5201.844-.1411.0201-.3214.0603-.4826.1004.6636-2.0095,1.0254-4.1397,1.0254-6.3701,0-11.4143-9.264-20.6582-20.6585-20.6582-11.4141,0-20.6781,9.2439-20.6781,20.6582,0,2.2304.3618,4.3606,1.0248,6.3701-.1006-.0201-.1809-.0402-.2815-.0603-6.611-1.3866-13.926-1.1253-20.5376.6833-1.0849-.3016-2.0495-.5426-2.8333-.6833-2.7934-.5828-5.7273-.8842-8.7212-.8842-11.2338,0-25.9436,4.5415-33.6198,17.262-5.9487,9.8668-7.0335,20.9395-3.2356,32.8963,4.4008,13.8659,14.5289,25.9232,22.4467,33.7403-101.9241,29.4801-172.4595,122.7432-172.4595,229.3095,0,131.7862,107.2295,239.0157,239.0356,239.0157,131.646,0,238.7344-107.2295,238.7344-239.0157,0-106.8075-70.696-200.151-172.7808-229.4703" style="fill: #fff;"/>
  <path d="M581.5729,311.7376c-25.8031-25.8226-56.1671-45.456-89.2442-58.1563,5.1845-7.2545,9.746-15.3329,12.4389-23.7729,4.984-15.6946,3.4367-30.9671-4.5014-44.1497-8.8218-14.6095-26.1644-23.7128-45.2547-23.7128-3.8182,0-7.556.3819-11.1535,1.1054-.723.1205-5.8677,1.286-12.499,2.8736-2.5322-14.5089-15.1722-25.5615-30.4247-25.5615-15.6947,0-28.6162,11.6956-30.6253,26.8275-8.6814-2.1903-16.197-3.9789-17.1218-4.1196-3.617-.7434-7.3751-1.1051-11.2129-1.1051-19.1112,0-36.4537,9.0831-45.2553,23.6926-7.9375,13.1826-9.505,28.4551-4.5216,44.1497,2.8137,8.8218,7.6566,17.2419,13.1625,24.7374-32.1725,12.7406-61.6927,32.0122-86.893,57.1918-48.4903,48.4302-75.1968,112.8763-75.1968,181.422,0,68.6663,26.7065,133.1728,75.1968,181.6632,48.4909,48.4703,113.0175,75.1772,181.6836,75.1772,68.5459,0,132.9921-26.7069,181.4223-75.1772,48.4701-48.4904,75.1569-113.017,75.1569-181.6632,0-68.5457-26.6869-132.9717-75.1569-181.422M392.2327,168.1755l6.511.2613-1.045-6.0488h6.4509l-.9046,6.0488,6.3902-.2613v6.1894l-6.2694-.2412,1.1854,5.6669h-7.2543l1.1854-5.6669-6.2498.2412v-6.1894ZM400.1506,727.5533c-129.2543,0-234.414-105.1597-234.414-234.3937,0-108.9777,74.9564-200.8141,176.0765-226.7774l-.1202-1.2661c-8.0381-7.1137-21.2006-20.8189-26.1644-36.4129-3.376-10.6306-2.4316-20.4171,2.7934-29.1185,7.7768-12.8812,24.6974-16.9002,37.4374-14.2276,1.0652.201,2.3715.5426,3.7783.9848,3.6974-1.1454,7.6762-1.7684,11.836-1.7684,2.653,0,5.2649.2613,7.7572.7836,3.5766.6833,9.4645,2.8536,14.4081,4.823.4624-3.0947,3.1951-5.6269,6.6717-5.6269,3.1755,0,5.888,2.492,6.3908,5.5866,4.9233-1.9693,10.7708-4.1195,14.3878-4.8029,2.3715-.5023,4.984-.7635,7.6364-.7635,4.1598,0,8.1386.6229,11.8563,1.7684,1.4473-.4422,2.7732-.8038,3.8789-1.0048,12.6198-2.6525,29.5404,1.3665,37.3172,14.2477,5.2244,8.7014,6.1695,18.4879,2.7934,29.1185-4.7025,14.8304-26.3453,36.7144-26.3453,36.7144l-.0803.8843c101.1802,25.8428,176.2169,117.7394,176.2169,226.8579,0,129.234-105.0186,234.3937-234.1123,234.3937"/>
  <g>
    <path d="M441.5779,305.8797c-.9046.844-1.527,1.5875-4.1395,1.4871l-.5023,1.8889,2.813.6029-3.1148,13.2429,3.1148.6632,3.8783-17.5635-2.0495-.3215Z"/>
    <path d="M390.4285,310.1219c1.4265-.8641,1.9692-2.5521,1.8686-3.999-.1809-3.3158-2.7529-4.6622-5.7671-4.4009-3.0945.2412-5.3655,1.8688-5.2048,5.1445.0803,1.5473,1.0248,3.0947,2.3513,3.7378-1.7282.7837-2.3513,2.3713-2.2709,4.441.3214,3.4765,3.0547,5.0842,6.3301,4.8229,3.3558-.2613,5.8475-2.2306,5.6267-5.667-.1607-1.9493-.9647-3.5167-2.9339-4.0794M386.6906,304.4751c1.4271-.0402,2.3513.8842,2.4518,2.0698.0601,1.3664-.9046,2.3511-2.2311,2.3511-1.1051.1809-2.1703-.7636-2.2703-2.0296-.0803-1.1656.6427-2.2708,2.0495-2.3914M387.5547,317.075c-1.9692.1608-2.7327-.844-2.8137-2.3914-.1803-1.7081.8445-2.7933,2.4316-2.8536,1.6282-.2009,2.7131.8239,2.9946,2.5321.0803,1.5473-.6231,2.532-2.6125,2.7129"/>
    <path d="M359.9295,305.4176c-.5826,1.3062-.8641,2.1502-3.3356,3.3359l.4618,1.8688,2.6327-.6028,2.8934,13.2429,3.135-.5627-3.8182-17.684-1.9692.4019Z"/>
    <path d="M415.0351,301.7883c-4.1794-.3215-6.0284,2.1301-6.2897,5.7875-.2613,2.7933,1.1652,5.3455,4.2604,5.5865,1.3259,0,2.7928-.3416,3.9586-1.1053l-.1607,1.6278c-.241,2.8938-1.2664,3.6172-3.0344,3.5569-1.286-.1608-2.1703-1.0852-1.9692-2.311l-3.376-.2412c0,3.2555,2.1096,5.0842,5.1643,5.2851,3.8384.3216,6.0486-1.8889,6.3504-5.6267l.5421-5.9483c.322-3.798-1.6276-6.2698-5.4458-6.6114M417.2257,308.5002l-.0601,1.0248c-1.0248.6029-1.8889,1.266-2.8339,1.1656-1.5068-.0804-2.5316-1.0852-2.331-3.1149.1607-1.8889,1.0051-3.0947,2.6928-2.9741,1.8692.0804,2.7333,1.0852,2.5322,3.8985"/>
  </g>
  <g>
    <path d="M455.3812,684.7078l1.7687,5.5865,5.5059-1.6679.8439,3.0144c1.1057,3.9186-.1607,6.8124-3.4962,7.8171-.9248.2009-1.7086.3215-2.3715.3215-2.3513,0-4.0592-1.5875-5.084-5.044l-4.9037-17.0008c-1.2259-4.3205-.0803-6.7923,3.798-7.8976,3.4968-1.0048,5.888.7637,7.315,5.5062l6.9532-1.9292c-2.2709-6.8726-6.1897-10.2688-11.5147-10.2688-1.286,0-2.8137.1608-4.5216.6029-8.2595,2.4516-11.2534,8.2191-8.6409,17.1415l4.3002,14.75c2.5322,8.8822,8.0785,12.2984,16.4784,9.9473,2.4512-.8642,4.2401-2.6124,5.8677-5.9282l.3416-.7435,2.4518,3.4363,3.3153-.9444-5.888-20.3768-12.5192,3.6774Z"/>
    <path d="M214.2434,582.3755l-2.6125-6.6918-2.2709.9043c-1.4669.643-2.6726.8238-3.617.8238-2.9136,0-4.0592-2.11-4.7221-3.7578-.7439-1.8689-.8641-3.2154-.2416-4.4814.5832-1.3866,1.8288-2.4516,4.1598-3.4162l16.3981-6.531c1.2259-.6632,2.4316-.844,3.4361-.844,2.9142,0,4.0396,2.0698,4.8436,3.7579.7028,1.7483.7635,3.2153.2613,4.421-.563,1.3263-1.9496,2.5119-4.2205,3.3559l-.723.3215,2.7529,6.7521c4.4008-1.8488,7.1335-4.3205,8.3999-7.4152,1.0248-2.7732.8439-6.109-.6636-9.8066-2.331-5.7272-5.9683-8.5406-10.6904-8.5406-2.1703,0-4.5216.5023-7.2347,1.6277l-14.348,5.7875c-4.5014,1.9091-7.4757,4.421-8.6814,7.5559-1.1652,2.7129-.8236,6.0085.7034,9.8468,3.3362,8.1386,9.2438,10.3692,17.9049,6.8726l1.1658-.5426Z"/>
    <polygon points="248.7899 587.3371 244.9717 581.1477 209.3624 604.0766 220.3546 621.198 225.8206 617.8018 218.5062 606.6891 248.7899 587.3371"/>
    <path d="M340.3265,660.9589l-10.3691-3.6172-14.0064,39.8895,10.8714,3.7779c2.5726.8641,4.6823,1.3464,6.7122,1.3464,5.1244,0,8.5808-2.6928,10.4292-8.0583,1.7086-5.1042.6028-7.8372-2.2703-11.6353l-.5225-.5828.7635-.1809c3.7379-.8641,6.37-3.0344,7.4757-6.4305,2.9737-8.3597-3.2154-12.4993-9.0837-14.5089M337.373,691.3232c-1.045,2.9741-3.1553,4.5818-5.9487,4.5818-.9444,0-1.8686-.1608-2.8934-.5225l-3.7379-1.3464,4.3603-12.5597,3.1755,1.0249c2.2304.7636,3.7777,1.8488,4.5615,3.3961,1.0652,1.5273,1.3063,3.3961.4826,5.4258M342.3564,673.9004c-.7635,2.311-2.7131,3.6774-5.466,3.6774-.7838,0-1.6478-.1808-2.5923-.5023l-3.2154-1.2258,3.7176-10.5903,3.5569,1.2861c1.9692.6632,3.2356,1.7082,3.8587,2.9339.6427,1.2862.6427,2.733.1404,4.421"/>
    <path d="M375.301,669.604l-11.3742-1.5674-5.6065,41.8589,7.1139.9646,2.4114-17.483,4.6418.6631,4.7626,18.4075,7.8375,1.1455-5.5261-20.0553.482-.1608c4.2604-.9646,6.8729-4.0794,7.5156-9.5052.563-4.1196-.1006-7.2344-2.0698-9.6861-2.1102-2.4919-5.5059-4.0191-10.1882-4.5818M380.385,682.6661c-.6028,4.7626-3.4766,5.7875-5.7475,5.7875-.4422,0-.9647-.1205-1.3866-.2009l-4.662-.6833,1.6883-12.6803,4.843.4421c1.8686.3417,3.3356,1.0651,4.2604,2.2508.9242,1.2861,1.3461,2.9138,1.0045,5.0841"/>
    <path d="M426.9398,669.8371l-7.315.5426,2.1906,29.5806c.0803,2.2105-.241,4.1195-1.1652,5.3052-1.0254,1.1655-2.5726,1.8688-4.5817,2.0296-4.2604.2211-6.4712-1.8688-6.833-6.3702l-2.19-29.661-7.2145.5225,2.2507,29.7212c.5225,8.0583,4.9031,12.0774,12.6198,12.0774h1.6883c6.1891-.4422,13.4035-3.2354,12.5597-14.0066l-2.0097-29.7413Z"/>
    <path d="M492.4231,669.9255l2.8333,5.1043,5.0042-2.6928,1.4062,2.8536c1.045,1.7081,1.2057,3.3559,1.045,4.7626-.4219,1.5273-1.3461,2.7129-2.7732,3.4765-3.7379,1.9493-6.0885.9043-8.3392-3.155l-8.1589-15.5941c-2.0097-4.0794-1.4271-6.732,2.09-8.5003,3.3558-1.6881,5.9879-.3216,8.3594,3.9186l6.3706-3.3962c-3.135-5.2851-6.7925-7.9779-11.2136-7.9779-1.9496,0-4.1598.6431-6.4509,1.7684-3.5766,1.9693-5.9278,4.3406-6.933,7.2142-.9843,3.0545-.3612,6.9731,1.9293,11.3741l7.2145,13.5845c4.2401,8.2391,10.2685,10.3492,17.9049,6.3502,2.4721-1.1053,3.8182-3.2957,4.7228-6.933l.1202-.7636,3.2356,2.8535,2.9743-1.5072-9.7669-18.8496-11.5748,6.109Z"/>
    <polygon points="570.9064 547.6807 569.4597 551.2174 597.9949 574.689 597.7337 575.3521 597.3522 575.4526 560.9592 571.6345 559.4315 575.1311 603.3806 579.4516 604.8273 576.0354 570.9064 547.6807"/>
    <polygon points="531.2416 662.7052 523.5249 653.0393 532.0253 646.2671 528.1066 641.3035 519.5257 648.0556 512.7535 639.5552 523.9468 630.6127 519.9477 625.629 503.1283 639.1131 529.5735 672.1501 546.7756 658.4047 542.7967 653.4412 531.2416 662.7052"/>
    <path d="M273.9454,618.893l-21.8034,20.3166c-1.7086,1.5071-3.3564,2.2708-4.9233,2.2708-1.5479,0-2.9946-.7637-4.5014-2.2708-1.3866-1.5273-1.9698-3.155-1.8895-4.7627.0803-1.4468,1.1456-2.954,2.7333-4.4009l21.7231-20.2965-4.9233-5.3655-21.8237,20.3567c-3.3159,2.9942-4.8031,6.1291-4.8031,9.3846.0607,3.1349,1.4872,6.2698,4.5621,9.3846,5.9278,6.4909,12.3984,6.8124,18.6684,1.045l21.8237-20.2965-4.843-5.3655Z"/>
    <polygon points="554.7615 583.5249 552.2091 587.102 560.3484 614.5724 559.9461 615.1954 559.5842 614.9743 541.5187 602.3544 539.3281 605.429 573.8721 629.6843 576.143 626.6499 564.5075 618.471 561.3731 607.0366 587.8589 609.83 590.4309 606.3534 560.1871 603.118 554.7615 583.5249"/>
    <path d="M296.4658,637.9958l-9.023-6.33-24.4558,34.524,9.5252,6.6315c7.2948,5.2047,13.7654,4.5818,18.2465-1.7885,3.1148-4.3205,2.7934-7.3751,1.0045-11.796l-.3416-.7436h.8641c3.8384.2412,6.9532-1.1454,9.1033-4.0794,4.984-7.1339.1411-12.841-4.9233-16.418M285.2123,666.3908c-1.4265,2.0095-3.2154,3.0344-5.1643,3.0344-1.4473,0-2.894-.6029-4.421-1.5473l-3.2755-2.3512,7.7971-10.9722,2.7125,1.9894c1.8692,1.3263,3.0344,2.8536,3.5772,4.4612.3821,1.8086,0,3.6775-1.2259,5.3856M294.8382,650.9172c-1.0045,1.5473-2.5524,2.2708-4.3407,2.2708-1.3461,0-2.8934-.4823-4.3205-1.4669l-2.6327-2.0096,6.4307-9.1434,3.0749,2.1904c3.2957,2.2104,3.9182,5.3052,1.7883,8.1587"/>
  </g>
  <g>
    <path d="M599.4477,515.9318c7.5763-1.6077,17.2818-11.8363,17.5431-22.2859-10.0674,2.8536-17.5228,14.8506-17.5431,22.2859" style="fill: #b98f00;"/>
    <path d="M595.5474,403.2062c-7.6762,7.4756-8.4802,21.5423-5.0036,28.0332,5.9481-4.9435,9.6859-18.6084,5.0036-28.0332" style="fill: #b98f00;"/>
    <path d="M600.7663,472.3568c6.8925-3.5971,13.1423-16.217,10.55-26.3452-8.9825,5.6268-12.7204,19.2716-10.55,26.3452" style="fill: #b98f00;"/>
    <path d="M584.0063,385.0519c-6.3504,8.3798-4.9233,22.5472-.2208,28.3949,5.0435-5.9683,6.37-19.8543.2208-28.3949" style="fill: #b98f00;"/>
    <path d="M603.0531,493.875c7.1139-3.0947,14.5086-15.0917,12.64-25.5614-9.3646,4.9635-14.167,18.2869-12.64,25.5614" style="fill: #b98f00;"/>
    <path d="M587.1315,431.4645c-2.7131-7.2946-14.3682-15.2324-24.8783-13.9664,4.4811,9.7061,17.5633,15.1721,24.8783,13.9664" style="fill: #b98f00;"/>
    <path d="M562.0318,379.8934c-4.3407-6.511-17.4026-11.9166-27.4504-8.4602,6.4503,8.5808,20.4168,11.0927,27.4504,8.4602" style="fill: #b98f00;"/>
    <path d="M580.6928,415.0384c-3.4968-6.933-15.775-13.6449-26.1441-11.3942,5.3452,9.1234,18.8898,13.3033,26.1441,11.3942" style="fill: #b98f00;"/>
    <path d="M571.3982,396.7776c-4.0592-6.6516-16.9402-12.1979-27.0487-8.9827,6.1492,8.6008,20.0955,11.575,27.0487,8.9827" style="fill: #b98f00;"/>
    <path d="M561.2161,348.8419c-5.8279,8.8621-3.2356,22.8486,1.6276,28.2945,4.6823-6.2497,4.9638-20.2764-1.6276-28.2945" style="fill: #b98f00;"/>
    <path d="M532.7827,318.6625c-4.9031,9.6257-.9647,23.15,4.5014,28.1538,4.0592-6.732,2.9743-20.6984-4.5014-28.1538" style="fill: #b98f00;"/>
    <path d="M547.1331,332.8659c-5.2446,9.3042-2.0299,23.1098,3.2356,28.2744,4.2401-6.4105,3.9384-20.618-3.2356-28.2744" style="fill: #b98f00;"/>
    <path d="M573.3238,366.5319c-6.2093,8.5807-4.5014,22.7079.1607,28.415,5.0239-5.9282,6.0689-19.8946-.1607-28.415" style="fill: #b98f00;"/>
    <path d="M596.3648,451.7951c6.3902-4.3808,11.4343-17.5635,7.6762-27.3098-8.1987,6.4909-10.5095,20.4371-7.6762,27.3098" style="fill: #b98f00;"/>
    <path d="M571.045,433.9563c2.8738,10.1482,14.7699,17.684,22.2861,17.8448-1.5074-7.777-11.7962-17.3223-22.2861-17.8448" style="fill: #b98f00;"/>
    <path d="M525.0261,333.8527c2.4316-7.4554-1.3866-20.839-10.2489-26.6265-2.8333,10.2688,3.8182,22.8084,10.2489,26.6265" style="fill: #b98f00;"/>
    <path d="M534.7004,349.29c-5.0441-5.908-18.6887-9.5453-28.1943-4.8028,7.2549,7.4956,21.6029,8.3798,28.1943,4.8028" style="fill: #b98f00;"/>
    <path d="M205.9441,431.2414c3.4766-6.4909,2.6524-20.5577-5.0036-28.0332-4.6823,9.4248-.9444,23.0898,5.0036,28.0332" style="fill: #b98f00;"/>
    <path d="M195.7216,472.3568c2.1703-7.0736-1.5675-20.7184-10.55-26.3452-2.5923,10.1282,3.6575,22.7481,10.55,26.3452" style="fill: #b98f00;"/>
    <path d="M212.4809,385.0519c-6.1492,8.5406-4.8227,22.4266.2208,28.3949,4.7025-5.8477,6.1296-20.0151-.2208-28.3949" style="fill: #b98f00;"/>
    <path d="M193.4347,493.875c1.527-7.2746-3.2755-20.5979-12.64-25.5614-1.8686,10.4697,5.5261,22.4668,12.64,25.5614" style="fill: #b98f00;"/>
    <path d="M209.3563,431.4645c7.315,1.2058,20.3972-4.2603,24.8783-13.9664-10.5101-1.266-22.1653,6.6717-24.8783,13.9664" style="fill: #b98f00;"/>
    <path d="M234.4573,379.8934c7.0335,2.6325,21,.1206,27.4504-8.4602-10.0477-3.4564-23.1097,1.9493-27.4504,8.4602" style="fill: #b98f00;"/>
    <path d="M215.7968,415.0384c7.2543,1.9091,20.7989-2.2708,26.1441-11.3942-10.3691-2.2507-22.6473,4.4612-26.1441,11.3942" style="fill: #b98f00;"/>
    <path d="M225.089,396.7776c6.9532,2.5923,20.8995-.3818,27.0487-8.9827-10.1085-3.2153-22.9895,2.331-27.0487,8.9827" style="fill: #b98f00;"/>
    <path d="M235.2717,348.8419c-6.5914,8.0181-6.3099,22.0447-1.6276,28.2945,4.8632-5.4459,7.4555-19.4323,1.6276-28.2945" style="fill: #b98f00;"/>
    <path d="M263.7027,318.6625c-7.4757,7.4554-8.5606,21.4217-4.5014,28.1538,5.466-5.0038,9.4044-18.5281,4.5014-28.1538" style="fill: #b98f00;"/>
    <path d="M249.3541,332.8659c-7.174,7.6564-7.4757,21.8639-3.2356,28.2744,5.2655-5.1645,8.4802-18.9701,3.2356-28.2744" style="fill: #b98f00;"/>
    <path d="M223.1621,366.5319c-6.2296,8.5205-5.1845,22.4868-.1607,28.415,4.662-5.7071,6.37-19.8343.1607-28.415" style="fill: #b98f00;"/>
    <path d="M200.1224,451.7951c2.8333-6.8726.5225-20.8189-7.6762-27.3098-3.7581,9.7463,1.286,22.929,7.6762,27.3098" style="fill: #b98f00;"/>
    <path d="M203.155,451.7951c7.5156-.1407,19.4325-7.6765,22.2861-17.8448-10.4899.5225-20.7787,10.0678-22.2861,17.8448" style="fill: #b98f00;"/>
    <path d="M281.702,307.2201c-8.8623,5.8076-12.6603,19.1711-10.2489,26.6265,6.4509-3.8182,13.1024-16.3376,10.2489-26.6265" style="fill: #b98f00;"/>
    <path d="M282.5563,326.343c7.3347.7234,20.1556-5.5464,24.0541-15.3931-10.6101-.5828-21.8034,7.9377-24.0541,15.3931" style="fill: #b98f00;"/>
    <path d="M261.7893,349.29c6.5914,3.577,20.9393,2.6928,28.1943-4.8028-9.5056-4.7425-23.1502-1.1053-28.1943,4.8028" style="fill: #b98f00;"/>
    <path d="M272.7453,336.4872c6.6116,3.577,20.9393,2.6928,28.1943-4.8028-9.5056-4.7425-23.1502-1.1053-28.1943,4.8028" style="fill: #b98f00;"/>
    <path d="M247.9258,364.2129c6.6717,3.3158,20.8191,1.8488,27.9526-6.109-9.6657-4.1396-23.2305-.0603-27.9526,6.109" style="fill: #b98f00;"/>
    <path d="M197.056,493.24c7.2145-1.8688,17.0813-11.9166,17.242-22.5069-10.0882,2.9741-17.6436,14.7702-17.242,22.5069" style="fill: #b98f00;"/>
    <path d="M198.3378,472.0413c7.4757-.9646,18.4679-9.8468,20.0752-20.2362-10.3489,1.688-19.2516,12.3788-20.0752,20.2362" style="fill: #b98f00;"/>
    <path d="M181.0136,516.3056c1.4872,10.3492,12.0777,19.6132,19.8342,20.3166-.7034-7.355-9.3848-18.5481-19.8342-20.3166" style="fill: #b98f00;"/>
    <path d="M197.0395,515.9318c-.0202-7.4353-7.4757-19.4323-17.5431-22.2859.2613,10.4497,9.9668,20.6782,17.5431,22.2859" style="fill: #b98f00;"/>
    <path d="M199.9237,514.7361c7.1139-2.4114,16.197-13.1826,15.8554-23.7328-9.827,3.6574-16.7599,15.8755-15.8554,23.7328" style="fill: #b98f00;"/>
    <path d="M203.358,535.3561c6.8324-3.1952,14.6294-14.951,13.0221-25.3605-9.3646,4.7425-14.6098,17.6238-13.0221,25.3605" style="fill: #b98f00;"/>
    <path d="M513.9315,326.343c-2.2507-7.4554-13.444-15.9759-24.0541-15.3931,3.8985,9.8467,16.7195,16.1165,24.0541,15.3931" style="fill: #b98f00;"/>
    <path d="M523.7419,336.4872c-5.0441-5.908-18.6887-9.5453-28.1943-4.8028,7.2549,7.4956,21.6029,8.3798,28.1943,4.8028" style="fill: #b98f00;"/>
    <path d="M548.5602,364.2129c-4.7221-6.1693-18.287-10.2487-27.9526-6.109,7.1335,7.9578,21.2809,9.4248,27.9526,6.109" style="fill: #b98f00;"/>
    <path d="M582.1917,470.731c.1607,10.5903,10.0275,20.6381,17.242,22.5069.4017-7.7367-7.1537-19.5328-17.242-22.5069" style="fill: #b98f00;"/>
    <path d="M598.1494,472.0413c-.8236-7.8573-9.7264-18.5481-20.0752-20.2362,1.6074,10.3893,12.5995,19.2716,20.0752,20.2362" style="fill: #b98f00;"/>
    <path d="M595.6418,536.6121c7.7566-.6833,18.3471-9.9472,19.8342-20.3166-10.4494,1.7684-19.1308,12.9616-19.8342,20.3166" style="fill: #b98f00;"/>
    <path d="M580.6984,490.9994c-.3416,10.5502,8.7415,21.3213,15.8554,23.7328.9242-7.8573-6.0284-20.0754-15.8554-23.7328" style="fill: #b98f00;"/>
    <path d="M580.1078,509.9916c-1.6074,10.4095,6.1897,22.1854,13.0221,25.3605,1.5871-7.7368-3.6575-20.618-13.0221-25.3605" style="fill: #b98f00;"/>
  </g>
  <g>
    <path d="M385.228,198.2946c-3.2356-1.2058-6.27-2.2105-8.1589-2.5722-1.8889-.4019-3.7777-.5828-5.707-.5828-8.8819,0-16.9807,3.8784-20.5977,9.9071-10.0079,16.5989,5.1845,36.2322,16.197,47.3048,5.0239-.7636,10.1078-1.3263,15.2323-1.7483-10.1882-11.3942-20.8792-28.3547-12.0777-42.9441,2.8541-4.7425,8.5005-8.1186,15.1121-9.3645"/>
    <path d="M411.553,215.1004c0-6.109-5.1643-11.3741-11.2332-11.3741-6.6319,0-11.7158,5.265-11.7158,11.3741,0,6.5913,5.084,11.3741,11.7158,11.3741,6.0689,0,11.2332-4.7828,11.2332-11.3741"/>
    <path d="M341.7131,199.5907c.9046-1.5273,1.9894-2.9339,3.1951-4.2401-7.0133.7234-14.0468,3.9186-17.5234,9.686-11.2933,18.7491,9.5455,41.3766,20.2163,51.1631,2.3108-.5627,4.662-1.1053,7.0133-1.5876-6.27-7.1339-12.5995-16.1567-15.6947-25.9231-3.376-10.6306-2.4316-20.4171,2.7934-29.0983"/>
    <path d="M461.0865,228.705c-3.0945,9.7463-9.4044,18.7491-15.6542,25.8629,2.3513.5024,4.6823,1.0249,7.0133,1.6077,10.6708-9.8066,31.4691-32.414,20.1758-51.143-3.4766-5.7875-10.55-8.9626-17.5437-9.7061,1.2057,1.3263,2.2912,2.7329,3.2154,4.2602,5.225,8.7014,6.1695,18.4879,2.7934,29.1184"/>
    <path d="M406.71,237.4506c0-3.5368-2.9743-6.5712-6.4908-6.5712-3.8384,0-6.7723,3.0344-6.7723,6.5712,0,3.8181,2.9339,6.5712,6.7723,6.5712,3.5165,0,6.4908-2.7531,6.4908-6.5712"/>
    <path d="M430.6636,207.661c8.8016,14.6094-1.9091,31.5901-12.1175,42.9842,4.8834.422,9.7264.9646,14.5289,1.688,11.0124-11.0927,26.1644-30.7059,16.1767-47.2847-3.6373-6.0286-11.7152-9.9071-20.618-9.9071-1.9287,0-3.798.1809-5.5862.5627-1.8889.3417-4.8632,1.3263-8.0184,2.5119,6.833,1.1455,12.7007,4.5818,15.6346,9.4449"/>
    <path d="M400.1365,282.6775c-25.1997,0-53.8962,3.5971-49.9977,5.5665,3.8182,2.0095,19.5932,4.4411,49.9977,4.4411,30.2236,0,45.898-2.4316,49.8168-4.4411,3.7777-1.9693-24.7177-5.5665-49.8168-5.5665"/>
    <path d="M400.1309,269.1412c-2.4114,0-4.5216,1.8688-4.5216,4.421,0,2.5119,2.1102,4.421,4.5216,4.421,2.4518,0,4.3407-1.909,4.3407-4.421,0-2.5522-1.8889-4.421-4.3407-4.421"/>
    <path d="M445.9627,273.5602c-2.3911,0-4.5216,1.8688-4.5216,4.4009s2.1305,4.441,4.5216,4.441c2.4518,0,4.3407-1.909,4.3407-4.441s-1.8889-4.4009-4.3407-4.4009"/>
    <path d="M354.293,273.5602c-2.4114,0-4.5216,1.8688-4.5216,4.4009s2.1102,4.441,4.5216,4.441c2.4518,0,4.3407-1.909,4.3407-4.441s-1.8889-4.4009-4.3407-4.4009"/>
    <path d="M422.2318,271.9666c-1.6276,0-3.0749,1.266-3.0749,2.9942s1.4473,3.0144,3.0749,3.0144c1.6681,0,2.9541-1.2861,2.9541-3.0144s-1.286-2.9942-2.9541-2.9942"/>
    <path d="M377.8792,271.9666c-1.6276,0-2.994,1.266-2.994,2.9942s1.3664,3.0144,2.994,3.0144c1.8085,0,3.1951-1.2861,3.1951-3.0144s-1.3866-2.9942-3.1951-2.9942"/>
    <path d="M341.848,266.8182l.563,6.511c18.3268-5.3254,37.6987-8.199,57.7138-8.199,19.8949,0,39.1263,2.8334,57.3323,8.1186l.563-6.4506c-18.4078-5.2047-37.8397-7.998-57.8953-7.998-19.9949,0-39.5477,2.7329-58.2768,8.0181"/>
  </g>
  <path d="M562.3519,493.0953c0-90.4698-73.3288-163.8184-163.8185-163.8184-90.6707,0-164.0191,73.3485-164.0191,163.8184,0,90.6708,73.3484,164.0193,164.0191,164.0193,90.4898,0,163.8185-73.3485,163.8185-164.0193M398.5334,636.8383c-79.2971,0-143.7231-64.4462-143.7231-143.743,0-79.0758,64.426-143.6023,143.7231-143.6023,79.0959,0,143.6022,64.5266,143.6022,143.6023,0,79.2968-64.5063,143.743-143.6022,143.743"/>
  <g>
    <path d="M496.2394,591.0045c-54.0164,54.0167-141.5926,54.0167-195.6096,0-54.0164-54.0167-54.0164-141.5928,0-195.6095,54.017-54.0167,141.5932-54.0167,195.6096,0,54.0164,54.0167,54.0164,141.5928,0,195.6095" style="fill: #0079c1;"/>
    <path d="M264.6269,458.2095c-5.8076,22.2859-5.9885,45.7373-.5023,68.1036l167.4153-167.4356c-22.3462-5.486-45.7974-5.2851-68.1037.5225l-98.8093,98.8095Z"/>
    <path d="M285.2853,572.7297c4.5216,6.4105,9.6056,12.5396,15.3329,18.2869,5.8076,5.7875,11.9967,10.9118,18.4881,15.4735l192.615-192.6152c-4.5418-6.4909-9.6859-12.6803-15.4739-18.4879-5.7469-5.7272-11.8759-10.8113-18.2864-15.3329l-192.6757,192.6755Z"/>
    <path d="M532.7465,460.0965l-167.4153,167.4155c22.3462,5.486,45.7974,5.3052,68.0835-.5024l98.8296-98.8095c5.8076-22.306,5.9885-45.7574.5023-68.1036"/>
  </g>
  <polygon points="400.1346 50 409.3784 75.0189 435.6231 75.4609 415.1056 91.8991 422.3403 118.0433 400.1346 102.7707 377.9289 118.0433 385.1636 91.8991 364.6462 75.4609 390.8909 75.0189 400.1346 50" style="fill: #b98f00;"/>
</svg>