<?xml version="1.0" encoding="UTF-8"?>
<svg id="_图层_1" data-name="图层_1" xmlns="http://www.w3.org/2000/svg" version="1.1" viewBox="0 0 800 800">
  <!-- Generator: Adobe Illustrator 29.1.0, SVG Export Plug-In . SVG Version: 2.1.0 Build 142)  -->
  <g id="Calque_2-2">
    <circle cx="400" cy="400" r="350" style="fill: #fff;"/>
    <path d="M376.5189,112.5509c4.1196-.2488,8.7366-.4975,12.6074-.6257-.2487-8.7366,0-18.4758-.3731-27.2124l17.1001-.3731,1.1232,70.9031-16.6026.2488-.2487-28.7125c-3.8708,0-9.1135.2488-13.1087.4975l1.3719,28.9613-16.3538,1.7488-4.3683-70.9031,17.2283-1.6245,1.6245,27.088v.0038Z" style="fill: #001e96;"/>
    <path d="M335.7003,139.017l-12.8562-44.5651,15.9769-3.7464,15.1063,68.6567-15.2307,3.3695c-9.2379-14.3562-18.0989-28.5843-26.7149-42.9406l.75,2.9964,14.3563,43.3175-14.605,4.994-20.4734-67.5335,18.2233-5.9928,25.4636,41.4443h.0037Z" style="fill: #001e96;"/>
    <path d="M541.7948,171.4722l22.8441-40.3211,13.7306,8.7366-38.4479,58.7932-13.1087-8.4879c3.8708-16.6026,7.7378-32.8321,11.9855-49.1821l-1.6245,2.6232-20.9709,40.5699-13.7306-6.9916,33.9552-61.7895,17.1001,8.8648-11.733,47.1845h0Z" style="fill: #001e96;"/>
    <path d="M511.3373,104.6887l15.4794,6.4903-37.8222,59.5432-.4975.4975-18.0989-6.3659v-.6257l5.4915-71.0274,17.8501,5.1183c-2.122,16.3538-4.4927,34.4527-7.3647,50.5578l24.9661-44.1881h-.0037Z" style="fill: #001e96;"/>
    <path d="M462.5283,162.6074l-17.1001-3.1208c-.1244-4.8696-.1244-7.7378-.2488-13.1087-4.3683-.4975-8.4879-1.1232-12.8562-1.7488l-4.3683,12.3587-16.4782-1.7488,24.7173-68.9055,19.7233,3.1208,6.6147,73.1494-.0037.0038ZM444.0525,102.3142c-3.3695,9.8598-5.9928,20.349-8.2391,29.96l8.9891,1.3719c-.4975-10.3611-.2488-21.0953-.75-31.332" style="fill: #001e96;"/>
    <path d="M239.2093,129.0291l34.4527-18.3514c2.2464,3.7464,4.1196,7.4891,6.1171,11.1111l-19.2221,10.7342c2.122,4.3683,4.2439,8.6122,6.9916,12.6074l18.4758-9.611c2.122,3.4939,3.6183,8.1147,5.6159,11.8574-5.8684,3.2451-12.7318,6.4903-18.7246,9.9879l7.9904,14.9781c6.8672-2.7476,13.4818-6.9916,20.2209-10.2367,2.3707,3.7464,4.1196,7.3647,6.1171,11.2355l-33.7027,17.1001-34.3284-61.4164-.0038.0038Z" style="fill: #001e96;"/>
    <path d="M238.5836,156.1171c1.4963,3.6183,2.2463,8.4879,0,11.9855.9988.2488,2.2463-.75,3.6183-.75,6.3659-.75,10.7342,3.6183,14.8538,7.9904,3.6183,5.3671,6.739,11.2355,4.2439,18.3514-5.3671,11.4842-17.1001,17.8501-26.8393,25.8405l-3.8708-4.3683-40.8186-50.1809c7.4891-6.6146,15.355-12.6074,23.0929-18.7246,3.6183-2.2463,8.4879-3.3695,12.8562-1.9976,5.4915,1.6245,10.1123,6.9916,12.8562,11.8574M220.1003,159.6148c-3.8708-1.4963-7.1159,1.7488-9.7354,4.1196l9.9879,12.3587,4.6171-4.1196c.9988-1.2475,1.7488-3.1208,1.2475-4.8696-1.2475-3.1208-3.2451-5.6159-6.1171-7.4891M239.948,181.9576c-4.3683-2.6232-8.4879,1.2475-11.4842,3.8708l11.733,14.605,4.8696-4.6171c1.4963-1.7488,1.4963-4.6171.75-6.8672-1.1232-2.872-3.6183-4.994-5.8684-6.9916" style="fill: #001e96;"/>
    <path d="M199.51,259.4754l-41.3199-5.3671-.9988-.75-19.8477-28.46c-2.7476,4.8696-6.6147,9.4867-8.8648,14.3562,6.4903,8.8648,13.7306,18.3514,20.9709,26.7149v.75c-8.9891-4.994-18.6002-10.4855-27.7137-15.6038-2.7476,4.6171-4.8696,9.7354-7.3647,14.7294l.8744.6256,59.792,33.9552.75.4975c2.7476-4.6171,4.7452-9.7354,7.6135-14.7294l-13.6062-7.866-5.2427-7.6135.2488-.2487,25.2148,3.8708,9.4867-14.8538.0075-.0075Z" style="fill: #001e96;"/>
    <path d="M201.7601,258.8535l6.8672-2.872-1.7488-5.1184c6.8672-3.6183,12.8562-10.4855,15.8526-17.477,3.8708-9.4867-1.7488-17.7258-8.4879-23.8429-10.9867-9.2379-20.7222-21.7209-34.0796-26.0893l-2.872-6.8672-6.8672,2.6232c.75,1.7488,1.3719,3.6183,1.9976,5.1183-7.1159,3.1208-14.2319,10.7342-17.1001,17.8501-2.872,8.2391.2488,16.6026,6.8672,22.3428,11.4842,9.4867,21.8453,23.3416,35.5759,27.4612,1.7488.1244,1.9976,1.4963,2.122,1.9976l1.8732,4.8696v.0038ZM170.1794,207.0481c-.75-1.8732,0-3.3695.75-4.8696,1.7488-2.6232,5.8684-2.6232,7.9904-.75,3.1208,7.7378,6.6146,15.355,9.2379,23.3416-6.1171-5.744-13.855-10.6098-17.9745-17.7258l-.0038.0038ZM201.0139,235.0106c-2.872-7.3647-5.9928-14.7294-8.7366-22.3428,5.744,5.2427,14.605,9.9879,15.8526,17.9745.2488,2.872-2.2463,7.2403-7.1159,4.3683Z" style="fill: #001e96;"/>
    <path d="M158.0695,302.7929l14.7294,5.2427c-1.7488,4.8696-3.8708,10.2367-5.4915,15.1063-5.1183-1.4963-10.2367-3.1208-15.1063-4.994l5.8684-15.355h0Z" style="fill: #001e96;"/>
    <path d="M119.9947,318.521c-.4975,4.8696-1.7488,10.2367-2.7476,15.1063-3.9952-.2487-8.9891-2.9964-12.483.1244-1.7488,1.4963-2.2463,4.1196-1.9976,6.3659.4975,1.4963,1.7488,2.7476,3.3695,3.3695l37.4491,7.3647c1.7488,0,3.6183.4975,4.8696-1.1232,1.7488-2.122,2.2463-5.1184.9988-7.7378-3.1208-3.8708-8.4879-3.6183-13.3575-4.7452.8744-5.3671,1.7488-9.9879,2.7476-15.1063,8.9891.9988,19.2221,2.872,23.7185,12.3587,2.6232,8.7366.6257,18.4758-3.8708,25.5917-4.8696,6.9916-13.7306,8.3635-21.4722,6.6146l-35.2028-7.3647c-4.8696-1.2475-9.7354-5.6159-11.6086-10.3611-2.3707-10.4855-.3731-21.7209,7.4891-28.9612,5.8684-4.4927,15.355-3.4939,22.0941-1.4963" style="fill: #001e96;"/>
    <path d="M140.4681,374.8191l16.2295,1.6245-1.4963,16.727c-5.4915-.6256-10.8586-1.1232-15.9769-1.6245l1.2475-16.727h-.0038Z" style="fill: #001e96;"/>
    <path d="M98.025,404.0291c4.1196.4975,8.7366.3731,13.3575.2487.1244-6.739,0-14.2319.1244-20.9709h13.1087l.3731,20.4734v.3731l30.4576.3731v16.6026h-1.4963l-69.1542-.1244c-.2488-13.6062-.3731-27.088-.4975-40.0686l13.4818.3731.2488,22.7197h-.0038Z" style="fill: #001e96;"/>
    <path d="M538.7984,527.7363c24.8417,30.0844,57.9225,64.2884,89.8764,90.502,29.21-30.7063,50.6822-65.0347,65.2872-102.235-22.0941-17.7258-44.0638-34.8259-66.9079-50.1809-7.4891-5.1183-15.1063-9.7354-21.8453-15.1063,33.3296,11.733,64.7859,27.7137,96.3704,43.3175,11.4842-35.8247,16.1013-75.5239,13.3574-116.3425-35.3271-19.7234-72.0262-36.3259-110.4741-48.6846l.2488-.2487c36.9478,5.1184,72.7763,13.1087,107.3534,23.5941-7.1159-46.687-23.8429-89.1301-49.6834-127.8268-13.855-3.8708-28.46-5.8684-43.065-7.9904-35.5759-3.6183-75.0226-4.1196-109.351,3.3695-17.7258,4.3683-33.8271,12.3587-48.6846,23.8429-9.2379,8.4879-14.8538,20.2209-17.7258,29.96-7.4891,2.2464-26.5905,11.2355-37.5735,17.2283-7.3647,3.9952-20.5978,11.1111-24.216,18.6002-1.3719,2.872-2.872,8.6122-4.1196,8.9891-14.8538,4.1196-28.9612,9.7354-43.065,15.355-32.3308,13.6062-64.7859,26.7149-93.7472,48.1833-3.8708,2.872-5.6159,7.2403-6.2415,11.3599-2.6232,16.6026-1.1232,23.2172,3.9952,24.9661,4.4927,1.6245,9.7354,1.3719,17.6014-3.2451,3.1208-1.7488,6.6146-4.994,10.1123-10.1123,1.3719,5.4915,1.4963,12.2343-.4975,16.3538-4.8696,9.8598-18.2233,11.3599-24.8417,19.2221-2.3707,2.7476-2.122,7.3647-1.9976,11.2355,0,14.1075,1.7488,28.7125,9.988,39.6954,4.4927,5.9928,11.733,8.6122,18.4758,9.8598,7.3647,1.3719,14.8538,1.3719,22.5954,1.1232,11.2355-.4975,20.7221-5.1183,32.082-5.8684,6.6146-.75,12.2343,4.3683,14.605,9.9879,3.3695,7.7378,2.7476,20.5978-2.6233,25.8405-1.7488,1.7488-4.3683,2.2463-6.8672,1.7488-14.8538-2.872-26.0892-8.6122-38.9454-16.3538-6.3659-3.6183-13.3575-9.611-20.7221-6.6147-2.4951.9988-3.8708,3.4939-4.6171,5.6159-2.6233,7.866-1.2475,21.2197,2.9964,37.076,2.6233,9.7354,11.1111,25.3392,18.2233,33.0808,3.6183,3.3695,9.1135,4.994,13.855,3.1208,12.483-4.994,31.4564-19.4746,44.4407-22.7197,4.8696-1.2476,6.2415,1.2476,5.8684,3.7464-2.7476,16.1013-6.2415,57.67-6.4903,76.1458-.2487,25.4636,1.2475,39.3223,4.8696,63.414,42.3187,8.2391,92.2509,5.8684,132.6926-5.1183-6.3659-20.2209-11.733-40.943-16.6026-62.2908-2.2463-13.1087-5.3671-26.0892-6.1171-39.4467,13.1087,32.5795,26.5906,65.0347,46.9358,94.4972M430.3332,345.4885c-.1244.3731-1.4963.6256-1.4963.6256-13.855,1.2475-27.3368,2.872-39.6955,7.4891-3.2451,1.2475-5.6159,3.3695-9.4867,3.9952.8744-8.9891,6.4903-10.6098,8.7366-11.2355,8.9891-2.3707.8744-15.7282,9.611-15.7282,11.3599,0,22.9685,4.8696,31.4564,13.1087.4975.6256,1.1232,1.1232.8744,1.7488v-.0037ZM503.4826,698.6319c38.6967-13.6062,79.3909-36.8234,107.6021-63.2896-17.8501-20.8465-61.7895-81.1398-72.275-107.6021" style="fill: #001e96;"/>
    <path d="M171.8001,544.712c28.46,46.3101,77.6459,88.5044,127.2011,106.8559,4.994,1.9976,9.9879,4.1196,15.1063,5.3671.3731-5.1183.8744-10.7342,1.6245-16.8513.3731-2.7476.75-5.9928,1.3719-9.4867-16.8514-6.1171-32.9564-14.1075-48.3077-23.8429-29.5831-18.3514-56.9237-47.4371-75.7726-75.6483l-21.2197,13.6062h-.0038Z" style="fill: #dc1e1e;"/>
    <path d="M133.9741,568.1818c39.6955,66.6591,109.7241,115.8412,180.0053,135.5646-.3731-10.1123-.6256-18.6002-.6256-26.7149-61.9139-18.6002-122.584-63.9115-158.16-122.0828l-21.2197,13.2331h0Z" style="fill: #dc1e1e;"/>
    <path d="M158.9402,443.9771l-24.9661,4.3683v.2488c4.994,27.5855,13.7306,53.5504,27.088,77.269l22.2185-12.6074c-11.6086-21.4722-19.4746-44.8138-24.3404-69.2824v.0038Z" style="fill: #dc1e1e;"/>
    <path d="M89.6615,455.9588c5.8684,32.082,16.4782,62.2908,31.4564,90.3777l22.0941-11.733c-12.8562-25.9649-23.4698-53.3017-28.46-83.013l-25.0905,4.3683h0Z" style="fill: #dc1e1e;"/>
  </g>
</svg>