<svg xmlns="http://www.w3.org/2000/svg" id="Layer_1" version="1.1" viewBox="0 0 2000 2000"><metadata xmlns:fl="https://football-logos.cc/denmark/fredericia">dl1_6496d017b7e27733e6209afa5d3c73099fa6afd80e20c9b96b031f43564eeb52</metadata><!-- Source: https://football-logos.cc --><defs id="defs1" data-source="https://football-logos.cc"><style id="style1">.st1{fill:#b2010c}</style></defs><path id="path21" d="M1000 2000C448.6 2000 0 1551.4 0 1000S448.6 0 1000 0s1000 448.6 1000 1000-448.6 1000-1000 1000" class="st1" style="fill:#fff;fill-opacity:1"></path><path id="path1" d="M1000 2000C448.6 2000 0 1551.4 0 1000S448.6 0 1000 0s1000 448.6 1000 1000-448.6 1000-1000 1000m0-1962.2C469.5 37.8 37.8 469.5 37.8 1000s431.6 962.2 962.2 962.2 962.2-431.6 962.2-962.2S1530.5 37.8 1000 37.8" class="st1" style="fill:#b2010c;fill-opacity:1"></path><path id="path2" d="M1051.2 1333.1s-117.8 50.3-59.8 215.4c0 0-206.9-14.1-140.6-290.1 0 0-121.9-67.4-236.3-38.9 0 0-12.7-21.6 50.8-83.7-127-26.2-133.8 91.3-163.7 127.7-67.5 93.3-249.2 69.3-327.6 53.7 122.3 194.8 307.8 108.4 307.8 108.4-35.9 80.1-129.5 88.6-170.8 97.8 183.5 62 269-40.5 291.5-67.5.4 45.5-20.2 79.4-41.9 104.8 75.3-2.6 126.6-82.8 134.6-104.8 204.8 215.1 503.7 89.2 503.7 89.2-75.3-42.1-131.9-110.7-147.8-211.8Z" class="st1"></path><path id="path3" d="M1367.2 780.1c33.1-51.3 78-114.8 122.6-160.3-19.6-9.5-42.7-2.9-52.3 15.3-1.4 2.6-2.4 5.4-3 8.2-19.7-9.9-43.2-3.2-52.8 15.1-7.8 14.9-4 33.1 8.2 45 .6.8 1 1.7 1.4 2.5-19.8 14.2-42.9 19-67.2 6.4-33.5-17.5-35-88.4-34.7-112.7l19.5 2.4c17.3 2.9 33.8-3.9 41.6-18.9 9.6-18.3 1.7-41.4-17.6-52 1.9-2.2 3.6-4.5 5-7.2 9.7-18.5 1.6-42-18.3-52.3-19.8-10.4-43.7-3.8-53.4 14.8-1.4 2.6-2.4 5.4-3 8.2-19.7-9.9-43.1-3.2-52.8 15.1-7.8 14.9-3.9 32.5 8.2 45l13 14.5c-19.8 14.2-80.3 52.7-112.4 35.7-24.2-12.8-33.4-34.5-33-58.8 1-.1 2-.3 3-.3 16.7 3.2 33.8-3.9 41.6-18.9 9.6-18.3 1.7-41.4-17.7-52 1.9-2.1 3.6-4.5 5-7.2 9.6-18.3 1.7-41.3-17.5-51.9-12 62.6-37.9 134.7-61.2 191.2 50.4 17.6 110.2 40.3 171.4 72.3 61 32 113.3 69.3 156.4 100.7Z" class="st1"></path><path id="path4" d="M1440.5 1099.3s-51.2-23.2-31.2-81.3c36.1-96.2-59.5-123.2-59.5-123.2s104.6 18.6 98-101.9c-39.8 58.3-82.1 26.5-82.1 26.5s-137.8-112.5-289.6-169c-57.1-21.2-106.3-27-162.6-3.9-45.4 18.6-59.6 32.3-52.7 62.1-72.8 32.9-215 97.7-143.3 155.9 8.3-11.3 11.3-22.1 30.3-32-44.7 57.4 54.4 124.5 92.5 123.4-8-5.1-42.1-34.7-34.3-50.2 38.1 9.3 76.8-1.9 72.6-33.6 29.9 14.8 128.8 34.7 101.2 97.1 0 0-26.1 66.7-66.3 66.4-26.3-.2-52.1-44.8-52.1-44.8s-14.9 22.4 2.2 74.3c0 0-13.8-10-31.3-10.8s-5.6 40.7-5.6 40.7c-9.8-4.7-22.7-13.6-55.6-19.8-83.8-16-140.4 26.5-140.4 26.5s90-2.7 113.9 43.7c-54.3 7.9-74.2 37-74.2 37s127.1-9.2 237 66.2c-90.8 173.1 40.3 257.5 40.3 257.5s-45.5-183.4 122.6-209.9c63.6 241 253.6 187 325.2 130.3-196.6-78.8-138.5-209.8-138.5-209.8s88.8 72.2 180.6-3c-127-43.9-106.6-159.1-106.6-159.1s33.2 78.9 109.3 44.8ZM973.4 752.4c-16.2 3.6-33.2-6.3-36.9-22.5-1.2-5.5-.9-10.7.7-15.9 7.4-25.2 37.2-36 60.3-23.7 34.9 18.6 76.6 54.5 76.6 54.5s-57.4-1.9-100.7 7.6" style="fill-rule:evenodd;fill:#b2010c"></path><path id="path5" d="M471.4 1213.7c-14.7 36.8-28.2 78.9-165.1 83.6 57.1-39.4 47-88.3 47-88.3s-64.2 53.7-132.6 14.5c0 0 139.4-55.3 83.7-174.8-27.2 20.4-73.3 10.8-73.3 10.8s69.3-61.1 53-123.6c-32.6 20.4-73.4-2.7-73.4-2.7s99.2-58.9 64.1-138.3c11.9-.7 24.5-3.3 31.7-10.1 3.6-3.3 17.1-18.1 16.3-49.1 17.1 7.6 36.9 11.6 53.3 1.2 18.6-11.9 23-36.5 23-57.3 17.2 5 36.3 6.2 42.9-7.3 4.6-9.3 7.4-20.4 9-32.2 8.8 39.3 8.5 77.4-6.6 102.9 0 130.4 106.8 326.1 157 357.3 0 0-84.7-.4-130 113.3Z" class="st1"></path><path id="path6" d="M403.8 541.8c-36.2-48.9-90-61.4-105.9-6.3-10.9-6.8-85.8 1.2-78.4 80.7-32.6 12.2-37.3 37.7-29.8 63.8-16.8 11.2-41.4 35.5-16.1 71.7 28.5 37.5 56.5 19.1 71.3 3.9 21.7 8.7 33.6 7.2 37.5 3.6 8.2-7.6 4.7-36.4-.7-53.4l-12.2-46.4 39.4 26.7c29.8 22 44.5 23.4 48.2 21.1 7.4-4.7 8.2-32.5 4-53.3l-12.5-50.6 39.3 32.2c19.5 12.4 28.7 12.1 30.9 10.2 10.6-9.2 9.2-66.4-15-104Z" class="st1"></path><path id="path7" d="m489.9 499.6-22-39.5 9.5-11.2c10.7-11.5 13.6-27.2 6.3-40.5-9-16.2-30.2-21.6-47.6-12.4-.7-2.5-1.6-4.9-2.9-7.3-9.1-16.4-30.7-21.8-48.2-12.1s-24.3 30.9-15.2 47.3c1.3 2.3 2.9 4.4 4.6 6.3-17.1 9.9-23.7 30.7-14.6 46.9 7.4 13.2 22.5 18.9 37.7 16l14.9-2.2 22.8 41 44 79.3 22.1 39.7-9.7 11.5c-10.7 11.5-13.6 27.2-6.3 40.5 9 16.2 30.2 21.6 47.6 12.4.7 2.5 1.6 4.9 2.9 7.3 9.1 16.4 30.7 21.8 48.2 12.1s24.3-30.9 15.2-47.3c-1.3-2.3-2.9-4.4-4.6-6.3 17-9.9 23.7-30.7 14.6-46.9-7.4-13.2-22.4-18.9-37.7-16l-14.5 2.2-22.9-41.3 1.5-.9c560.7-291.9 836.5-213 1026.5 78.5 0 0 122.6-25.8 265.9 31.8C1700.2 399 1309-4.1 489.9 499.6" class="st1"></path><path id="polygon7" d="m712.9 1642.2 19-35.5-85.6-46.1L540 1758.2h.1l42.6 22.9 43.9-81.8 36.6 19.6 18.7-34.7-36.6-19.6 24.5-45.6z" class="st1"></path><path id="path8" d="M739.1 1848.7c-9-2.8-16.9-6.8-23.5-12.2-6.6-5.3-11.8-11.8-15.5-19.4s-5.8-16.2-6.1-26c-.4-9.8 1.2-20.3 4.7-31.7l24-78.6c4.6-15.3 11.2-27.4 19.7-36.3s18.3-14.5 29.5-16.9c11.1-2.4 23-1.7 35.5 2.2q21.45 6.45 32.7 19.5c7.5 8.6 11.7 19.3 12.8 32 1.1 12.8-1.1 27.7-6.3 44.7l-44.4-13.6c2.7-9 4.6-16.5 5.6-22.4s.6-10.6-1.2-14.2q-2.55-5.25-10.8-7.8c-3.3-1-6.6-1.1-9.7-.3q-4.8 1.35-8.1 5.4c-2.2 2.8-4 6.2-5.2 10.3l-31.1 102.2c-1.3 4.3-1.7 8.2-1.3 11.5.5 3.4 1.8 6.2 3.8 8.6 2.1 2.4 4.8 4 8.1 5 5.5 1.7 9.9 1.6 13.3-.3s6.3-5.6 8.9-11.1 5.2-12.9 8-22.1l44.4 13.6c-5.1 16.9-11.7 30.4-19.7 40.5s-17.6 16.6-28.9 19.7c-11.2 3-24.3 2.3-39.2-2.3" class="st1"></path><path id="polygon8" d="m1030.7 1701.1.5-40.3-97.2-1.1-2.5 224.4 48.3.5 1-92.9 41.6.4.4-39.4-41.6-.4.6-51.7z" class="st1"></path><g id="g9" data-source="https://football-logos.cc"><path id="polygon9" d="M1090.3 1882.3h-.1z" class="st1"></path><path id="path9" d="m1167.3 1868.9 51-8.8-47.1-90c4.9-4.2 8.9-9.1 11.9-14.6 3.4-6.3 5.6-13.5 6.7-21.5s.9-16.5-.7-25.6c-2.5-14.1-6.9-26-13.4-35.5s-14.6-16.2-24.6-20.2-21.4-4.9-34.4-2.6l-64.9 11.2 38.4 220.9 47.6-8.3-14.3-82.4 7-1.2zm-50.5-115.8-10.5-60.4 8.2-1.4c5.9-1 10.8 0 14.9 3 4.1 3.1 6.8 8.3 8.1 15.8l2.5 14.3c1.3 7.3.7 13.4-1.7 18.3s-6.8 7.9-13.3 9z" class="st1"></path></g><path id="polygon10" d="m1356.9 1766.5-50.7 19.9-19.7-50.1 32.6-12.8-14.5-37-32.6 12.8-18.2-46.4 48.7-19.1-14.8-37.6-93.6 36.8 81.9 208.8 95.7-37.5z" class="st1"></path><g id="g11"><path id="polygon11" d="M1427.4 1776.6h-.1z" class="st1"></path><path id="path11" d="M1507.4 1679.6c-1.7-14.2-8-29.8-18.9-46.6l-27.3-42.1c-7.3-11.1-15.1-20.4-23.5-27.6-8.4-7.3-17.3-12.4-26.7-15.4q-14.1-4.5-29.4-1.8c-10.2 1.8-20.7 6.3-31.5 13.3l-44.9 29.2 122.2 188 44.9-29.2c13.1-8.5 22.6-18.4 28.7-29.6s8.2-24 6.6-38.2Zm-43.4 20.3c-1.2 4-4.1 7.5-8.8 10.5l-9.3 6-78.4-120.5 9.3-6.1c4.1-2.7 8.1-4 11.9-4s7.8 1.6 11.9 4.7c4.2 3.2 8.4 8 12.6 14.6l42.8 65.8c3.6 5.5 6.1 10.7 7.6 15.6s1.6 9.3.4 13.3Z" class="st1"></path></g><path id="polygon12" d="m1657.7 1592.7-28.5-29-38.8 38.2-37.8-38.4 25-24.6-27.8-28.3-25.1 24.6-34.9-35.5 37.3-36.7-28.3-28.7-71.7 70.6 157.4 159.8v.1z" class="st1"></path><g id="g13"><path id="path12" d="m1741.5 1480.8 28.9-42.8-97.5-28.3c.4-6.5-.4-12.7-2.3-18.8-2.2-6.8-5.8-13.4-10.8-19.7s-11.3-12.1-19-17.3q-17.85-12.15-34.8-15c-11.3-2-21.8-.7-31.6 3.7s-18.3 12.1-25.7 23l-36.9 54.6 185.9 125.4 27-40-69.3-46.8 4-5.9zm-169.3-78.2 4.6-6.9c3.3-4.9 7.5-7.8 12.5-8.6s10.6.9 17 5.1l12 8.1c6.1 4.1 10.1 8.8 12 13.9s1 10.4-2.7 15.8l-4.7 6.9-50.8-34.3Z" class="st1"></path><path id="polygon13" d="M1697.8 1545.6h-.1z" class="st1"></path></g><g id="g15"><path id="polygon14" d="M1796.5 1386v-.1z" class="st1"></path><path id="polygon15" d="m1798.7 1275-10.4 25.3-132.8-54.9 10.4-25.3-37.2-15.4-39.5 95.6 37.2 15.3 10.4-25 132.8 54.9-10.4 25.1 37.3 15.3 39.4-95.5z" class="st1"></path></g><path id="path15" d="M1868.1 1169.8c-1.9 9.2-5.1 17.5-9.8 24.6-4.6 7.1-10.6 12.9-17.8 17.3s-15.6 7.3-25.3 8.6-20.3.8-32-1.6l-80.6-16.1c-15.7-3.1-28.4-8.5-38-16.1-9.7-7.6-16.2-16.8-19.7-27.6s-3.9-22.7-1.4-35.6c2.9-14.7 8.3-26.2 16.1-34.5s18.1-13.5 30.6-15.8c12.6-2.3 27.6-1.7 45.1 1.8l-9.1 45.6c-9.2-1.9-16.8-3-22.9-3.3-6-.4-10.6.5-14 2.5-3.3 2.1-5.6 5.9-6.7 11.5-.7 3.4-.5 6.7.7 9.7 1.2 3.1 3.2 5.6 6.2 7.5q4.5 3 10.8 4.2l104.7 21c4.4.9 8.3 1 11.6.2s6-2.4 8.2-4.6c2.1-2.3 3.5-5.1 4.2-8.6 1.1-5.7.6-10-1.6-13.2s-6.2-5.8-12-7.7c-5.7-2-13.4-3.9-22.9-5.9l9.1-45.6c17.3 3.5 31.4 8.7 42.2 15.7s18.3 15.9 22.4 26.8 4.6 24 1.6 39.2Z" class="st1"></path><path id="polygon16" d="m1843 940-.1 27.4-143.8-.4.1-27.4-40.3-.2-.3 103.4 40.3.2.1-27.1 143.7.5-.1 27 40.3.2.4-103.4z" class="st1"></path><path id="path16" d="m1879.6 905.1-7.2-48.4-38.3 1.6-4.5-30.3 37.1-9.6-7.1-48.1-217 66.1 10.2 68.8h226.8Zm-192.7-39.2-.2-1.8 50.7-12.2L1795 837l3.4 22.8-59.4 2.4-52 3.7Z" class="st1"></path><path id="path17" d="m597.9 373.1-47.6-75.8-18.2 11.4-13.7-21.7 19-11.9-9.3-23.1 21.3-13.4 74.3 118.3z" class="st1"></path><path id="path18" d="M613.9 202.7c5.9-2.8 11.5-4.5 16.8-4.9 5.3-.5 10.4.4 15.1 2.5q7.2 3.15 13.5 10.2c4.2 4.7 8.1 10.7 11.7 18.1l18.4 37.8c3.9 8.1 6.5 15.5 7.6 22.3 1.2 6.8 1 13-.5 18.6-1.5 5.5-4.3 10.5-8.5 14.9q-6.3 6.6-16.8 11.7c-6 2.9-11.7 4.7-17.2 5.4s-10.5.3-15.1-1.2c-4.5-1.5-8.6-3.9-12.2-7.4-3.6-3.4-6.6-7.8-9.1-13.2l26-12.7c1 1.8 2.1 3.3 3.3 4.7 1.2 1.3 2.6 2.2 4.1 2.7s3.2.6 5 .5c1.8-.2 3.8-.8 5.9-1.8 3-1.5 5.2-3.4 6.6-5.9s2-5.3 1.6-8.6c-.4-3.2-1.5-6.8-3.3-10.5-.9-1.7-1.7-3.5-2.6-5.5-.9-1.9-1.7-3.9-2.3-5.9-.7-2-1.4-3.9-2.2-5.9l-1.4.7q-.15 8.85-4.2 15c-2.7 4.1-6.7 7.5-12 10.1-6 2.9-11.7 4-17.2 3.2s-10.8-3.6-16-8.7c-5.2-5-10.2-12.5-15-22.4-4-8.2-6.3-15.5-7-21.9-.7-6.5-.1-12.3 1.8-17.5s5-9.7 9.2-13.7c4.2-3.9 9.6-7.5 16-10.6Zm9.7 24.7c-3.2 1.6-5.3 3.4-6.4 5.4-1.1 2.1-1.4 4.4-1 7.1.5 2.6 1.4 5.5 3 8.8l5.2 10.7q1.95 3.9 4.2 6.6c1.5 1.8 3 3 4.5 3.9s3.1 1.2 4.8 1.2 3.6-.6 5.8-1.7 3.8-2.4 5-3.9c1.2-1.6 2-3.3 2.4-5.3s.5-4.2 0-6.5L643 237c-1.5-3-3-5.3-4.5-7.1-1.6-1.7-3.1-2.9-4.6-3.6s-3.2-.9-4.9-.6q-2.7.45-5.4 1.8Z" class="st1"></path><path id="path19" d="M720.4 159.7c6.2-2.1 12-3 17.3-2.7s10.2 1.7 14.7 4.4 8.5 6.7 12 11.9c3.6 5.2 6.6 11.7 9.2 19.5l13.3 39.9c2.8 8.5 4.4 16.2 4.6 23.1.3 6.9-.7 13-2.9 18.3s-5.7 9.9-10.4 13.7-10.8 6.9-18.2 9.4c-6.3 2.1-12.2 3.1-17.8 3.1s-10.4-1.1-14.8-3.2c-4.3-2.1-8-5-11.1-8.9s-5.6-8.6-7.3-14.2l27.4-9.1c.8 1.9 1.7 3.6 2.7 5 1 1.5 2.3 2.6 3.7 3.2 1.5.7 3.1 1.1 4.9 1.1s3.8-.3 6-1c3.1-1.1 5.6-2.7 7.3-4.9s2.6-5 2.7-8.3c0-3.3-.6-6.9-1.9-10.9-.6-1.8-1.2-3.7-1.8-5.8-.6-2-1.1-4.1-1.6-6.2s-.9-4.1-1.4-6.1l-1.5.5c-.9 5.8-2.9 10.6-6.1 14.4q-4.8 5.7-13.2 8.4c-6.3 2.1-12.1 2.4-17.5 1-5.3-1.5-10.2-5-14.8-10.7-4.5-5.7-8.5-13.8-12-24.2-2.9-8.6-4.2-16.1-4.1-22.7.1-6.5 1.5-12.2 4-17.1s6.2-9 10.9-12.4c4.7-3.3 10.5-6.2 17.3-8.4h.1Zm6.3 25.7c-3.4 1.1-5.8 2.7-7.1 4.6s-1.9 4.2-1.9 6.9c.1 2.7.7 5.7 1.8 9.1l3.7 11.3c1 2.8 2 5.1 3.3 7.1 1.3 1.9 2.6 3.4 4 4.4s3 1.6 4.6 1.8q2.55.3 6-.9c2.3-.8 4.1-1.9 5.5-3.2 1.4-1.4 2.4-3 3.1-5 .7-1.9 1-4.1.9-6.5l-5.9-17.7c-1.1-3.1-2.2-5.7-3.5-7.6s-2.7-3.3-4.1-4.2q-2.1-1.35-4.8-1.2c-1.8 0-3.7.4-5.6 1.1h.1Z" class="st1"></path><path id="path20" d="M832.1 274.6 813 187.1l-21 4.6-5.5-25.1 21.9-4.8-.9-24.9 24.5-5.3 29.8 136.6-29.8 6.5Z" class="st1" data-source="https://football-logos.cc"></path><!-- source: https://football-logos.cc --></svg>