<?xml version="1.0" encoding="UTF-8"?>
<svg id="_图层_1" data-name="图层_1" xmlns="http://www.w3.org/2000/svg" version="1.1" viewBox="0 0 800 800">
  <!-- Generator: Adobe Illustrator 29.1.0, SVG Export Plug-In . SVG Version: 2.1.0 Build 142)  -->
  <g id="Calque_2-2">
    <g>
      <path d="M663.7177,399.9772c0,193.0015-118.3041,350.0228-263.6969,350.0228s-263.7384-157.0214-263.7384-350.0228S254.5864,50,400.0207,50s263.697,156.9799,263.697,349.9813v-.0042Z" style="fill: #fff;"/>
      <g>
        <path d="M530.7951,428.1235h-40.6996v.3359c-6.1916-13.8596-15.7548-27.5948-29.49-38.1698l-88.3082-59.2785-25.9525-17.4012c-5.7727-4.0849-11.081-8.8457-15.7589-14.1126-14.9544-16.7252-24.0573-38.8043-24.0573-62.986,0-52.1994,42.3003-94.5412,94.4998-94.5412s94.4998,42.3418,94.7113,94.5412h-41.8359c-.2115-29.1126-23.7628-52.6639-52.8754-52.6639s-52.6639,23.5513-52.6639,52.6639c0,17.82,8.9743,33.6205,22.5394,43.1422l9.6918,7.0376,67.9998,49.4624,33.6619,24.4761c22.5395,16.7252,39.7291,40.2351,48.5334,67.4939h.0042Z" style="fill: #fbb818; fill-rule: evenodd;"/>
        <path d="M537.4512,470.2538c0,75.3278-61.0908,136.3771-136.4186,136.3771s-136.3771-61.0493-136.3771-136.3771c0-14.66,1.6422-28.9011,5.9386-42.1303h40.6125c-5.3083,12.1759-9.0158,27.9306-9.0158,42.1303,0,54.5592,44.237,98.8376,98.8376,98.8376s98.8376-44.2785,98.8376-98.8376h37.5851Z" style="fill: #fbb818; fill-rule: evenodd;"/>
      </g>
      <g>
        <path d="M448.5998,336.1493l-67.9999-49.4624c6.6976-.7589,13.5237-1.1363,20.4327-1.1363,50.9346,0,97.0253,20.6028,130.6458,53.9288l-30.0374,30.5019c-14.8715-15.1244-32.8615-26.7114-53.0413-33.832h0Z" style="fill: #a11c3f; fill-rule: evenodd;"/>
        <path d="M585.7358,470.2538c0,101.9977-82.7013,184.6575-184.699,184.6575s-184.7032-82.6599-184.7032-184.6575c0-77.0571,47.1856-143.0746,114.2565-170.7565,4.6779,5.2668,9.9862,10.0277,15.7589,14.1126l25.9525,17.4012c-64.7112,13.2707-113.3732,70.6125-113.3732,139.2427,0,78.4879,63.6164,142.1084,142.1084,142.1084s142.2328-63.6164,142.2328-142.1084h-53.1698v-42.1303h40.6996l38.004-.0415h12.1344c3.1601,13.5237,4.8023,27.6362,4.8023,42.1717h-.0042Z" style="fill: #a11c3f; fill-rule: evenodd;"/>
      </g>
      <g>
        <path d="M353.507,470.2952h-8.5762v-29.3738h-10.0152v-5.6981c2.6417-.1161,4.4955-.2944,5.553-.5267,1.6837-.3732,3.0564-1.1155,4.1139-2.2311.7257-.7631,1.2732-1.7833,1.6464-3.0564.2157-.7631.3235-1.3312.3235-1.7044h6.963v42.5948l-.0083-.0042Z"/>
        <path d="M372.0279,471.5311c-3.1933,0-6.063-.9455-8.6052-2.8366-2.5463-1.8911-4.0061-4.6447-4.3752-8.2693h8.3439c.1949,1.2524.7257,2.2726,1.5883,3.0523.8626.7838,2.0072,1.1736,3.4379,1.1736,2.762,0,4.6987-1.5303,5.8142-4.5826.6055-1.6837.987-4.1429,1.1446-7.3735-.7631.958-1.5759,1.692-2.4385,2.2021-1.5676.9414-3.496,1.41-5.7852,1.41-3.3882,0-6.3948-1.1695-9.0158-3.5084-2.6251-2.339-3.9356-5.7147-3.9356-10.1189s1.3146-8.261,3.9522-11.0893c2.6334-2.8283,6.0547-4.2466,10.2682-4.2466,6.4819,0,10.9276,2.8698,13.337,8.6052,1.3727,3.2513,2.057,7.5311,2.057,12.8352s-.6552,9.4471-1.9699,12.8974c-2.509,6.5607-7.1081,9.841-13.8057,9.841l-.0125.0083ZM369.0876,435.5468c-1.6049,1.2524-2.4095,3.3799-2.4095,6.3741,0,2.5256.5142,4.4208,1.5427,5.6856,1.0285,1.2649,2.6085,1.8952,4.7443,1.8952,1.1529,0,2.2436-.3318,3.2596-.9995,1.8994-1.2151,2.849-3.3177,2.849-6.316,0-2.4095-.564-4.3171-1.6879-5.7313-1.128-1.41-2.6666-2.115-4.624-2.115-1.4308,0-2.6541.4023-3.6743,1.2027v.0042Z"/>
        <path d="M407.2035,471.3528c-5.4244,0-9.2273-1.8993-11.4128-5.6981s-3.2762-9.2148-3.2762-16.2442,1.0907-12.4537,3.2762-16.2732c2.1814-3.8195,5.9884-5.7272,11.4128-5.7272s9.2356,1.9077,11.4252,5.7272c2.1731,3.8195,3.2596,9.2439,3.2596,16.2732s-1.0907,12.4454-3.2762,16.2442c-2.1814,3.7987-5.9884,5.6981-11.4128,5.6981h.0042ZM412.1095,460.6326c.7631-2.5836,1.1446-6.3243,1.1446-11.2221s-.3857-8.9329-1.1612-11.3962c-.7755-2.4675-2.4053-3.6992-4.8894-3.6992s-4.1305,1.2317-4.935,3.6992c-.8045,2.4675-1.2027,6.2662-1.2027,11.3962s.4023,8.6425,1.2027,11.2345c.8045,2.5961,2.4468,3.8941,4.935,3.8941s4.1222-1.3022,4.906-3.9066h0Z"/>
        <path d="M439.924,449.1492c-1.0202,0-1.8994.1286-2.6417.3816-1.3105.4686-2.3016,1.3437-2.9693,2.6127l-7.5187-.3525,2.9942-23.5306h23.4725v7.1081h-17.4178l-1.5303,9.3102c1.2939-.8419,2.3016-1.3976,3.0274-1.6754,1.2151-.4479,2.6915-.676,4.4332-.676,3.525,0,6.598,1.1861,9.2231,3.554,2.6251,2.3721,3.9356,5.8142,3.9356,10.3387,0,3.9356-1.2649,7.4523-3.7904,10.5461-2.5256,3.0937-6.3036,4.6406-11.3382,4.6406-4.0517,0-7.3818-1.0865-9.9862-3.2596s-4.0517-5.2585-4.3461-9.2522h8.3439c.3318,1.8206.9704,3.2264,1.9077,4.2176.9414.987,2.3099,1.4846,4.1139,1.4846,2.0735,0,3.6577-.7299,4.7443-2.1897s1.6298-3.2928,1.6298-5.5073-.5101-4.0103-1.5303-5.5073-2.6044-2.2477-4.7609-2.2477l.0042.0042Z"/>
      </g>
    </g>
  </g>
</svg>