<?xml version="1.0" encoding="UTF-8"?>
<svg id="_图层_1" data-name="图层_1" xmlns="http://www.w3.org/2000/svg" version="1.1" viewBox="0 0 800 800">
  <!-- Generator: Adobe Illustrator 29.1.0, SVG Export Plug-In . SVG Version: 2.1.0 Build 142)  -->
  <g id="OSFP">
    <path d="M750.0044,399.9867c0,193.3001-156.7131,350.0133-350.0044,350.0133S49.9956,593.2869,49.9956,399.9867,206.6733,50,400,50s350.0044,156.6689,350.0044,349.9779" style="fill: #fff; fill-rule: evenodd;"/>
    <path d="M630.0287,169.9581c-61.4736-61.4736-143.1555-95.2748-230.0287-95.2748s-168.6169,33.8012-230.0287,95.2748c-61.4736,61.456-95.3102,143.1201-95.3102,230.0287s33.8366,168.6081,95.3102,230.0464c61.4117,61.4648,143.129,95.2837,230.0287,95.2837s168.555-33.8189,230.0287-95.2837c61.4294-61.4383,95.2484-143.1555,95.2484-230.0464s-33.81-168.5639-95.2484-230.0287ZM627.3578,627.3711c-60.7396,60.713-141.5017,94.1517-227.3578,94.1517s-166.6448-33.4386-227.3578-94.1517c-60.7573-60.7219-94.1782-141.4928-94.1782-227.3844s33.4209-166.6005,94.1782-227.3578c60.7131-60.7396,141.4575-94.1605,227.3578-94.1605s166.6182,33.4121,227.3578,94.1605c60.713,60.7573,94.1606,141.4928,94.1606,227.3578s-33.4474,166.6713-94.1606,227.3843ZM400,85.0128c-174.0029,0-314.9828,141.0153-314.9828,314.9739s140.9711,315.0181,314.9828,315.0181,314.9651-141.0241,314.9651-315.0181S573.941,85.0128,400,85.0128ZM400,647.5793c-136.7702,0-247.5926-110.8754-247.5926-247.6014s110.8224-247.5572,247.5926-247.5572,247.5307,110.8135,247.5307,247.5572-110.7781,247.6014-247.5307,247.6014ZM400,158.859c-132.9497,0-241.1277,108.1869-241.1277,241.1189s108.178,241.1631,241.1277,241.1631,241.0746-108.2134,241.0746-241.1631-108.125-241.1189-241.0746-241.1189ZM400,637.3647c-130.9067,0-237.3691-106.5331-237.3691-237.3779s106.4623-237.3514,237.3691-237.3514,237.3248,106.4889,237.3248,237.3514-106.4712,237.378-237.3248,237.378ZM485.6174,515.2487c.4864.3096.398,1.4504-.2122,1.6627-1.6096-.2123-5.2886-.2211-8.2955-.2211s-6.9955.0088-8.2513.2211c-.6633-.2123-.7075-1.3443-.2565-1.6627l1.8484-.2211c4.0063-.4864,4.1566-1.079,4.1566-5.775v-13.8849c0-4.6696-.1946-5.0852-4.1566-5.7662l-1.1409-.2388c-.4422-.3096-.4245-1.4769.1592-1.5919,1.3531.115,4.6519.168,7.6499.168s5.9873-.053,7.6146-.168c.6456.115.6898,1.2823.2388,1.5919l-1.1585.2388c-3.9621.681-4.1566,1.0966-4.1566,5.7662v13.8849c0,4.6961.1415,5.4478,3.794,5.775l2.1756.2211h-.0089ZM515.8368,501.2135c0,6.9513-2.945,14.6277-10.0201,21.1899-4.7491,4.3423-10.8956,6.8628-15.7774,7.703-.4422-.2299-.7959-1.0613-.3272-1.4769,3.8559-1.3354,7.0486-3.1042,9.7105-5.1736,3.5641-2.662,10.8072-10.2677,10.8072-22.6049,0-4.5015-1.4769-11.6297-8.101-11.6297-4.1831,0-6.8982,3.511-6.8982,8.2159,0,4.2097,2.494,9.8078,7.0486,9.8078,1.3708,0,2.264-.1415,3.2634-.566.4953.168.5395.6987.4245,1.2205-1.7511,1.415-3.8913,2.3436-6.6064,2.3436-5.2267,0-8.9588-4.4927-8.9588-10.0555,0-7.8003,6.2349-13.1773,13.31-13.1773,8.1806,0,12.1338,5.9077,12.1338,14.1944l-.0089.0088ZM549.072,509.9424c-1.2116,2.5824-2.3613,5.0145-3.175,6.969-2.5382-.2123-5.4124-.2211-9.286-.2211h-6.7125c-2.264,0-4.6076.0088-6.0492.2211-.3626-.2123-.6279-.7694-.3891-1.1763,1.9633-1.5389,4.1389-3.3076,6.8275-6.173,3.5729-3.794,7.022-7.6853,7.022-12.0011,0-4.1831-2.2905-6.5621-5.9961-6.5621-2.9185,0-5.1648,1.7953-6.9336,4.6342-.6987.2299-1.3708-.3184-1.3708-.9728,1.5919-3.3695,5.5186-7.6322,10.8514-7.6322,5.439,0,8.8173,3.2634,8.8173,7.871,0,4.0947-2.0429,6.6594-6.12,11.1168l-5.3152,5.7839c-.0442.5572.1327.9463,1.2912.9463h8.101c3.6702,0,5.1914-.0619,6.7921-3.3518.5837-.3361,1.3796-.053,1.645.566v-.0178ZM571.1109,487.762c-.451,1.4592-1.7245,4.0682-3.8736,4.3246l-8.6316,1.2735c-1.9987.2653-2.3613.7782-2.6355,1.866-.4245,1.2293,0,2.0252,1.8572,3.2723,1.1143.7517,2.3348,1.5565,3.2191,2.1933,4.4131,3.0511,7.5527,6.907,7.5527,12.2576,0,9.4452-10.0555,15.6536-15.0522,17.1305-.7694-.283-1.0613-1.3796-.4953-1.866,3.7144-1.1408,10.8426-6.1907,10.8426-13.6814,0-4.2804-2.662-7.3227-5.5539-9.4452-2.9273-2.096-5.3859-3.4314-5.3859-5.837,0-1.1232.6014-3.3961,1.4946-5.4301.9021-2.1137,2.1225-4.1566,3.0069-4.4573.8844-.2476,2.2286-.4245,4.4308-.7871l4.758-.6987c2.5293-.3538,2.9715-.5572,3.6967-1.017.6279.0885.849.4599.7783.8932l-.0088.0088ZM618.9385,391.4524c-7.4819-11.3644-22.313-27.133-55.0088-29.0609,8.1098-2.6089,26.7969-25.7091,28.203-38.3204-7.3935-6.7302-19.7041-7.7472-28.7514-9.6752,2.9008-19.7218-13.1155-32.0855-15.1584-33.8366-.7075-1.9722-1.9191-30.414-38.3735-39.5143-1.0347-.2653-9.7194-20.8184-31.5902-30.8474-33.7039-15.4944-59.5634-3.7675-65.2146-2.264-51.8692-8.0125-64.3479,16.0958-67.8324,19.5891-1.6273,1.5831-20.8007-2.0429-39.0545,18.2537-4.9083-.4776-25.7533-11.7358-32.9434-9.967-2.9362,8.1187.8844,39.3817,2.5117,45.2275-17.4755,3.9002-46.4302-7.4996-52.9039-1.6803-2.1756,12.7351,9.3568,27.7343,9.3568,27.9554-13.3365-1.3708-38.8068.1857-46.8105,6.2791-1.6892,1.6538,2.9273,11.9923,9.6575,18.5986,7.2431,7.1281,19.0408,13.1862,34.438,14.442,0,.2299-27.7697,16.9979-37.0469,29.1847,2.7239,1.7245,22.3573,7.4112,24.356,8.0656,10.816,3.4668,41.1593-6.6771,41.6634-6.6771-1.6715,8.269-7.3404,30.3079-7.4907,34.5176.2388,6.4118,12.744,15.1938,17.2278,18.015.0707,14.2121-1.4062,55.5306-1.4062,55.5306-.0354,6.3322-.9551,15.2733.7606,20.2878,6.1199,1.1674,29.2643-4.8995,30.1487-4.2716,2.2021,3.2103,2.3967,13.8318,3.6614,17.9265,4.0416.9286,6.9601,2.9538,11.3467,3.4226,1.2028,3.6349-1.8837,9.7636.1415,13.0535,1.5742,4.6254,9.0296,5.8547,13.3631,7.6146,0,8.2956.3095,16.5203.3095,24.7893,2.1756,4.4573,18.5632,10.4181,23.0736,13.0182,0-.2565,35.8264-34.6502,35.8442-34.721,6.7125,6.7655,11.4263,11.9923,16.1224,19.6599-5.3948,15.4944-25.4792,43.3437-26.7792,45.086-.8402,1.5211,4.6076,5.3594,5.2444,6.3764,7.1105-8.4105,9.8255-12.3106,16.2639-23.2947,6.4029-11.0371,9.8609-16.6972,15.3795-30.246-6.0315-7.7649-13.0093-15.1495-18.7313-22.2158,3.0246-8.7819,6.9867-11.329,11.6916-19.7395-2.0341-1.3178-3.3695-2.3613-6.0846-2.043-17.1217,20.1905-30.7059,33.0053-49.561,50.4984-2.4144-1.813-10.3296-4.5546-13.0005-5.9254-.9552-5.209,1.0259-22.092-.7783-24.975-2.0518-5.2533-9.118-4.6872-13.31-7.6146-.2742-.115-1.0966-.681-1.3443-.8313.6368-18.4571-.115-13.6461-11.727-19.4299-.5306-.2565-1.0789-2.149-.9817-3.626.0531-5.7043-.4157-15.919-1.9368-20.2966-5.2179.2123-26.4873,6.6241-29.9276,8.4547-.5041.1238-.7517.1061-.8932-.1415l-.2123-.7782v-1.7422c0-14.6366-.0442-33.2263,1.6803-46.669.5837-4.3335.849-8.8173,1.4062-12.6467.3714-2.777.4864-4.1035,1.53-5.9785,12.9209.2123,23.843,3.9267,36.0476,5.2356,5.2532-5.5097,12.4787-8.9588,18.749-13.5222,4.3777-3.1484,9.8344-6.8805,13.5134-9.7725.4953-.4864.734-.8844.7517-1.5123.0531-.5749-.4157-4.758-1.4858-6.7125-4.192.1061-13.6372,3.9621-19.5538,5.9873-10.0908,3.4668-20.562,5.5539-30.0514,8.2867-7.1016,2.0252-15.5917,4.9614-21.7559,5.9785-5.5539-.2741-11.7623-5.775-13.4957-9.7459-2.8743-6.5445,7.2077-31.4841,5.209-42.0525,9.7282-9.7725,14.3978-16.1931,18.7844-18.0238-6.9867,11.2759-10.3473,22.1096-10.6922,35.7203,11.7093-1.5477,25.8152-2.211,37.5775-6.6329,18.9435-7.2077,26.4873-15.7863,33.1821-24.6036,4.6342,25.6118,13.7964,33.8985,20.4647,54.3013,14.0971.5926,24.5063-39.2844,24.7805-39.2844,5.9519,23.3478,13.9644,27.9731,17.0863,42.8131,5.607-.8313,10.763-12.9209,14.0706-13.5842.6102,2.6708.9109,3.7763,1.7069,5.9961,24.0376-1.9368,42.0791-20.8803,42.3444-20.8803-10.6834,25.9125,12.9562,59.926,15.5121,62.2608,9.1534-3.8471,20.4912-20.4559,22.543-22.543,4.4308,9.852,10.2854,19.0408,18.7667,24.7362,4.0416,2.8477,7.4819,4.6254,11.7004,7.2696,4.2274-3.8205,7.305-17.0775,9.516-19.6069,10.5242,11.5854,32.625,24.073,48.5174,18.2537,0,0-2.6531-38.5946-27.7874-53.4257,3.5552.4245,8.72,1.8307,12.1161,2.5205,5.6512,1.0613,31.9528-3.4049,41.3185-14.2828l.0355.0089ZM581.3875,328.378c-1.5565,4.6607-4.9702,6.8098-8.2779,9.7282-25.5941,22.8702-33.6863,17.051-61.5798,13.5311,16.8299-28.2296,56.0258-31.608,69.8576-23.2505v-.0088ZM483.8309,273.4223c8.9942,26.1601-4.6076,59.1743-52.8597,66.7623,0-.2299,42.0614-19.1558,43.8744-46.3595-4.59-1.698-13.1685-3.2988-12.9828-3.06,4.926-7.6057,16.0162-15.9101,21.9593-17.3428h.0088ZM279.927,244.5294c8.1983,1.5388,30.7766,13.1508,35.738,18.2272,4.6872,4.8376,6.5179,13.2658,8.2955,20.6062,2.5028,10.0908,2.5912,22.092-.964,27.7874-12.3637-1.3177-35.9591-24.3825-39.9654-38.9837-3.9709-14.5658-3.5375-20.3851-3.1042-27.637ZM196.4763,319.2246c5.3948-6.7832,39.8769-6.3322,45.9173-2.6355,4.643,2.8831,14.8311,10.2677,20.7388,12.1249-2.5736,4.5811-17.4401,9.4894-27.6813,9.2684-14.2917-.2476-32.4304-8.2513-38.9749-18.749v-.0088ZM249.0531,370.917c-4.2097,2.0164-10.0112,2.1402-14.3447,2.7239-8.1983,1.1497-16.821-2.5028-23.2063-4.0063,0-.7606,29.2113-22.2246,46.4302-28.548,3.6614-1.3973,19.9164-2.1579,23.277-.2741-2.4321,7.9948-24.524,26.4697-32.1651,30.0956l.0088.0088ZM276.0799,328.042c-14.4862-4.8199-41.2743-28.3799-44.6438-42.4859,10.6834.4687,17.8823,1.9987,26.3193,4.3865,12.8413,1.7157,20.1375,2.1491,32.5277,11.8243,6.173,4.873,12.9474,17.2367,13.593,22.1981-4.3246,3.3607-19.0143,7.0132-27.7962,4.0859v-.0088ZM315.5677,371.2619c-7.9064,4.0063-18.8374,3.5287-30.8385,6.6329,10.9841-50.3038,49.0392-53.1162,58.0422-53.1781.115,12.6732-4.7757,35.3577-27.2037,46.5452ZM340.304,303.1377c-12.7794-20.8361-13.0005-38.0905-2.2729-61.9158,13.1508,1.7953,40.16,42.9458,15.0522,74.3857-5.041-2.5382-9.5514-7.2077-12.7794-12.4698ZM370.3908,398.899c-3.0069-12.7617-11.3555-21.9681-14.5924-35.4462-.9552-3.9797-2.5293-11.1079-.4953-17.0156,2.6001-7.6146,7.1458-15.3353,11.5589-20.8538,16.821,7.3581,23.0029,56.9013,3.5287,73.3067v.0088ZM369.4179,311.5747c1.7245-22.3838,26.7173-43.3614,61.1641-47.1643-.7871,21.1103-20.4735,42.2913-37.8694,47.1643-7.3227.8579-22.0742.734-23.3035,0h.0088ZM410.7895,404.2053c-2.5647-11.9923-20.3409-41.0001-15.1761-57.6177,1.3796-4.4573,2.8477-9.1357,4.8199-13.9468,7.6234,3.3784,17.219,19.368,19.1735,25.5676,5.7574,18.7578-4.9526,44.4492-8.8085,45.9881l-.0088.0088ZM418.3864,328.378c-6.7655-1.5653-13.3277-4.5988-17.3693-7.5084,17.7938-18.8286,46.0411-30.6263,62.473-24.0199-3.8205,10.9841-15.6182,21.9328-26.7084,26.5492-2.9627,1.2205-13.3631,6.1376-18.3952,4.9791ZM428.3269,398.8282c1.8572-13.5046,5.3417-34.2965,14.7515-40.611,6.12-4.192,18.917-7.8799,25.6206-8.7643,4.7403,13.5753-15.3706,47.7922-40.3722,49.3752ZM483.8928,436.3439c-2.2905-4.7934-6.3941-10.4446-8.5343-15.3706-4.8818-11.0548-2.2198-33.244,2.5205-43.4322,3.4314-7.4465,11.1875-10.5772,15.7686-16.6795,15.8924,15.2468-3.9444,72.9176-9.7548,75.4823ZM463.49,340.3968c13.1155-6.7036,19.9783-19.9252,31.5372-27.8139,19.368-13.2127,36.1537-10.3473,39.815-6.739-4.2008,7.9329-16.4761,22.4457-24.7982,29.2555-15.0434,8.7908-42.3178,9.6133-46.554,5.2975ZM532.5871,446.302c-7.2873-2.264-14.5216-10.9575-18.0415-15.8305-11.497-17.0598-6.7655-38.3647,2.2464-54.0536,2.83,2.3083,6.1022,6.5621,9.0207,10.4888,14.5039,20.2082,11.0637,32.5012,6.7655,59.3865l.0088.0088ZM566.238,412.8634c8.6847,9.1976,17.6435,24.126,20.4735,38.9483-24.6036-.9463-39.7708-24.0641-39.8504-49.1453,7.137.849,15.2999,5.8547,19.3769,10.197ZM535.4348,375.8253c15.3441-19.1027,73.3156,5.8016,73.3156,14.2563-10.1881,4.4219-17.502,4.5457-25.7356,5.2975-18.8816,1.7422-44.9887-16.0427-47.5888-19.5538h.0088Z" style="fill: #e31f26; fill-rule: evenodd;"/>
    <path d="M219.4173,214.0535c9.5779-9.2949,10.5949-23.7369,1.2293-33.3679-9.3656-9.6663-23.3478-9.4806-33.3767.283-9.5425,9.2949-10.6038,23.7369-1.247,33.3856,9.4187,9.6486,23.3655,9.4806,33.3944-.2919v-.0089ZM192.7796,186.6464c6.6329-6.4207,15.7244-6.571,21.8974-.1503,6.2261,6.3587,5.4655,15.8393-.7959,21.8709-6.6329,6.4737-15.689,6.6152-21.9062.2034-6.2349-6.3941-5.4301-15.8482.8048-21.9239ZM242.1283,159.5135l5.6778,30.8032-7.8976,1.4592-8.4724-46.3772,1.9456-1.3,39.1606,26.2397-4.4308,6.686-25.9832-17.5197v.0088ZM280.661,149.007l-23.5777-16.2285,4.8995-6.1553,18.6782,12.8767,2.5912-22.5341,7.8268.2919-3.2103,28.4507,7.305,16.0605-7.2166,3.3076s-7.2962-16.0693-7.2962-16.0693ZM347.7063,114.9846l-10.3119,20.3674-1.3708.3095-18.3333-13.6107,4.4396,30.5025-7.818,1.0878-6.5445-45.0418,2.8919-1.3796,23.5247,17.6523,13.2481-26.3282,3.1572-.0354,14.2828,43.2464-7.5173,2.494-9.6575-29.2378.0088-.0265ZM385.6818,103.8768l.4864,36.3659-7.9595.0707-.5483-43.9717,35.1985-.4864.6014,44.0159-7.9329.1327-.4687-36.3925-19.3857.2742.0089-.0088ZM437.3653,142.8605l-7.8533-1.0613,5.8016-43.6267,7.8976,1.0789-5.8369,43.6179-.0088-.0088ZM478.7457,105.6102l-30.0337,36.6224,6.2438,5.1117,5.439-6.6506,18.4748,5.0675,1.247,8.5432,7.9772-1.247-7.0486-46.8282s-2.2994-.6191-2.2994-.6191ZM465.701,134.22l9.631-11.8154,2.2905,15.0965-11.9127-3.2811h-.0088ZM502.9336,161.6625l-7.1547-3.3784,18.8639-39.815,7.1901,3.458-6.4383,13.4515,19.8898-7.0574,8.9677,4.2097-23.7811,8.5166,10.3385,33.8631-9.7725-4.6253-8.6493-28.4949-9.4541,19.8633v.0088ZM548.5944,188.9281c10.8337,7.7384,25.205,6.2438,33.0406-4.7403,7.8268-10.931,5.156-24.6832-6.2349-32.7665-10.8249-7.7561-25.2492-6.2172-33.0583,4.7403-7.818,10.9222-5.1383,24.6567,6.2438,32.7665h.0088ZM549.0897,160.9816c5.1648-7.252,14.6189-8.1806,21.6851-3.1042,7.5615,5.3682,9.2684,14.2917,4.0682,21.4906-5.1471,7.2696-14.5393,8.2159-21.6498,3.1307-7.5527-5.3859-9.3038-14.2651-4.1035-21.5171ZM575.975,203.4674l21.6851-4.811,2.7416-18.1918,4.3335-4.2804,19.7306,19.9871-5.5009,5.4478-11.78-11.9392-2.3259,15.6801-18.466,4.024,12.4256,12.5671-5.4655,5.3859-20.4912-20.8273,3.1042-3.0423h.0089ZM131.0407,265.6486l-3.7233-2.0783,13.8937-24.8954,2.1844,1.1851,12.3195,21.3225,20.3586-2.1137,3.1573,1.8307-13.2923,23.7634-3.6879-2.0606,10.082-18.1211-19.3238,1.9722-11.3909-19.7749-10.5684,18.9612-.0089.0088ZM130.5454,299.6709l-15.857-6.0138,1.6892-4.6253,15.9455,6.005,29.8657-6.5798,1.2028,4.8376-27.0091,5.8812,16.3523,22.313-4.1389,2.8654-18.0415-24.6832h-.0088ZM140.5213,395.9451l-42.9988-19.5803-1.4858,1.5123-.3361,37.2503,1.3,1.5477,43.4941-18.9258.0265-1.813v.0088ZM99.9899,409.9891l.2299-26.9384,30.4582,13.708-30.6882,13.2393v-.0088ZM105.367,456.9235l-4.2097.5926-3.5552-24.3029,43.5383-6.3499,3.2192,21.7647-4.2185.6367-2.4851-16.8741-12.4345,1.8484,2.2817,15.5829-4.2362.5749-2.264-15.5917-18.4748,2.7327,2.8477,19.3769-.0088.0088ZM110.8059,478.7855l6.3587,20.7919-4.0416,1.2116-8.3928-27.2391,2.4321-.734,23.9049,5.9519,12.629-16.1754,3.4403-1.0347,7.9683,26.0452-4.0416,1.247-6.0669-19.8456-11.9746,15.2999-22.2069-5.5097-.0088-.0088ZM179.6111,536.2264l-38.5946,24.5682-2.6443-4.192,30.9004-19.7129-28.7868-2.2463-1.0878-2.0606,14.672-24.8424-33.8543,13.991-1.9368-4.5546,42.2471-17.5639,1.4062,3.113-16.5734,28.035,32.4658,2.547,1.7776,2.9185h.0088ZM201.5881,565.1457c-8.5697-10.1881-22.9233-12.2841-33.1645-3.6525-10.2766,8.6847-11.1344,22.5872-2.1491,33.3325,8.5432,10.1881,22.9056,12.3106,33.191,3.6171,10.3208-8.6316,11.1521-22.5695,2.1225-33.2883v-.0088ZM196.3083,594.6666c-8.3044,6.969-19.5803,5.2002-26.3901-2.8654-7.2608-8.6051-6.5975-19.5184,1.698-26.4962,8.2602-6.9867,19.5891-5.2267,26.337,2.9096,7.2697,8.5609,6.6683,19.4742-1.645,26.4519ZM222.6542,589.316l20.9334,17.4843-2.7239,3.2545-15.9101-13.2835-1.6538,19.315-21.6055,7.5349,16.6795,13.9468-2.7239,3.1838-21.862-18.2449,1.5654-1.8837,23.2593-8.0921,1.7688-20.4204,2.2817-2.7947h-.0088ZM297.9242,639.8498l.8225-1.8837-4.6519-1.9987-.8225,1.9633c-12.1691-4.3246-24.5152-1.2647-28.716,8.552-4.1743,9.7194,1.4681,20.6239,13.5488,26.7527l-1.3531,3.1484,4.5988,2.0075,1.3531-3.1838c12.293,4.2539,24.6743,1.2116,28.8663-8.552,4.1478-9.7459-1.4946-20.6858-13.6461-26.8145v.0088ZM279.8297,669.2025c-9.3833-4.8907-14.0352-13.0624-10.7011-20.7742,3.3253-7.7472,12.9209-9.7194,22.4103-6.456l-11.7093,27.2303ZM306.9892,664.7541c-3.2988,7.7384-12.912,9.6398-22.543,6.4383l11.7446-27.3098c9.5072,4.9525,14.159,13.1508,10.7984,20.8715ZM330.8499,648.9855l4.8199,1.2735-11.1256,42.592-4.8022-1.2823,11.1079-42.5832ZM366.1103,655.3443l11.9923,46.3772-4.7049,1.1408-9.6044-37.0469-18.8551,33.4032-4.1124-2.6001,23.5158-41.5042,1.7688.2211v.0088ZM406.7567,657.3871l-17.3782,44.8295,4.5104,1.866,4.1212-10.5154,21.579-.6987,4.6961,10.1439,4.4927-1.9368-20.2348-43.724-1.7953.0442.0089-.0088ZM399.6462,689.2781l8.3132-21.6497,9.7371,21.0484-18.0415.6014h-.0088ZM501.2798,636.4449l33.9781,33.7217-3.4668,3.4049-27.1418-26.9384.8667,38.3381-4.9437-.115-.9021-47.6861,1.6096-.7164v-.0089ZM582.8733,635.6578l2.3436,3.511-13.9291,9.3303-3.2899-4.9614c3.6348-5.7662,6.6064-15.9278,2.2198-22.5164-5.6955-8.5432-17.2367-8.8085-25.3377-3.4049-8.1275,5.3948-12.2576,16.1578-6.5533,24.692,4.3865,6.5887,14.9461,7.7472,21.6409,6.5799l3.2988,4.926-13.9556,9.2949-2.3525-3.5022,8.6758-5.7662c-8.1098.5306-16.8299-1.866-21.4198-8.7466-7.4731-11.2317-1.7511-24.9132,8.0214-31.4046,9.7725-6.5621,24.639-6.6064,32.0767,4.5723,4.6961,6.969,3.5022,15.9366-.0884,23.1621l8.6316-5.7662h.0177ZM636.2017,505.0076l38.913,20.5619-2.2906,4.3689-35.2074-18.5721-10.7807,20.5089,35.1986,18.519-2.3083,4.3689-38.9395-20.4912s15.4149-29.2643,15.4149-29.2644ZM687.4695,479.1746l3.9975,1.3266-7.6853,23.3036-41.8137-13.823,6.907-20.8715,3.9975,1.3354-5.3417,16.1843,11.9657,3.9267,4.9349-14.9638,4.0505,1.3619-4.9437,14.9461,17.7319,5.8812,6.1907-18.6074h.0088ZM653.2526,449.4947l43.105,8.9588-1.017,4.8553-43.1226-8.9146,1.0347-4.8995ZM682.3489,422.6093c.7252-7.6853-4.2185-15.2203-11.161-15.804-7.5792-.7075-13.0182,4.4131-13.8141,12.8236l-1.132,12.7617,43.8744,3.9267.4245-4.9437-18.8374-1.6892.6367-7.084.0088.0088ZM678.1304,422.2467l-.6279,7.1016-16.5822-1.4769.6987-7.8003c.5218-5.6777,3.8382-8.8173,9.1623-8.3398,4.5723.3891,7.8003,5.5186,7.3492,10.5154ZM693.6514,393.6457l-1.1674-21.5702,10.0378-4.9437-2.0164-4.4308-43.2906,21.1899.0708,1.7599,45.1744,16.3877,1.813-4.5015-10.6303-3.8824.0088-.0089ZM667.4912,384.2447l20.8803-10.1704.9197,17.9796-21.809-7.8091h.0089ZM653.7656,350.585l43.3084-7.8091.8844,4.8553-43.2995,7.8357-.8932-4.8907v.0088ZM677.8385,290.3495l-3.4049-9.8167,4.0151-1.4062,5.5009,15.8128-5.607,2.0076c-4.6519-4.9702-13.761-10.48-21.2429-7.8622-9.6575,3.396-12.8678,14.4597-9.6575,23.6485,3.2191,9.2949,12.5671,15.9543,22.2865,12.5671,7.5084-2.6266,11.2583-12.5141,11.7889-19.3061l5.6247-1.9987,5.5009,15.8747-4.024,1.415-3.4403-9.8698c-1.4769,7.9329-5.9696,15.8393-13.8141,18.5367-12.7352,4.4396-24.4886-4.5634-28.3446-15.6536-3.9532-11.099-.2211-25.4615,12.4521-29.9188,7.9152-2.7151,16.2638.6545,22.3838,5.9608l-.0176.0089ZM621.6889,257.5299l10.2766,18.0503,8.3574-17.5197,22.8348.5572-10.7187-18.8816,3.679-2.0872,14.0794,24.7451-2.1756,1.2824-24.639-.6456-8.7997,18.5013-3.1396,1.7599-13.4515-23.6927,3.7144-2.0783-.0176.0088ZM140.99,366.8842l-43.1669-8.4193.964-4.8288h.1061l35.2339-16.9448-30.8651-8.7466,1.5654-4.6872,43.158,12.3283-40.5491,19.8014,34.4999,6.6329-.9463,4.873v-.0088ZM455.504,650.7543c-13.0182,2.777-21.6232,14.3978-18.7844,27.5132,2.7593,13.1508,14.6366,20.4735,28.3799,17.5727,12.9739-2.7858,21.5436-14.4332,18.7755-27.5132-2.8212-13.2039-14.6985-20.4824-28.3623-17.5727h-.0088ZM464.0737,691.1707c-10.9841,2.3613-20.2966-3.3253-22.543-13.929-2.2286-10.5772,4.6342-19.6952,14.9284-21.8797,10.9752-2.3436,20.2878,3.343,22.5518,13.9114,2.2464,10.5861-4.6342,19.6952-14.9461,21.8885l.0088.0088ZM472.8203,668.3801l.9021,4.2893-25.939,5.5186-.9109-4.3335,25.9479-5.4655v-.0089ZM595.5907,568.9929l31.1658,30.9358-3.4845,3.4933-.0796-.0442-38.7095-5.4744,20.7742,24.4091-3.8824,2.998-28.9725-34.1992,44.6791,6.058-25.0016-24.6832,3.5198-3.4845-.0088-.0088Z" style="fill: #fff; fill-rule: evenodd;"/>
  </g>
</svg>