<?xml version="1.0" encoding="UTF-8"?>
<svg id="_图层_1" data-name="图层_1" xmlns="http://www.w3.org/2000/svg" version="1.1" viewBox="0 0 800 800">
  <!-- Generator: Adobe Illustrator 29.1.0, SVG Export Plug-In . SVG Version: 2.1.0 Build 142)  -->
  <path d="M399.9338,685.5639c-192.9583,0-349.9338-109.4619-349.9338-244.0096s156.9849-244.0191,349.9432-244.0191,350.0568,109.4619,350.0568,244.0096-157.0417,244.0191-350.0662,244.0191Z" style="fill: #fff;"/>
  <path d="M400.0284,261.4983c-59.9998,0-115.6955,11.5781-161.7524,31.3478h323.6088c-46.0569-19.7697-101.7811-31.3478-161.8564-31.3478ZM400.0284,621.5156c61.1065,0,117.7103-11.9754,164.2212-32.3694H235.9017c46.5109,20.4035,103.0959,32.3789,164.1267,32.3694ZM167.3793,546.8068h4.881l.8229,1.5797,2.2513-1.5797h457.4565c14.8794-12.9213,27.0817-27.1195,36.1152-42.3016H131.2451c9.043,15.1726,21.2548,29.3803,36.1342,42.3016ZM684.9018,419.8454H115.2496c-1.3621,7.1133-2.081,14.3591-2.081,21.7089,0,6.962.6527,13.8294,1.8824,20.5927h570.04c1.2297-6.7633,1.8824-13.6307,1.8824-20.6021,0-7.3404-.7189-14.5861-2.081-21.6994h.0095ZM631.5802,335.1855H168.59c-15.078,12.9024-27.479,27.1101-36.7017,42.3016h536.3841c-9.2133-15.1915-21.6143-29.3992-36.6828-42.3016h-.0095Z" style="fill: #ed1c24;"/>
  <path d="M60.4808,441.5543c0-129.0235,151.9999-233.6045,339.5286-233.6045s339.6517,104.5715,339.6517,233.595-152.1419,233.614-339.6611,233.614S60.4808,570.4927,60.4808,441.5543ZM400,621.5156c158.0822,0,285.9801-80.6208,285.9801-179.9708s-127.9074-180.037-285.9707-180.037S114.0956,342.1191,114.0956,441.5543s128.0398,179.9708,285.9139,179.9613h-.0094Z" style="fill: #bb9753;"/>
  <path d="M173.5183,549.4649c41.3746-29.4749,69.7616-72.6467,82.4559-135.2666,13.0159-64.2091,6.1296-126.1006,2.3553-150.7324l472.7237,166.1982-555.435,119.4224" style="fill: #fff;"/>
  <path d="M703.6688,391.5908c-2.9986,1.1162-5.4769,3.3296-6.9903,6.2147-1.3811,2.658-1.7311,5.6944-.9933,8.7781l1.0027,3.6986c.5486,1.6932.9554,3.8972,1.4,6.2336.123.6338.2365,1.2675.3689,1.9013.0946.5581.2081,1.1067.3216,1.6554.1892.9459.3689,1.8446.4919,2.7148l.8892,7.6714c.2932,1.8729,1.8918,3.2445,3.812,3.2445h.2554c1.0878-.0662,2.1378-.5959,2.8094-1.4283.6054-.7378.8608-1.6365.7378-2.5256l-.454-3.9823c-.123-1.0405-.2554-2.2324-.4068-3.5094l-.0662-.577c-.1324-.9648-.3311-1.9864-.5297-2.9607-.1136-.5581-.2271-1.1256-.3216-1.6932l-.3689-1.9202c-.4824-2.5161-.927-4.8904-1.5134-6.7255l-1.05-3.8688c-.3027-1.1256-.1324-2.3459.4824-3.4526.5581-1.0784,1.5135-1.8729,2.6675-2.2418,1.1635-.3784,2.4783-.2554,3.5567.3027,1.0689.5959,1.8446,1.6081,2.1851,2.8661l1.1256,4.1715c.6243,1.9864,1.1162,4.5688,1.6364,7.312l.3689,1.8918c.104.6054.227,1.2013.3405,1.7972.2176,1.0973.4257,2.1378.5581,3.1499l1.0027,8.6836c.3216,2.1945,2.0432,3.7837,4.0959,3.6418,1.0216-.0568,1.9959-.5676,2.6675-1.3905.6905-.8419.9932-1.8918.8418-2.9607l-1.05-9.0903c-.1419-1.1067-.3783-2.2702-.5959-3.3864-.123-.6054-.2459-1.2202-.35-1.8446l-.35-1.7972c-.5675-2.9607-1.0972-5.7607-1.7594-7.9079l-1.1729-4.3323c-.8041-3.3013-3.0742-6.1296-6.2242-7.7566-2.9323-1.5229-6.3093-1.7216-9.4025-.5581l-.0189-.0189ZM310.6294,247.9149l-.5297.0568s-1.6648.2649-4.0485.8324l-8.816,1.977c-2.7337.577-5.458,1.2865-7.643,1.8635l-5.1269,1.3432c-.3689.0946-.7567.1419-1.1446.1419-2.0905,0-3.954-1.4189-4.531-3.4431-.3311-1.1729-.1797-2.3932.4257-3.4526.6148-1.0783,1.627-1.854,2.8472-2.1756l5.3255-1.3905c2.2135-.577,4.9661-1.3054,7.7187-1.8824,3.2823-.7378,6.5647-1.4756,9.0336-2.0243,2.4121-.5676,4.0769-.8419,4.1053-.8419,2.081-.3973,3.4526-2.4026,3.0648-4.4742-.3405-1.7973-1.9486-3.0932-3.8215-3.0932-.2459,0-.4919.0189-.7283.0662-.0189,0-1.7311.2838-4.2094.8608l-9.166,2.0621c-2.8567.5959-5.7039,1.3432-7.9836,1.9486l-5.2972,1.3905c-3.2256.7946-5.912,2.8378-7.5579,5.7417-1.6365,2.8851-2.0337,6.3377-1.0783,9.4592,1.6175,5.3066,6.4133,8.8633,11.947,8.8633,1.0121,0,2.0243-.123,3.0175-.3689l5.1364-1.3432c2.1189-.5581,4.7485-1.2486,7.3971-1.7972l8.6835-1.9486c2.3175-.5486,3.9067-.804,3.9445-.804,2.0148-.3878,3.3297-2.3837,2.9324-4.4458-.3595-1.854-2.0243-3.1878-3.8877-3.1121l-.0095-.0095ZM123.5831,517.5779l-2.0905-3.2918c-1.381-2.0432-3.0364-4.9661-4.3323-7.3119-1.2675-2.1094-2.3743-4.3702-3.2634-6.1769l-1.8918-3.8215c-.2838-.5486-.4067-.8892-.4257-.9365-.5486-1.277-1.8445-2.0905-3.3202-2.0905-.5392,0-1.0783.1135-1.5797.3216-1.9297.823-2.8567,3.027-2.0716,4.8904,0,.0189.1513.4162.473,1.0594l1.9297,3.8972c.9459,1.9297,2.1283,4.3323,3.4715,6.5931,1.3432,2.431,3.0742,5.4864,4.5404,7.662l2.1662,3.4053c1.3621,2.1662.8324,4.8999-1.2297,6.366-.7662.5392-1.6743.8324-2.6297.8324-1.5797,0-3.008-.7756-3.831-2.081l-2.308-3.6229c-1.5702-2.3364-3.481-5.7228-4.7864-8.0781-1.4378-2.4216-2.6959-4.9945-3.7175-7.0566l-.6243-1.277c-.577-1.154-2.4972-4.862-2.4972-4.862-1.0973-1.7405-2.9986-1.6743-4.408-1.0784-.9459.3973-1.6648,1.173-2.0243,2.1662-.3594.9838-.3216,2.081.0946,3.0553,0,0,.1608.4446.5297,1.1635l2.0999,4.2661c1.0594,2.1567,2.3743,4.8337,3.8688,7.3404,2.1283,3.8404,3.7175,6.5174,4.9945,8.4282l2.3932,3.7458c2.3932,3.5283,6.2525,5.6377,10.3011,5.6377,2.5634,0,4.9945-.8324,7.0187-2.4121,5.2499-4.0675,6.6593-11.597,3.131-16.7522l.0189.0189ZM94.638,486.4476c2.9702-.9932,5.5242-3.1026,7.1985-5.9498,1.5229-2.554,1.9864-5.5809,1.3243-8.7403l-.8419-3.7364c-.4162-1.5608-.7284-3.5472-1.0594-5.6566-.1324-.8324-.2649-1.6932-.4162-2.554-.3689-1.9013-.5297-3.8593-.6716-5.5904-.0851-.9743-.1608-1.8918-.2649-2.6959-.2649-2.204-.2365-3.7175-.2365-3.7364l-.0473-.473c-.2838-1.7027-1.8729-2.9796-3.8783-2.9796-1.0405.0189-2.0054.4351-2.7053,1.1824-.6811.7094-1.0311,1.6364-1.0027,2.5823,0,.0662-.0284,1.6648.2554,4.058.1041.8324.1892,1.7783.2743,2.781.1513,1.8446.3311,3.935.7189,5.9971.1513.8703.2838,1.7405.4162,2.5918.3595,2.2702.6905,4.408,1.1446,6.1107l.8797,3.8972c.5013,2.5351-.8892,4.881-3.3107,5.5809-.3973.1135-.804.1703-1.2202.1703-2.1567,0-4.0202-1.4851-4.4458-3.5377l-.9554-4.2188c-.4824-1.854-.8608-4.2188-1.2581-6.7349-.1324-.8419-.2649-1.6932-.4162-2.554-.4162-2.2135-.6054-4.4742-.7757-6.4701-.0946-1.05-.1797-2.0337-.2838-2.9135-.2932-2.5067-.2743-4.2188-.2743-4.2661-.0757-2.1473-1.7783-3.831-3.9445-3.831-.9648.0189-1.8729.4257-2.5634,1.1446-.7567.7946-1.1635,1.9013-1.1351,3.0269,0,.0757-.0189,1.8635.2932,4.5593.1041.8986.1986,1.9013.2838,2.9607.1892,2.1283.3973,4.5404.8324,6.9147.1419.8608.2743,1.7121.4067,2.554.4257,2.6864.8324,5.2309,1.3432,7.2268l.9932,4.3891c.6905,3.254,2.8567,6.1674,5.9215,7.9836,1.6932,1.0027,3.6418,1.5229,5.6282,1.5229,1.2581,0,2.5256-.2081,3.7458-.6148l.0473.0189ZM247.3757,609.0389c-.0568-.0189-6.0917-2.2891-11.9186-4.8431-3.0553-1.2486-6.0634-2.6392-8.0592-3.5756l-3.6513-1.6837c-.4824-.2176-.9932-.3216-1.5229-.3216-1.4662,0-2.8283.8608-3.4715,2.1851-.4635.9459-.5202,2.0053-.1703,2.9797.2649.7284.7378,1.3432,1.3527,1.7689l-.0378.0378,4.3134,1.9865c2.0243.9459,5.0891,2.3648,8.2484,3.6607,5.9498,2.6013,12.1172,4.9282,12.174,4.9471,2.3364.8986,3.5188,3.585,2.6391,5.9782-.6527,1.7689-2.3648,2.9513-4.2756,2.9513-.577,0-1.154-.104-1.7027-.3216-.0662-.0284-6.3755-2.4027-12.4861-5.0702-3.2067-1.3148-6.366-2.7715-8.466-3.7553l-3.831-1.7689c-.5203-.2365-1.0783-.35-1.6554-.35-1.504,0-2.8472.8229-3.4904,2.1377-.4446.9176-.5013,1.9581-.1514,2.9324.35.9837,1.0784,1.7594,2.0337,2.1945l3.8972,1.8067c3.3107,1.5513,6.1485,2.8094,8.6552,3.8404,6.2336,2.7243,12.6753,5.1553,12.7321,5.1742,1.4567.577,2.9702.8702,4.512.8702,5.1647,0,9.7524-3.2445,11.4173-8.0876,2.1756-6.3187-.9365-13.2051-7.0944-15.6739h.0095ZM297.9541,624.6561l-12.524-3.1689-8.5511-2.431c-2.2986-.6243-3.831-1.1351-3.8594-1.1445-.35-.1135-.7189-.1608-1.0878-.1608-1.6459,0-3.0931,1.0783-3.604,2.6864-.454,1.4189-.5013,3.6796.927,4.285l1.5135.5013s1.5986.5297,3.954,1.1824l8.7025,2.4783c6.3755,1.6175,12.7415,3.2256,12.7605,3.2256,2.4499.5486,3.9918,3.008,3.4431,5.4958-.4635,2.0904-2.3742,3.604-4.5404,3.604-.3405,0-.6905-.0379-1.0216-.1135l-13.0442-3.3013-8.9106-2.5351c-2.3932-.6527-4.0012-1.1824-4.0107-1.1918l-.6054-.1987v.0568c-.1892-.0284-.3784-.0378-.577-.0378-1.6838,0-3.1499,1.0689-3.6513,2.6674-.6338,1.9959.5202,4.1621,2.5729,4.8242.0189,0,1.6648.5486,4.1242,1.2297,2.4689.7,5.7607,1.6364,9.0619,2.5729l13.2713,3.358c.927.2081,1.8729.3121,2.8094.3121,5.8174,0,10.8592-4.039,11.9848-9.6011,1.3338-6.6309-2.7716-13.1672-9.1471-14.5861l.0095-.0095ZM199.8716,586.3841l-3.4526-2.0432c-2.0526-1.1635-4.6918-2.8567-7.4444-4.6255-2.6486-1.6554-5.3066-3.4148-7.2836-4.8431l-3.2823-2.2702c-.6148-.4162-1.3432-.6338-2.0905-.6338-1.2297,0-2.4026.6054-3.131,1.5986-.6148.8419-.8702,1.9013-.7,2.9134.0946.5581.3122,1.0784.6432,1.5229l.8608.8324s1.3432.9365,3.358,2.327c1.9959,1.4378,4.7391,3.254,7.5011,4.985,2.6959,1.7405,5.5053,3.5378,7.6525,4.758l3.5188,2.081c2.1472,1.2959,2.8945,4.1242,1.6837,6.2998-.804,1.4472-2.327,2.3459-3.9823,2.3459-.8229,0-1.627-.227-2.3364-.6622l-3.6418-2.1567c-2.2418-1.277-5.2404-3.1972-7.8795-4.8999-2.8378-1.7783-5.6566-3.6418-7.7376-5.1364l-3.5945-2.4972c-.6527-.4067-1.4-.6243-2.1662-.6243-1.2486,0-2.3837.5676-3.1026,1.5513-.6054.8324-.8419,1.8446-.6621,2.8567.1797,1.0405.7662,1.9391,1.6364,2.5351l3.5567,2.4688c2.1851,1.5608,5.0796,3.481,7.9457,5.2783,2.8378,1.8256,5.7985,3.7269,8.0876,5.0228,2.2324,1.3243,3.7175,2.1945,3.7175,2.1945,1.9013,1.1256,4.058,1.7216,6.2431,1.7216,4.5026,0,8.5795-2.4405,10.6416-6.3566,3.1215-5.9309,1.1256-13.205-4.5404-16.563l-.0189.0189ZM671.7062,352.6567c-.4635,2.9607.2175,5.9782,1.9959,8.7309l4.4175,6.4796,2.3364,3.9161c1.4756,2.4405,3.1499,5.212,4.1621,7.3782l1.7594,3.4337c.6148,1.1919,1.8918,1.9297,3.3297,1.9297.6053,0,1.1824-.1324,1.731-.3878.9459-.4446,1.6459-1.2013,1.977-2.1567.3216-.9175.2554-1.9107-.1987-2.7999l-1.8351-3.5661c-1.0405-2.1945-2.6675-4.9282-4.3891-7.7565l-2.4404-4.0959-4.6066-6.7539c-1.3811-2.1094-.9081-4.9377,1.0689-6.4228.7945-.5959,1.7405-.9081,2.7337-.9081,1.5135,0,2.904.7473,3.7269,1.9959l4.8526,7.1322,2.5824,4.3229c1.731,2.8472,3.5093,5.8269,4.616,8.1727l2.8284,4.9472c.8135,1.277,2.9229,1.3905,4.3417.7283.8892-.4162,1.5608-1.1635,1.8824-2.0905.35-1.0121.2554-2.1662-.2459-3.1688l-2.0337-3.9539c-1.1824-2.4878-3.0364-5.5904-4.8336-8.57-.9081-1.5229-1.8256-3.0364-2.6864-4.4837l-5.0418-7.4066c-1.8067-2.7621-4.8431-4.6634-8.3336-5.2026-3.2445-.4824-6.5079.3973-9.0808,2.4594-2.5162,2.0148-4.1621,4.8999-4.6539,8.1255l.0378-.0284ZM183.3369,304.6512c2.2891,0,4.5404-.6338,6.5174-1.8256l3.3864-2.1378c2.1189-1.4,5.1364-3.131,7.539-4.4837,5.4201-3.2256,11.1429-6.1296,11.1997-6.158l.2554-.1324v-.0189c1.6175-1.0121,2.1945-3.1783,1.2865-4.9566-.6527-1.2865-1.9486-2.0905-3.3769-2.0905-.5959,0-1.1729.1419-1.7027.4162-.0568.0284-5.9215,3.008-11.4929,6.3188-2.4405,1.381-5.5336,3.1499-7.7471,4.6161l-3.4526,2.1851c-.7189.454-1.5513.6905-2.4121.6905-1.6081,0-3.0932-.7946-3.9823-2.1283-.6716-1.0121-.8986-2.2135-.6527-3.3959.2554-1.2202,1.0027-2.2702,2.081-2.9513l3.585-2.2607c2.327-1.5324,5.6566-3.4431,7.9741-4.7485,5.7323-3.4053,11.7483-6.4701,11.8146-6.4985l.2554-.1419c1.7026-1.05,2.3459-3.254,1.4378-5.0418-.6432-1.2581-1.9391-2.0432-3.3864-2.0432-.6338,0-1.2675.1514-1.8445.454-.0568.0284-6.2242,3.1688-12.0983,6.6593-2.5824,1.4567-5.8458,3.3296-8.1822,4.8715l-3.6513,2.308c-2.8756,1.75-4.8336,4.5404-5.5147,7.8511-.6716,3.2634.0189,6.6593,1.9013,9.3173,2.4121,3.4053,6.1579,5.3539,10.2727,5.3539l-.0095-.0284ZM87.5436,432.6153c.227.0095.4635.0189.6905.0189,6.489,0,12.0794-4.5593,12.7132-10.3295l.7189-3.7269c.1703-.7473.3216-1.5891.4824-2.4878.3122-1.7594.6716-3.7458,1.277-5.685.3216-1.1067.6148-2.2229.8892-3.3013.4635-1.7594.8986-3.4242,1.3716-4.758l1.4189-4.2188c.4919-1.6837-.804-3.4053-2.5445-4.0675-.4446-.1703-.9081-.2554-1.381-.2554-1.5513,0-2.9324.9648-3.4431,2.4026l-1.3243,3.7931c-.5203,1.4567-.9932,3.2634-1.4946,5.1742-.2838,1.0973-.5865,2.2229-.8986,3.3391-.6527,2.0999-1.0405,4.2472-1.381,6.1485-.1608.8986-.3122,1.7499-.4824,2.5161l-.7662,3.9729c-.2743,2.3837-2.5351,4.1337-5.089,3.8688-1.1824-.1324-2.2608-.7283-3.0175-1.6837-.804-1.0216-1.1729-2.308-1.0216-3.5945l.804-4.2188c.1797-.8135.3405-1.7216.5203-2.6769.3689-2.0243.7946-4.3229,1.4756-6.5458.3216-1.154.6338-2.308.927-3.4337.5581-2.0999,1.0783-4.0769,1.6364-5.6471l1.4189-4.058c.7094-2.0337-.3122-4.2945-2.2702-5.0323-.4067-.1514-.8324-.2365-1.2675-.2365-1.6175,0-3.1026,1.0973-3.6796,2.7432l-1.4756,4.2377c-.5959,1.6932-1.154,3.8026-1.7405,6.035-.3027,1.154-.6148,2.3364-.9459,3.4999-.7284,2.3837-1.1729,4.8242-1.5702,6.9809-.1797.9838-.35,1.9013-.5297,2.7432l-.8513,4.4647c-.4351,3.7364.6054,7.4066,2.8472,10.0646,2.0243,2.4026,4.8715,3.8121,8.0025,3.9729l-.0189-.0189ZM131.8883,335.0342c2.4026,2.1567,5.5053,3.3391,8.7214,3.3391s6.2525-1.2202,8.3714-3.4242c.0473-.0473,4.6445-4.3796,9.2511-8.57l6.6782-5.6188c1.75-1.5229,3.0459-2.4405,3.0742-2.4594,1.5986-1.2297,1.8635-3.585.5865-5.2499-.7378-.9648-1.8445-1.5135-3.0553-1.5135-.823,0-1.5986.2554-2.2418.7473-.0568.0378-1.381.9743-3.2067,2.5729l-6.8674,5.789c-4.7674,4.3323-9.5065,8.8065-9.5633,8.8633-1.6648,1.7216-4.6728,1.731-6.4417.0189-.8702-.8324-1.3621-1.977-1.381-3.1972-.0189-1.277.4635-2.4878,1.3527-3.4053.0473-.0473,4.9945-4.7296,9.9511-9.2227l7.1417-6.0161c1.8824-1.6364,3.254-2.6107,3.2729-2.6202l.1892-.1419v-.0189c1.5324-1.3243,1.8067-3.6323.577-5.2404-.7094-.927-1.8067-1.4662-3.0175-1.4662-.8892,0-1.7405.2932-2.4499.8324-.0568.0378-1.4567,1.0311-3.4242,2.7432l-7.3403,6.1769c-5.1174,4.635-10.2065,9.4592-10.2727,9.516-2.5162,2.6013-3.8404,5.9309-3.7175,9.3741.1135,3.1783,1.4662,6.0917,3.8215,8.2011l-.0095-.0095ZM101.3067,380.0695c1.7783.8135,3.6607,1.2297,5.5998,1.2297,4.5688,0,8.6835-2.327,10.7362-6.0634l2.4594-4.1337c1.1067-1.8635,2.4783-4.1904,4.0769-6.3944,3.3391-5.1363,7.7187-10.8024,7.7187-10.8024.8986-1.5892.1892-3.3769-1.2013-4.5026-.6811-.5581-1.5324-.8608-2.3932-.8608-1.1351,0-2.1851.5108-2.8756,1.4-.0378.0473-4.1242,5.1363-7.6052,10.4997-1.6932,2.3459-3.1594,4.8147-4.3323,6.8012l-2.5067,4.1999c-1.2675,2.1094-4.0202,2.9418-6.2147,1.8067-1.0973-.5675-1.9297-1.5986-2.2797-2.8283-.3405-1.2108-.1892-2.4499.4446-3.4999l2.6107-4.3891c1.2486-2.1094,2.7999-4.7296,4.5877-7.2174,3.6796-5.6566,7.9457-10.9727,7.9836-11.0294l.2554-.3216-.0189-.0189c1.031-1.6648.7094-3.8972-.8135-5.1364-.6527-.5297-1.4473-.804-2.2891-.804-1.2202,0-2.3743.577-3.1499,1.5797-.0473.0568-4.4742,5.5904-8.3052,11.474-1.8824,2.6297-3.5283,5.4012-4.8431,7.6241l-2.6675,4.4837c-1.731,3.1499-2.0999,6.8295-1.0121,10.1119,1.0216,3.0742,3.1594,5.4958,6.035,6.8011v-.0094ZM154.5526,553.3999c-1.0973-.9932-2.3932-2.2513-3.7553-3.5756-.8135-.7851-1.6554-1.6081-2.5067-2.4121-1.4851-1.4283-2.8945-2.9324-4.1526-4.2661-.6621-.7094-1.2864-1.3716-1.854-1.9581-1.6175-1.6459-2.6107-2.8567-2.6297-2.8756-1.2581-1.4473-3.7269-1.5608-5.2688-.2365-1.5891,1.3716-1.7973,3.7553-.454,5.3066.0378.0473,1.0594,1.2959,2.7621,3.027.5959.6054,1.2392,1.2959,1.9297,2.0337,1.2959,1.3716,2.7526,2.9324,4.2945,4.4174.8702.8324,1.731,1.6648,2.5634,2.4689,1.4189,1.3716,2.7621,2.6769,3.9161,3.7269l3.0459,2.6959c1.854,1.6459,2.0337,4.5783.3878,6.5268-.8513,1.0027-2.0905,1.5797-3.4148,1.5797-1.1351,0-2.2324-.4256-3.1026-1.1918l-3.1783-2.8094c-1.2202-1.1162-2.6675-2.5162-4.2093-4.0107-.8324-.804-1.6837-1.627-2.5351-2.4405-1.5986-1.5513-3.1405-3.1877-4.4931-4.6256-.7094-.7567-1.381-1.4662-1.9959-2.0905-1.75-1.7972-2.8283-3.1026-2.8472-3.131-.7473-.8608-1.8351-1.3527-2.9702-1.3527-.9081,0-1.7878.3216-2.4783.9081-.7473.6432-1.2013,1.5419-1.277,2.5445-.0757,1.0216.2365,2.0243.8892,2.8472l.1041.1324s1.154,1.4,2.9797,3.2729c.6148.6338,1.2959,1.3527,2.0243,2.1283,1.4094,1.504,3.0175,3.2067,4.6823,4.8242.8608.8229,1.7121,1.6459,2.5445,2.4499,1.6081,1.5608,3.131,3.027,4.4174,4.1999l3.2634,2.8851c2.2513,2.0526,5.1553,3.1877,8.1728,3.1877,3.6891,0,7.0944-1.627,9.3362-4.4647,4.1053-5.1742,3.5567-12.6753-1.2486-17.0833l-2.9607-2.6202.0189-.0189ZM638.7692,323.7304l3.027,2.5445c1.1351.9648,2.4499,2.204,3.8499,3.5094.8229.7756,1.6742,1.5702,2.5445,2.3648,2.0904,1.854,4.0296,3.8688,5.5809,5.4769l3.3107,3.4148c.7094.7,1.6554,1.0783,2.658,1.0783s1.9013-.3594,2.6202-1.0216c.7851-.7094,1.2581-1.7121,1.2864-2.7432.0284-.9743-.331-1.8918-1.0121-2.5729l-3.2823-3.3864c-1.6459-1.7121-3.6985-3.8404-5.9309-5.8363-.8892-.8135-1.7783-1.6459-2.6296-2.4405-1.4378-1.3527-2.7999-2.6202-3.9823-3.6323l-3.1215-2.6202c-1.9013-1.5986-2.1473-4.5215-.5486-6.5079.8514-1.05,2.1283-1.6554,3.4904-1.6554,1.0973,0,2.1756.3973,3.027,1.1162l3.2445,2.7337c1.2297,1.05,2.677,2.4026,4.2094,3.8404.8608.804,1.7499,1.6459,2.658,2.4689,2.2986,2.0432,4.4269,4.2566,6.1295,6.035l4.2472,4.181c1.4662.8986,3.4526.7662,4.6823-.3595.7662-.6905,1.2013-1.6364,1.2297-2.677.0284-1.0594-.3689-2.0716-1.1256-2.8283l-3.5093-3.6229c-1.7878-1.854-4.0013-4.1526-6.4039-6.2998-.8892-.8229-1.7783-1.6554-2.6391-2.4594-1.6175-1.5135-3.1405-2.9323-4.4458-4.0485l-3.3202-2.7999c-2.2418-1.9486-5.0891-3.0175-8.0025-3.0175-3.7647,0-7.2268,1.7027-9.4781,4.6728-4.0107,5.2877-3.3013,12.7794,1.6175,17.0549l.0189.0378ZM621.2035,575.4588c-2.3837,0-4.6634.7-6.5647,2.0053l-3.358,2.1472c-.6243.3878-1.2959.823-2.0243,1.2865-1.6364,1.0594-3.4999,2.2513-5.4201,3.3486-1.0594.6148-2.1189,1.2392-3.131,1.8445-1.627.9649-3.1594,1.8729-4.4553,2.5824l-3.5283,1.9107c-1.7783.9743-2.4216,3.2823-1.4378,5.1363.6622,1.2486,1.9392,2.0338,3.3391,2.0338.6148,0,1.2202-.1514,1.7594-.4446l3.5945-1.9486c1.3811-.7568,3.0175-1.7311,4.7485-2.7526.9932-.5865,2.0053-1.1919,3.027-1.7878,2.0053-1.1446,3.935-2.3837,5.6282-3.4715.7189-.4635,1.3999-.8986,2.0242-1.2959l3.4526-2.2135c.7473-.5108,1.627-.7756,2.5351-.7756,1.5229,0,2.9513.7473,3.8215,2.0148.7,1.0027.9554,2.2229.7284,3.4432-.2365,1.2392-.9365,2.3175-1.9769,3.0175,0,0-1.4283.9081-3.5567,2.2797-.6527.4067-1.3527.8608-2.1,1.3432-1.7499,1.1256-3.7269,2.4026-5.7796,3.5661-1.0121.5959-2.0243,1.1918-3.008,1.7783-1.8351,1.0878-3.5661,2.1189-5.0134,2.904l-3.9539,2.1473c-1.6838,1.0972-2.2986,3.3107-1.3621,5.0796.6527,1.2297,1.9297,1.9864,3.3485,1.9864.6622,0,1.3243-.1703,1.9108-.4918l3.7931-2.0622c1.4851-.8135,3.2634-1.8729,5.1553-2.9891.9932-.5959,2.0243-1.2013,3.0554-1.7973,2.1472-1.2202,4.2093-2.5539,6.0349-3.7269.7284-.473,1.4189-.908,2.0527-1.3148l3.6512-2.3365c2.9135-2.0053,4.8336-4.9661,5.4012-8.3241.5297-3.1688-.2176-6.3282-2.1094-8.9011-2.4121-3.2729-6.262-5.2309-10.2916-5.2309l.0095.0095ZM595.7676,294.142l3.4716,1.9864c.4635.2649.9648.5486,1.4851.8513,1.8634,1.0689,3.9823,2.2702,6.0539,3.6323,2.7053,1.7026,5.4012,3.4053,7.416,4.6728l3.2823,2.2607c.5959.4162,1.3054.6338,2.0338.6338,1.2486,0,2.431-.6243,3.1688-1.6743.5865-.8419.8229-1.8635.6432-2.8661-.1703-.9838-.7189-1.8351-1.5324-2.4121l-3.3769-2.327-7.5957-4.7958c-2.1567-1.4094-4.3418-2.6675-6.2809-3.7648l-5.0228-2.8756c-2.1945-1.2959-2.9796-4.0485-1.7878-6.2809.7946-1.4851,2.3365-2.4121,4.0202-2.4121.7946,0,1.5797.2176,2.2702.6243l5.2026,2.9796c1.977,1.1351,4.2282,2.4121,6.4322,3.8594l7.8511,4.9566,3.604,2.4878c.6338.4067,1.3527.6148,2.1.6148,1.2581,0,2.431-.6054,3.1405-1.6175.5675-.8135.7851-1.8067.6148-2.7999-.1891-1.05-.7757-1.9675-1.6742-2.5824l-3.5851-2.4689-8.0309-5.0701c-2.3175-1.5229-4.7674-2.9134-6.7349-4.0296l-5.1931-2.9796c-1.8446-1.0594-3.9351-1.6175-6.0444-1.6175-4.5309,0-8.7592,2.5729-10.7646,6.5458-3.008,5.9593-.8892,13.1956,4.8242,16.4779l.0094-.0095ZM573.321,601.4905c-1.6837,0-3.3107.35-4.8053,1.05,0,0-5.9309,2.4972-11.8618,4.9756l-8.2673,3.1877c-2.2135.8513-3.7553,1.3527-3.7742,1.3621-1.9297.681-2.9324,2.8472-2.2418,4.8336.6053,1.7311,2.4121,2.8094,4.2093,2.5161v.0473l.6054-.1987s1.6081-.5202,3.8877-1.3999l7.6052-2.9229,12.9497-5.4012c.5865-.2743,1.2202-.4067,1.8634-.4067,1.7878,0,3.4337,1.0594,4.1904,2.7054.5108,1.1067.5581,2.3459.1324,3.4999-.4351,1.1824-1.3148,2.1283-2.4594,2.658-.0568.0284-6.262,2.6959-12.4294,5.212l-8.6552,3.3391c-2.3175.8892-3.9255,1.4094-3.9445,1.4189-2.0053.7094-3.0742,2.8945-2.3837,4.8809.5297,1.5229,1.9865,2.5351,3.6418,2.5351.4446,0,.8892-.0756,1.3054-.2175.0189,0,1.6742-.5392,4.058-1.4662l8.8065-3.3959c6.2904-2.5634,12.6091-5.2877,12.6848-5.3161,3.1783-1.4662,5.5525-4.0296,6.6876-7.2268,1.0689-3.0269.8892-6.2809-.5202-9.1565-2.1189-4.3134-6.5458-7.1039-11.2754-7.1039l-.0095-.0094ZM712.8253,445.0825h-.35c-3.0742,0-6.0539,1.1067-8.4092,3.131-1.7878,1.5797-3.9729,4.1999-4.2566,7.7377,0,.0189-.0852,1.5229-.4919,3.708-.1513.804-.2838,1.7027-.4257,2.6675-.2554,1.7216-.5392,3.6702-1.0405,5.562-.1797.7757-.35,1.5513-.5202,2.308-.4824,2.1662-.9459,4.2093-1.4756,5.8174l-1.2486,4.2566h.0662c-.1608,1.7121.908,3.3864,2.6486,3.9823.4162.1419.8418.2081,1.277.2081,1.6743,0,3.0742-1.0216,3.4904-2.5256l1.1256-3.8404c.577-1.7405,1.0689-3.935,1.5891-6.262.1703-.7756.35-1.5608.5297-2.327.5297-2.0432.8419-4.1337,1.1162-5.9782.1419-.9837.2838-1.9107.4446-2.7337.4351-2.3743.5202-3.9634.5202-4.0107.2365-2.3932,2.5256-4.2472,5.0418-4.0675,1.1919.0851,2.2702.6338,3.0458,1.5608.8324.9838,1.2108,2.2513,1.0878,3.585,0,.0189-.104,1.7311-.5486,4.2188-.1608.8703-.3122,1.854-.473,2.904-.2932,1.977-.6338,4.2188-1.1919,6.4039-.1703.7284-.331,1.4662-.4918,2.1945-.5865,2.6013-1.1351,5.0607-1.7595,6.9714l-1.2107,4.1431c-.577,2.1473.4635,4.2566,2.4216,4.9283.3783.1324.7757.1986,1.1729.1986,1.7121,0,3.2445-1.1824,3.708-2.8756l1.2581-4.3039c.6622-2.0432,1.2581-4.6634,1.8729-7.4349.1608-.7378.3311-1.4756.5014-2.2135.5959-2.3459.9554-4.7391,1.277-6.8485.1608-1.0594.3122-2.0527.473-2.9418.4824-2.658.5865-4.4458.5959-4.512.3216-3.7553-.6716-7.1512-2.7999-9.5443-2.1851-2.5351-5.231-3.9823-8.5606-4.0675h-.0095ZM671.7913,543.9785c-2.3459-1.9959-5.3067-3.0932-8.3525-3.0932-3.3486,0-6.4417,1.277-8.7403,3.6134,0,.0095-1.05,1.1824-2.7243,2.781l-5.9309,5.6755-6.839,6.0728-3.0648,2.5162c-1.5513,1.277-1.75,3.6418-.4446,5.2877.7284.9175,1.8162,1.4473,2.9797,1.4473.8513,0,1.6648-.2838,2.3269-.8229l3.1689-2.5918,6.7255-5.9404,6.4607-6.1863c1.7594-1.6837,2.8188-2.8756,2.8566-2.9134.8514-.8892,2.0148-1.381,3.2824-1.381,1.2013,0,2.3459.4446,3.2256,1.2581.8892.8135,1.4,1.9297,1.4378,3.1405.0378,1.2675-.4257,2.4783-1.3243,3.4242-.0094.0095-1.1445,1.277-2.9513,3.008l-6.7444,6.4512-6.9809,6.1674-3.2728,2.6959c-1.6459,1.3527-1.9297,3.7837-.6149,5.4201.7094.8892,1.7783,1.3905,2.9324,1.3905.908,0,1.8162-.3216,2.5445-.9081l3.3769-2.7716,7.1985-6.366,6.943-6.6498c1.8824-1.8067,3.0742-3.1405,3.0742-3.1405,2.45-2.4972,3.708-5.7701,3.5567-9.1943-.1513-3.3013-1.5986-6.2904-4.0864-8.3998l-.0189.0095ZM701.0107,498.073c-2.9323-1.2581-6.2998-1.3621-9.27-.3216-3.1026,1.0216-5.5336,3.0553-6.8485,5.7417,0,.0095-.1513.35-.4635.8986l-1.3905,2.4405c-.2932.5108-.6053,1.0595-.9365,1.6459-.9837,1.75-2.0999,3.7458-3.3958,5.6661l-.3216.5108c-1.5797,2.4878-3.0742,4.8431-4.3891,6.5931l-2.6486,3.8972c-.9459,1.6932-.123,3.3959,1.277,4.4647.6811.5202,1.523.804,2.3648.804,1.1919,0,2.2608-.5392,2.9135-1.4851l2.3365-3.2823c1.3715-1.8162,2.9229-4.2661,4.5688-6.8579l.3595-.5581c1.3716-2.0432,2.554-4.1526,3.5945-6.0161.331-.5865.6432-1.1446.9365-1.6554l1.4472-2.554c.35-.6243.5108-1.0027.5108-1.0027.7473-1.5135,2.308-2.4499,4.0769-2.4499.7189,0,1.4189.1608,2.0716.473,1.0783.5108,1.8918,1.4283,2.2891,2.5823.4162,1.2108.3216,2.5351-.2649,3.7269,0,0-.1703.3878-.5202,1.0121l-1.5229,2.7053c-.3122.5392-.6432,1.1256-.9932,1.75-1.1068,1.9581-2.3553,4.1904-3.8026,6.3377-1.7973,2.8378-3.6512,5.7701-5.1836,7.8133l-2.4878,3.481c-1.2297,1.7972-.9081,4.1715.7283,5.4296.6527.4919,1.4283.7567,2.2608.7567,1.2676,0,2.4594-.6243,3.1877-1.6837l2.5635-3.5945c1.5797-2.1094,3.4904-5.1269,5.335-8.0403l.0662-.0946c1.5418-2.3175,2.885-4.7012,4.0674-6.8106.3216-.577.6338-1.1162.9175-1.627l1.5797-2.8094c.3878-.6905.577-1.1067.577-1.1067,1.5607-3.1405,1.8634-6.7255.8419-9.8281-1.1256-3.1594-3.4243-5.6282-6.4796-6.9431l.0473-.0094ZM363.6199,240.603l-4.1053.35c-.8419.0851-1.7878.1608-2.7999.2365-1.9107.1514-4.0769.3122-6.2241.6054l-13.0821,1.5608c-2.4878.4068-4.8147-1.4094-5.1837-3.8783-.3784-2.5256,1.4-4.8904,3.935-5.2782l13.3659-1.5891c2.1567-.2932,4.3512-.4635,6.2809-.6148,1.05-.0851,2.0337-.1608,2.904-.2459l4.1904-.35c2.1094-.1797,3.708-2.0337,3.5566-4.1337-.1419-2.0716-1.958-3.6513-4.162-3.4904l-4.2566.3595c-.8702.0851-1.8351.1608-2.8661.2459-1.9959.1513-4.2472.3311-6.4796.6338l-13.5739,1.6175c-3.4053.5203-6.3661,2.308-8.343,5.0512-1.9013,2.6202-2.6486,5.808-2.1189,8.9673,1.0027,5.9404,6.1674,10.424,12.0227,10.424.5865,0,1.1824-.0473,1.75-.1324l12.8834-1.5324c2.0716-.2838,4.181-.4446,6.035-.5865,1.0216-.0757,1.9675-.1514,2.8094-.2365l4.4553-.3784v-.0284c1.8256-.3784,3.1499-2.1094,3.0175-4.058-.1419-2.0716-1.9581-3.6796-4.0391-3.4999l.0284-.0189ZM391.1651,230.0465l4.2093-.0662c2.5162-.0662,5.8647-.0946,9.2227,0l9.2511.1608c2.4783.0189,4.1526.1324,4.181.1324h.1797c2.0621,0,3.7458-1.5891,3.831-3.6323.0946-2.0999-1.5702-3.8972-3.708-4.0107-.0189,0-1.7405-.1135-4.2756-.1324l-9.3646-.1513c-3.4148-.0946-6.8485-.0662-9.393,0l-4.2566.0757c-3.3486.0189-6.4512,1.3621-8.7403,3.7837-2.2796,2.4121-3.4526,5.5525-3.2918,8.8538.3216,6.6687,5.7701,11.8902,12.4861,11.8902l4.058-.0662c2.4216-.0662,5.6471-.0946,8.9011,0l8.92.1513c2.3837.0189,4.0107.123,4.0391.123h.1703c1.9959,0,3.6323-1.5986,3.7175-3.6323.0946-2.0905-1.5229-3.8972-3.5945-4.0107-.0189,0-1.6837-.1135-4.1337-.1324l-9.043-.1514c-3.3013-.0946-6.6025-.0757-9.0714,0l-4.1904.0662c-2.4783,0-4.5499-2.0432-4.6255-4.5499-.0378-1.2202.4067-2.3743,1.2486-3.2634.8608-.8986,2.0243-1.4094,3.2823-1.4283l-.0094-.0095ZM547.8757,272.2156l3.7553,1.4378c.7662.3027,1.6175.6243,2.5351.9648,1.7594.6621,3.7553,1.4,5.6945,2.2702l8.1538,3.4621c2.1945.8892,3.6229,1.6175,3.6512,1.627.4824.227.9932.3405,1.5229.3405,1.4568,0,2.7999-.8797,3.4337-2.2324.6716-1.4378.3784-3.0837-.6148-4.1904l-1.1541-.8702s-1.5134-.7662-3.7647-1.6932l-8.2957-3.5188c-1.9864-.8892-4.0202-1.6459-5.8268-2.3175-.9365-.35-1.8162-.6811-2.6013-.9932l-3.831-1.4567c-2.3837-.9365-3.5851-3.5377-2.7432-5.9309.6432-1.8256,2.3648-3.0553,4.285-3.0553.5581,0,1.1162.1041,1.6459.3122l3.9255,1.4946c.7851.3122,1.6743.6432,2.6107,1.0027,1.854.6905,3.9634,1.4756,6.0066,2.3932l8.5416,3.6229c2.2891.9459,3.8026,1.7027,3.831,1.7121.5202.2459,1.0784.3689,1.6459.3689,1.4851,0,2.8378-.8608,3.4621-2.1851.8892-1.9013.0189-4.2093-1.9297-5.1269-.0189,0-1.5797-.7946-3.9445-1.7689l-8.693-3.6891c-2.0999-.9365-4.2377-1.731-6.139-2.4405-.9554-.3595-1.8634-.7-2.6675-1.0216l-4.0107-1.5229c-1.3999-.5297-2.8567-.804-4.3323-.804-5.2593,0-9.8848,3.3202-11.5024,8.2579-2.1,6.3566,1.1162,13.1861,7.3119,15.5509h.0379ZM474.1128,228.0222l-4.3701-.6716c-2.4594-.3784-5.8269-.9081-9.1565-1.2581l-9.3079-1.1067c-2.5256-.3216-4.2566-.4351-4.2661-.4351-6.9431-.577-12.9591,4.531-13.4131,11.1808-.4541,6.7444,4.5026,12.6848,11.0483,13.2334.0189,0,1.6365.1135,4.0013.4162l8.8538,1.05c3.1026.3216,6.1296.7946,8.5606,1.1729l4.2472.6527c.1892.0284.3689.0378.5486.0378,1.8351,0,3.4431-1.3905,3.7553-3.2445.1703-1.0121-.0662-2.0243-.6622-2.8472-.5108-.7094-1.2297-1.2013-2.0621-1.4189l-4.4647-.7094c-2.4026-.3784-5.6945-.8892-8.9673-1.2392l-8.9768-1.0689c-2.4405-.3122-4.1053-.4257-4.1148-.4257-1.2108-.1041-2.308-.6716-3.0931-1.6175-.7851-.9459-1.1635-2.1378-1.0595-3.3675.1987-2.3648,2.2419-4.2283,4.6539-4.2283.1324,0,.2649,0,.4162.0189.0189,0,1.6932.1135,4.162.4351l9.1943,1.0878c3.254.3405,6.5552.8513,8.9579,1.2297l4.3418.6621c2.1283.3122,4.0769-1.1256,4.4175-3.1878.1608-.9838-.0757-1.977-.6622-2.7999-.6148-.8513-1.5229-1.4094-2.5824-1.5702v.0189ZM521.9291,619.9075c-1.0784,0-2.1567.1419-3.1972.4257l-3.8877,1.1067c-1.4378.4067-3.2067.8419-5.0796,1.3054-1.1446.2838-2.3364.5865-3.5283.8892-2.5256.6622-5.4201,1.3527-8.6363,2.0338l-3.9539.8702c-1.9959.4446-3.2823,2.4878-2.8567,4.5404.4068,2.0148,2.4594,3.3675,4.4647,2.9324l4.0107-.8892c3.3769-.7189,6.262-1.4,8.816-2.0716,1.1067-.2838,2.2135-.5581,3.2918-.8324,2.0148-.5014,3.9256-.9743,5.4769-1.4189l3.9539-1.1162c.3973-.1136.8135-.1703,1.2297-.1703,2.0432,0,3.8783,1.3811,4.4742,3.3581.35,1.1635.2081,2.3931-.3784,3.4715-.6054,1.0972-1.6081,1.8918-2.8189,2.2324l-4.0485,1.1446c-1.5797.4446-3.5283.927-5.5904,1.4472-1.0973.2744-2.2324.5581-3.3675.8419-2.658.7-5.685,1.4094-8.9862,2.1189l-4.1148.9081c-2.0621.4635-3.4053,2.5161-2.9796,4.5688.3595,1.7405,1.9297,2.9986,3.7364,2.9986.2838,0,.5676-.0284.8513-.0946l4.1715-.927c3.481-.7473,6.4796-1.4472,9.166-2.1567,1.1918-.3122,2.3837-.6054,3.5377-.8892,2.0527-.5108,3.9918-1.0027,5.5809-1.4473,2.4689-.7,4.1148-1.1635,4.1148-1.1635,3.254-.8892,5.9309-2.9986,7.5295-5.9404,1.5797-2.9134,1.9013-6.2336.9081-9.3646-1.6648-5.2215-6.4417-8.7309-11.8808-8.7309l-.0095.0189ZM497.0798,257.3363l3.9539.8892c2.1189.4351,5.0891,1.1729,8.6079,2.1189l8.5795,2.2418s4.758,1.2581,4.8999,1.3054c1.6364.4446,3.131-1.1256,3.6229-2.7432.577-1.9013-.3973-3.9067-2.1851-4.6255l-4.2755-1.2959-8.7403-2.2797c-3.6607-.9838-6.6214-1.7121-8.797-2.1662l-4.0107-.8986c-2.45-.5486-4.0202-3.0269-3.4999-5.5242.4351-2.0905,2.3175-3.6134,4.4742-3.6134.35,0,.6905.0378,1.031.1135l4.1147.927c2.1851.454,5.2026,1.1919,8.9673,2.204,3.254.8513,6.5079,1.7026,8.939,2.3364l4.0391,1.2013c1.9959.5865,4.1999-.6054,4.7958-2.554.6054-2.0148-.577-4.162-2.6486-4.7864l-4.1147-1.2297-9.0903-2.3743c-2.5634-.6905-6.2431-1.6459-9.147-2.2513l-4.1621-.9365c-.927-.2176-1.8729-.3311-2.8188-.3311-5.7985,0-10.793,4.1147-11.8713,9.7997-1.2486,6.5836,2.8472,12.9402,9.3363,14.482v-.0095ZM253.7607,245.8906c-.4351,0-.8608.0662-1.277.2081-.0662.0189-6.5931,2.1851-12.9024,4.6823-6.3944,2.3175-12.6942,5.1174-12.751,5.1458-3.1215,1.2865-5.5147,3.7175-6.7349,6.8485-1.1824,3.0553-1.0689,6.4985.3121,9.4308,2.0716,4.3891,6.5269,7.2174,11.351,7.2174,1.5986,0,3.1594-.3027,4.6539-.9175.0568-.0284,5.9404-2.6391,11.928-4.8147,1.2959-.5108,2.6013-1.0121,3.8499-1.4756v-8.1444c-1.9959.7189-4.3039,1.5797-6.5836,2.4783-6.1201,2.2229-12.1361,4.8904-12.1929,4.9188-.5581.2365-1.154.3595-1.7594.3595-1.854,0-3.5472-1.1067-4.3039-2.8094-.4919-1.1067-.5203-2.3459-.0757-3.4715.4635-1.1635,1.3527-2.081,2.5351-2.5824.0568-.0284,6.2242-2.7621,12.4861-5.0323,6.1863-2.4594,12.5807-4.5688,12.647-4.5877l.3122-.1041v-.0189c1.8067-.7946,2.7526-2.8472,2.1283-4.7391-.5108-1.5419-1.977-2.5824-3.6418-2.5824l.0189-.0095Z" style="fill: #fff;"/>
  <path d="M244.8028,245.0488l21.6332,7.1795c.7567-1.5324,1.1729-3.2634,1.1729-4.9282,0-6.3188-5.1553-11.4551-11.4929-11.4551-5.5431,0-10.2159,3.8404-11.3132,9.2038Z" style="fill: #fff;"/>
  <path d="M149.7,590.1489l9.5916,2.9418,101.0527-341.6853-9.7997-3.0175-100.8446,341.761Z" style="fill: #fff;"/>
  <path d="M326.4074,628.4019l17.7076,2.6013-.804,5.4769-11.8334-1.7405-.8797,5.9593,11.1902,1.6459-.7473,5.0701-11.1902-1.6459-.9081,6.1958,11.8334,1.7405-.804,5.4769-17.7076-2.6013,4.1431-28.1695v-.0095Z" style="fill: #fff;"/>
  <path d="M346.0542,659.4659l.5297-5.6661c1.5513.8419,4.6255,1.6175,7.0944,1.854,3.481.3311,5.3539-.473,5.5525-2.5823.1514-1.6175-.8135-2.6107-2.9418-3.462l-3.1499-1.277c-4.7674-1.9202-5.6093-5.0607-5.3161-8.1822.6432-6.8485,6.1958-8.57,11.9943-8.0214,1.9013.1797,4.6728.6811,6.4322,1.5419l-.5297,5.6661c-1.5513-.9175-4.1431-1.5797-6.2904-1.7783-3.4431-.3216-5.2782.5202-5.4769,2.5918-.1513,1.6175.8135,2.6107,2.9418,3.462l3.1499,1.277c4.7674,1.9202,5.6188,5.0228,5.3161,8.1822-.6432,6.8863-6.1201,8.5795-11.9943,8.0214-1.9864-.1891-5.2404-.7378-7.3214-1.627h.0095Z" style="fill: #fff;"/>
  <path d="M369.39,633.4626l20.1576.9175-.2554,5.5242-7.1133-.3216-1.0405,22.9197-5.9309-.2744,1.0405-22.9196-7.1133-.3216.2554-5.5241Z" style="fill: #fff;"/>
  <path d="M406.3282,639.8759l-5.2499.0852-.0946-5.5337,11.1903-.1891.4824,28.4722-5.9404.104-.3878-22.9386Z" style="fill: #fff;"/>
  <path d="M421.2926,661.9348l-.35-5.7228c1.6743.7946,3.4904,1.1729,5.6093,1.0405,3.4904-.2175,6.2053-1.731,6.0539-7.4633-1.2202,1.3432-2.9229,2.1377-5.0323,2.2702-4.9093.3027-8.3052-3.235-8.6552-8.92-.3973-6.3755,3.4337-9.743,8.5889-10.0646,7.993-.4918,10.6511,6.839,11.1051,14.2267.6622,10.6794-3.6512,14.8131-11.1997,15.2766-2.0716.123-4.5215,0-6.1106-.6432h-.0095ZM432.2653,645.0785c-.5581-4.3701-1.9202-6.6877-4.3607-6.5363-1.2959.0757-3.1216.8892-2.9135,4.2945.1419,2.2702,1.0594,3.9729,3.6607,3.8121,1.3432-.0852,2.6107-.6527,3.6134-1.5703Z" style="fill: #fff;"/>
  <path d="M446.492,637.5585l-5.2215.5581-.5865-5.5053,11.124-1.1824,3.008,28.3114-5.9025.6243-2.4216-22.8156v.0095Z" style="fill: #fff;"/>
  <path d="M461.9956,658.4727l-.8324-5.5525c1.5513.4635,4.1999.5675,6.612.1986,1.731-.2554,4.5499-.927,4.1337-3.708-.3216-2.1283-2.2135-3.5283-8.3241-2.6107l-.7284-4.8242,4.9377-7.1133-9.1281,1.3716-.8229-5.4674,16.3266-2.4499.8419,5.6282-5.4863,7.5674c4.6445.2932,7.7944,2.3269,8.4754,6.8673.804,5.3445-2.4689,9.0052-9.2322,10.0173-1.8918.2838-4.8242.473-6.7728.0662v.0095Z" style="fill: #fff;"/>
  <path d="M258.3863,262.2172l3.0742-10.3862,5.5525,1.8445.2365-.4351c1.0027-1.8067,1.5513-3.9161,1.5513-5.9404,0-.3973-.0757-1.3621-.0851-1.4378-.0378-.3689-.1703-1.1067-.1703-1.1162-.8229-4.0769-3.6513-7.5106-7.5579-9.1187-1.504-.6243-3.1499-.9743-4.8715-.9743-6.2904,0-11.5781,4.5026-12.5713,10.7078l-.0757.5013,6.0066,1.9959-101.2324,343.0948,11.8618,3.6418,12.8929-43.7015,562.397-120.9643-477.0087-167.7117ZM244.7934,245.0488c1.0973-5.3634,5.7701-9.2038,11.3132-9.2038.3973,0,.7851.0189,1.1635.0568l.5013.6432c2.7999,3.5661,2.0243,7.7093-.0568,12.7983l-12.9307-4.285.0095-.0095ZM250.5351,248.3879l4.2566,1.3148-101.4121,341.5813-3.6891-1.1351,100.8446-341.7705v.0095ZM257.4214,265.4712c5.8458,39.0665,26.0696,205.7282-83.4775,282.1397l83.4775-282.1397ZM173.5088,549.4649c41.3745-29.4749,69.7616-72.6467,82.4559-135.2666,13.0159-64.2091,6.1296-126.1006,2.3553-150.7324l472.7237,166.1982-557.5349,119.8008Z"/>
  <path d="M479.76,374.3088l-5.9025,20.5927h11.6348l-21.5481,41.4219h-1.2581l-1.381-62.0145h-24.1021l5.1553,87.876h30.3735l49.0838-87.876h-42.0556Z"/>
  <path d="M369.4184,403.1783c0,10.547,4.2661,17.4522,16.5725,22.0967l6.6593,2.5067c4.6445,1.7594,7.9079,3.5188,7.9079,8.2862,0,6.9052-7.0282,8.4092-14.4348,8.4092-10.547,0-19.0792-3.0175-25.4831-6.2809l-5.7701,19.836c6.9052,4.0202,18.3225,6.1485,29.3708,6.1485,22.844,0,39.9178-9.2889,39.9178-30.7519,0-10.2916-3.8877-17.4428-16.5725-22.2197l-6.6593-2.5067c-4.2661-1.6365-7.9079-3.3959-7.9079-8.2863,0-6.7822,6.9052-8.4092,13.8104-8.4092,8.5322,0,15.4374,2.5067,20.4602,5.2688l5.7701-19.836c-6.2809-2.5067-13.9334-5.1458-24.9818-5.1458-20.7157,0-38.6598,9.0335-38.6598,30.8843Z"/>
  <path d="M329.3776,374.3088h-36.2761l-5.9025,20.5832h11.2943l-19.2022,67.2833h23.0994l7.0282-24.6034h6.9052c24.9818,0,47.069-13.3091,47.069-37.0328,0-20.2143-16.1942-26.2304-34.0153-26.2304ZM319.086,417.7454h-4.0013l6.7444-23.6007h4.0391c9.6673,0,13.9334,2.5161,13.9334,9.0335,0,9.9133-9.6673,14.5577-20.7157,14.5577v.0094Z"/>
  <path d="M359.6754,140.6475l-8.5133-26.2115-8.5228,26.2115h-27.5641l22.2953,16.2036-8.5227,26.2115,22.3048-16.2036,22.2953,16.2036-8.5228-26.2115,22.2953-16.2036h-27.5641.0189ZM484.9247,140.6475h-27.5641l-8.5133-26.2115-8.5133,26.2115h-27.5641l22.2953,16.2036-8.5133,26.2115,22.2953-16.2036,22.3048,16.2036-8.5228-26.2115,22.3048-16.2036h-.0094Z" style="fill: #bb9753;"/>
</svg>