<?xml version="1.0" encoding="UTF-8"?>
<svg id="_图层_1" data-name="图层_1" xmlns="http://www.w3.org/2000/svg" version="1.1" viewBox="0 0 800 800">
  <!-- Generator: Adobe Illustrator 29.1.0, SVG Export Plug-In . SVG Version: 2.1.0 Build 142)  -->
  <path id="path12" d="M703.7136,162.8927c-180.1519,32.3694-286.4818-91.0594-303.7092-112.8927-17.2176,21.8333-123.5573,145.272-303.7191,112.8927,0,0-45.5643,382.8488,303.7191,587.1073,349.2834-204.2585,303.7092-587.1073,303.7092-587.1073" style="fill: #cb8618; fill-rule: evenodd;"/>
  <path id="path14" d="M109.5691,178.776c-.3855,7.0472-.7314,16.4071-.7314,27.9711,0,38.7346,3.8151,100.5874,22.5845,170.6338,41.2352,153.9401,131.662,273.6328,268.5724,356.0834,136.9202-82.4506,227.3471-202.1532,268.5723-356.0834,18.7594-70.0464,22.5844-131.8992,22.5844-170.6338,0-11.564-.3361-20.924-.7215-27.9711-155.2448,20.8845-254.7844-67.5656-290.4254-106.8438-35.6311,39.2782-135.1807,127.7283-290.4254,106.8438" style="fill: #1c1b4e; fill-rule: evenodd;"/>
  <path id="path16" d="M123.9797,199.2255c.168,39.8218,4.3192,100.706,22.7723,169.5861,39.6834,148.1581,124.9312,264.7572,253.2525,347.0398,128.3213-82.2925,213.5591-198.8817,253.2524-347.0398,18.4431-68.8901,22.6042-129.7544,22.7624-169.5861-133.876,6.6617-227.2087-56.8911-276.0148-102.1885-48.8062,45.2974-142.129,108.8502-276.0148,102.1885" style="fill: #fff; fill-rule: evenodd;"/>
  <path id="path20" d="M400.0044,267.2063c-74.2668,0-134.469,60.5283-134.469,135.1905s60.2022,135.1905,134.469,135.1905,134.4591-60.5185,134.4591-135.1905-60.1923-135.1905-134.4591-135.1905h0ZM400.0044,531.5385c-70.9459,0-128.4696-57.8202-128.4696-129.1515s57.5138-129.1515,128.4597-129.1515,128.4597,57.8301,128.4597,129.1515-57.5138,129.1515-128.4597,129.1515" style="fill: #1c1b4e; fill-rule: evenodd;"/>
  <path id="path22" d="M399.5893,608.6321l2.6093,5.3076,5.8413.8599-4.2303,4.1314.9983,5.8413-5.2186-2.7576-5.2186,2.7576.9983-5.8413-4.2204-4.1314,5.8314-.8599,2.6093-5.3076h0ZM498.5656,569.8777l-6.5332-5.0111.4151-8.2431-6.7605,4.6849-7.6698-2.9355,2.3523,7.907-5.1593,6.4344,8.2134.1977,4.4873,6.9187,2.7279-7.7884,7.9367-2.1744-.0099.0099ZM449.6211,594.2017l-6.5233-5.0111.4052-8.2431-6.7605,4.6849-7.6698-2.9454,2.3523,7.907-5.1593,6.4443,8.2134.2076,4.4873,6.9187,2.7279-7.7983,7.9367-2.1646h-.0099ZM414.2371,556.3171l-1.8186,9.2216-8.589,3.7163,8.164,4.596.8698,9.3599,6.8594-6.3948,9.1228,2.0756-3.9239-8.5396,4.7739-8.0849-9.271,1.107-6.1873-7.057ZM460.7996,552.927l-8.6088,5.8413-9.6663-3.825,2.8564,10.0518-6.6024,8.0553,10.3977.3657,5.5843,8.8064,3.5582-9.8146,10.0617-2.6192-8.1937-6.4245.6227-10.4373h-.0099ZM488.6225,554.9038l-3.0244-9.1722,5.8117-7.7192-9.6268.0593-5.5053-7.9367-2.9157,9.2315-9.2018,2.807,7.8181,5.6437-.1878,9.6664,7.739-5.7227,9.0931,3.1529v-.01ZM528.3356,553.5497l-8.1838-5.0803-.4744-9.6664-7.3437,6.2565-9.2908-2.55,3.6669,8.9646-5.2779,8.0948,9.5873-.7215,6.0291,7.5512,2.2832-9.3995,8.9943-3.4395.0099-.0099ZM517.0384,517.7802l-10.378.3064-6.1477-8.4407-2.9256,10.0321-9.8739,3.2616,8.589,5.8809.0297,10.4472,8.2332-6.3751,9.8937,3.1924-3.489-9.8344,6.0785-8.4803-.0099.0099ZM539.8403,491.5684l-10.7536,4.1709-9.5379-6.553.6227,11.6036-9.1623,7.0867,11.1687,2.975,3.8745,10.9315,6.2564-9.7553,11.5542-.3262-7.2745-8.9942,3.2419-11.1489.0099.01ZM407.1701,586.8877l.0198,6.7506-5.4954,3.825,6.3751,2.046,1.9372,6.4443,3.9041-5.4658,6.6913.1483-3.9436-5.4361,2.1843-6.3355-6.3553,2.1151-5.3076-4.0919h-.0099ZM300.613,569.8777l6.5332-5.0111-.4052-8.2431,6.7605,4.6849,7.6698-2.9355-2.3425,7.907,5.1593,6.4344-8.2134.1977-4.4872,6.9187-2.7279-7.7884-7.9367-2.1744-.0099.0099ZM349.5674,594.2017l6.5332-5.0111-.425-8.2431,6.7605,4.6849,7.6698-2.9454-2.3523,7.907,5.1593,6.4443-8.2134.2076-4.4873,6.9187-2.7279-7.7983-7.9367-2.1646h.0198ZM384.9415,556.3171l1.8087,9.2216,8.589,3.7163-8.164,4.596-.8698,9.3599-6.8594-6.3948-9.1326,2.0756,3.9239-8.5396-4.764-8.0849,9.2809,1.107,6.1873-7.057ZM338.3789,552.927l8.6088,5.8413,9.6762-3.825-2.8663,10.0518,6.6123,8.0553-10.3879.3657-5.5843,8.8064-3.5582-9.8146-10.0617-2.6192,8.1937-6.4245-.6326-10.4373h0ZM310.566,554.9038l3.0244-9.1722-5.8018-7.7192,9.6268.0593,5.5053-7.9367,2.9058,9.2315,9.2018,2.807-7.8082,5.6437.1878,9.6664-7.739-5.7227-9.103,3.1529v-.01ZM270.8529,554.113l8.1838-5.0803.4744-9.6664,7.3437,6.2565,9.2908-2.5401-3.657,8.9547,5.2681,8.0948-9.5972-.7116-6.0291,7.5314-2.2832-9.3896-8.9943-3.4494h0ZM282.1599,517.7802l10.378.3064,6.1378-8.4407,2.9256,10.0321,9.8838,3.2616-8.589,5.8809-.0395,10.4472-8.2233-6.3751-9.8937,3.1924,3.4989-9.8344-6.0686-8.4803-.0099.0099ZM259.3481,491.5684l10.7536,4.1709,9.528-6.553-.6227,11.6036,9.1524,7.0867-11.1588,2.975-3.8744,10.9315-6.2762-9.7553-11.5443-.3262,7.2745-8.9942-3.2419-11.1489.0099.01ZM392.0183,586.8877l-.0297,6.7506,5.4954,3.825-6.3751,2.046-1.9372,6.4443-3.9041-5.4658-6.6815.1483,3.9338-5.4361-2.1942-6.3355,6.3553,2.1151,5.3274-4.0919h.0099Z" style="fill: #cb8618; fill-rule: evenodd;"/>
  <g>
    <path id="path24" d="M401.2992,203.9401v.2372-.2372h0ZM429.4581,216.2059c-7.1954,0-8.4408-10.0617-8.4408-10.0617,0,0-.6227,11.6332-10.3286,11.6332-8.9745,0-9.3698-11.8606-9.3797-13.61,0,1.7494-.4052,13.61-9.3896,13.61-9.696,0-10.3187-11.6332-10.3187-11.6332,0,0-1.2552,10.0617-8.4506,10.0617s-10.6448-6.2861-10.6448-6.2861l10.3286,30.2049h56.9405l10.3286-30.2049s-3.4396,6.2861-10.6448,6.2861" style="fill: #cb8618; fill-rule: evenodd;"/>
    <path id="path26" d="M406.7056,194.9854c0,2.9948-2.4215,5.4262-5.3965,5.4262s-5.4064-2.4314-5.4064-5.4262,2.4215-5.4361,5.4064-5.4361,5.3965,2.4314,5.3965,5.4361" style="fill: #cb8618; fill-rule: evenodd;"/>
    <path id="path28" d="M386.6712,198.3656c0,2.9948-2.4116,5.4163-5.3965,5.4163s-5.3965-2.4215-5.3965-5.4163,2.4215-5.4262,5.3965-5.4262c2.9849,0,5.3965,2.4314,5.3965,5.4262" style="fill: #cb8618; fill-rule: evenodd;"/>
    <path id="path30" d="M366.7355,202.8529c0,2.9948-2.4215,5.4262-5.3965,5.4262-2.9849,0-5.3965-2.4314-5.3965-5.4262s2.4116-5.4262,5.3965-5.4262,5.3965,2.4215,5.3965,5.4262" style="fill: #cb8618; fill-rule: evenodd;"/>
    <path id="path32" d="M415.9272,198.3656c0,2.9948,2.4215,5.4163,5.3965,5.4163s5.3965-2.4215,5.3965-5.4163c0-3.0047-2.4116-5.4262-5.3965-5.4262-2.975,0-5.3965,2.4314-5.3965,5.4262" style="fill: #cb8618; fill-rule: evenodd;"/>
    <path id="path34" d="M435.8727,202.8529c0,2.9948,2.4116,5.4262,5.3867,5.4262,2.9849,0,5.3965-2.4314,5.3965-5.4262s-2.4116-5.4262-5.3965-5.4262-5.3867,2.4215-5.3867,5.4262" style="fill: #cb8618; fill-rule: evenodd;"/>
  </g>
  <path id="path36" d="M400.0044,273.2354c-70.9459,0-128.4696,57.8301-128.4696,129.1516s57.5138,129.1515,128.4597,129.1515,128.4597-57.8202,128.4597-129.1515-57.5138-129.1515-128.4597-129.1515h.0099ZM400.0044,497.7557c-52.394,0-94.8647-42.6881-94.8647-95.3687s42.4707-95.3687,94.8647-95.3687,94.8548,42.698,94.8548,95.3687-42.4707,95.3687-94.8548,95.3687" style="fill: #cb8618; fill-rule: evenodd;"/>
  <path id="path38" d="M400.0044,279.393c-67.5656,0-122.3317,55.0725-122.3317,122.9939s54.776,122.9841,122.3317,122.9841,122.3317-55.0626,122.3317-122.984-54.776-122.9939-122.3317-122.9939h0Z" style="fill: #cb8618; fill-rule: evenodd;"/>
  <path id="path40" d="M400.0044,307.0281c-52.394,0-94.8647,42.698-94.8647,95.3687s42.4707,95.3688,94.8647,95.3688,94.8548-42.6881,94.8548-95.3687-42.4707-95.3687-94.8548-95.3687h0ZM400.0044,490.8271c-48.5788,0-87.9658-39.5846-87.9658-88.4303s39.377-88.4402,87.9559-88.4402,87.9559,39.5945,87.9559,88.4402-39.377,88.4303-87.9559,88.4303" style="fill: #1c1b4e; fill-rule: evenodd;"/>
  <path id="path42" d="M572.4766,299.7832c.0198.0791.0593.1581.0791.2471-.0494-.0593-.0692-.1087-.1087-.1581,0-.0297.0198-.0593.0297-.0791" style="fill: #9e3715; fill-rule: evenodd;"/>
  <path id="path44" d="M400.0044,490.8271c-48.5788,0-87.9658-39.5846-87.9658-88.4303s39.377-88.4402,87.9559-88.4402,87.9559,39.5945,87.9559,88.4402-39.377,88.4303-87.9559,88.4303" style="fill: #fff; fill-rule: evenodd;"/>
  <path id="path46" d="M484.8469,402.3869c0,47.1062-37.9933,85.3071-84.8425,85.3071s-84.8425-38.2009-84.8425-85.307,37.9933-85.2971,84.8425-85.2971,84.8425,38.191,84.8425,85.2971" style="fill: #1c1b4e; fill-rule: evenodd;"/>
  <path id="path48" d="M397.9189,331.8957c-9.0338,0-16.7135,2.4413-16.7135,2.4413l-14.1536,23.7013,15.7745,19.3821s14.5489-2.9849,34.2374,0l15.7647-19.3821-14.1536-23.7013s-7.6797-2.4413-16.7135-2.4413h-4.0425,0Z" style="fill: #fff; fill-rule: evenodd;"/>
  <path id="path50" d="M337.2324,409.6713s13.4716,2.9849,26.0043,2.9849c0,0,5.268,16.9309,17.8007,30.0863,0,0-5.3965,16.2589-8.3617,19.2339,0,0-24.5316,3.8053-36.1154-16.2589-11.5937-20.0443-3.3704-23.988.6721-36.0462" style="fill: #fff; fill-rule: evenodd;"/>
  <path id="path52" d="M326.1725,425.9104c.9489-5.5547,7.6402-18.5717,7.6402-18.5717l-.089-.5337c-1.7494-11.9199.8105-30.7584.4052-31.7072-.4052-.9488-7.5611-5.9599-7.5611-5.9599,0,0-.6721.5337-1.6704,1.9965-4.082,9.4983-6.3652,19.985-6.3652,31.0154,0,7.5907,1.0872,14.9443,3.1035,21.8926,2.214,2.5895,4.5367,1.8681,4.5367,1.8681" style="fill: #fff; fill-rule: evenodd;"/>
  <path id="path54" d="M337.0446,370.6303s10.5164-11.5245,24.1263-13.5507c0,0,10.9216-16.6641,14.5489-23.1775,0,0-4.6454-5.357-6.8001-6.8989-15.8734,6.3454-29.1868,17.7809-37.9142,32.3101-1.4826,2.6192-2.1843,4.2599-2.1843,4.2599,0,0,3.4989,4.8826,8.2233,7.0472" style="fill: #fff; fill-rule: evenodd;"/>
  <path id="path56" d="M416.9156,382.817s14.0251,22.367,15.2309,27.7735c0,0-3.9041,14.7763-17.3856,28.999,0,0-5.2186.4349-11.317.6622v.1384c-1.1465,0-2.3326,0-3.5087-.0395-1.1663.0297-2.3425.0395-3.4989.0395v-.1384c-6.1181-.2372-11.3268-.6622-11.3268-.6622-13.4716-14.2327-17.3856-28.999-17.3856-28.999,1.2157-5.4163,15.2309-27.7735,15.2309-27.7735,0,0,10.5065-1.6012,18.8286-1.6012s15.1321,1.6012,15.1321,1.6012" style="fill: #fff; fill-rule: evenodd;"/>
  <path id="path58" d="M462.6479,409.6713s-13.4716,2.9849-26.0043,2.9849c0,0-5.2582,16.9309-17.7908,30.0863,0,0,5.3965,16.2589,8.3617,19.2339,0,0,24.5217,3.8053,36.1253-16.2589,11.5739-20.0443,3.3605-23.988-.6919-36.0462" style="fill: #fff; fill-rule: evenodd;"/>
  <path id="path60" d="M473.7079,425.9104c-.939-5.5547-7.65-18.6211-7.65-18.6211l.0988-.4843c1.7593-11.9199-.8105-30.7584-.3953-31.7072.3953-.9488,7.5413-5.9599,7.5413-5.9599,0,0,.682.5337,1.6901,1.9965,4.082,9.4983,6.3553,19.985,6.3553,31.0154,0,7.5907-1.0773,14.9443-3.0936,21.8926-2.214,2.5895-4.5367,1.8681-4.5367,1.8681" style="fill: #fff; fill-rule: evenodd;"/>
  <path id="path62" d="M462.0845,369.5431s-9.9925-10.9414-22.9304-12.8687c0,0-10.378-15.8338-13.8274-22.0112,0,0,4.4181-5.0901,6.464-6.553,15.0728,6.0291,27.724,16.8914,36.0165,30.6892,1.4134,2.4808,2.0855,4.0524,2.0855,4.0524,0,0-3.3308,4.6355-7.8082,6.6913" style="fill: #fff; fill-rule: evenodd;"/>
  <path id="path64" d="M374.4943,466.9676c-10.2396-.1285-24.9368-4.3291-24.9368-4.3291l.1285,3.5878c13.0268,10.7141,29.6118,17.2274,47.6893,17.5239v-5.2878c-10.2396-.8105-22.8909-11.485-22.8909-11.485" style="fill: #fff; fill-rule: evenodd;"/>
  <path id="path66" d="M450.3327,462.6287s-14.6873,4.2006-24.9467,4.339c0,0-12.5919,10.6349-22.8217,11.485v5.2977c18.0577-.3262,34.613-6.8198,47.63-17.524l.1483-3.5878-.0099-.0099Z" style="fill: #fff; fill-rule: evenodd;"/>
  <path id="path68" d="M575.0958,414.6033c-.0791-2.9058-.3657-6.1873-1.0081-9.8838-3.4396-20.1036-19.906-31.0154-19.906-31.0154-1.1564-3.1628.9983-8.8065,1.4727-13.3234h.0099c.6029-3.232-.593-5.4756-2.2337-7.3437-.9587-1.1268-2.0855-2.125-3.0936-3.0738-2.7081-2.6192-3.4198-5.525-2.1646-7.2448,1.2552-1.7099,6.7111,3.6867,13.5803,5.7919,5.9204,1.8186,8.7768-1.7297,8.7768-1.7297-5.8907,2.5302-18.3344-8.2826-9.6663-11.0797,9.103-2.9355,8.7175,7.2349,8.7175,7.2349,3.2518-8.0652-2.7081-8.9745-5.1593-10.7041-2.4808-1.7396-.0791-7.7686,5.8413-5.1297,5.9303,2.6488,8.3518,1.9768,8.3518,1.9768,4.5268-.2076,3.5186-.3163,6.9582-.6326,2.8564-.2767,2.55,3.0442,2.55,3.0442,5.8512-9.3105-7.8971-6.6913-7.8971-6.6913-5.2384.089-3.7657-4.5466-3.7657-4.5466.2965-2.1646.9093-2.8366.9093-2.8366,1.2849-2.2436,3.9239.85,11.653-1.8186,4.4378-1.532,4.7541-4.0524,4.7541-4.0524-13.2146,6.1675-12.7007-4.6059-12.6018-5.6832.1087-1.0773,1.3145-2.55,4.1611-3.5878,2.8366-1.0477,5.9402-4.7442,5.9402-4.7442,1.4332-1.7396,2.6192,1.2157,1.1663,3.6274s-1.8186,8.9547,4.1413,8.4803c5.5745-.4546,6.3059-10.3088,6.3948-12.5821-.1977,2.4018-2.2634,10.6745-5.8117,9.5181-3.8349-1.2552-.3163-6.0093-.3163-6.0093,2.6291-4.4576,2.6488-8.0256.6029-10.546-2.046-2.5204-6.4047-2.3029-8.8164.4546-2.4018,2.7378-3.7756,3.5977-5.3669,2.293-1.5814-1.3047.9192-3.0936,2.0756-3.1925,1.1465-.0988,2.0657-3.6768,2.3128-5.1791.2372-1.5122.761-2.6884,2.1151-3.6175,1.3442-.9291,4.2896-6.721,6.8001-3.2023,2.5302,3.5087,2.8861,6.6913,2.8861,6.6913,1.7495-15.9525-12.3053-11.6431-12.3053-11.6431,3.6768-7.0175-1.8977-10.5262-1.8977-10.5262,1.1268-10.4076-7.7785-13.6396-7.7785-13.6396,1.8285,1.018,9.1326,7.5314,5.8018,10.7931-3.3209,3.2518-8.8559-.2372-8.8559-.2372.5732-6.5233-2.8169-9.2414-2.8169-9.2414-4.8431-1.107-13.2443,6.889-13.2443,6.889,0,0-2.9355-1.5221-11.3664.2965s-18.374,4.1216-21.0525,4.4576c-2.6884.3459-6.8989-1.0872-8.3617-.8105-1.4727.2767-4.2698,1.3837-4.7245,4.4477-.4645,3.064-1.5122,8.7966,2.2634,12.1472,3.7756,3.3407,6.0687,1.9175,8.0454,1.5616,0,0,3.4791-1.4826,4.7739-.8895,1.3145.593,11.4059,5.1989,13.1949,7.5809,1.789,2.3919.3855,3.4297-2.7872,5.2285-3.1727,1.789-10.2099,5.4163-15.6164,7.0867-5.4262,1.6605-11.4949,2.5895-13.5013,4.7442,0,0-.0198.0099-.0198.0198-.8006.6326-1.5221,1.4035-2.1448,2.3721-.8797,1.364-1.9372,2.2832-3.0738,2.8169-3.143-4.171-5.8314-8.2332-7.4623-10.3483-2.0657-2.6686-3.7657-3.825-7.2646-2.7081-.9983-.1878-2.1744-.0692-3.657.4448-1.8977.6721-3.3901,3.8448-5.9698,3.9239-.5831.1581-4.3093,3.7262-5.7326,8.4012-1.4332,4.6652-3.5285,8.935-5.1494,12.7007-1.621,3.7756-1.6012,11.0896-1.6012,11.0896-1.5221,3.9832,3.568,12.8094,3.568,12.8094,0,0,1.3442-.8599,2.4808-1.7791.4546.8797.7709,1.4233.7709,1.4233,0,0,2.807-1.7692,3.7262-2.9552.9093-1.1861,1.5122-2.4314,3.6965-3.4989,2.1744-1.0477,3.4-3.3506,3.3209-3.9733-.0791-.6029-3.3111-3.489-3.3111-3.489-4.428-5.614-3.1035-10.3879-2.4709-13.1454.6326-2.7675,3.4396-9.953,3.4396-9.953.6424-1.1465,1.4925-2.0855,2.3721-2.7081.0395.0297.089.0395.1285.0988,2.7081,2.8959,3.5779,7.5809,4.7245,13.4222.2174,4.0227,1.5419,10.4373,4.171,14.6379,2.8663,4.5663,1.3541,11.1193,1.3541,11.1193-5.9006,29.2461,17.5931,45.8806,24.4228,55.3097,6.8198,9.4291-.1581,13.6001-6.2564,24.2845-5.7227,10.0123,3.0738,26.706,6.2169,34.9787.8401,3.1529,1.7099,6.4047,2.3029,8.2925,1.789,5.7227,2.4512,6.3256.939,9.271-1.5122,2.9355-18.7693,11.2181-23.6124,13.5012-4.8628,2.2733-7.1262,6.1181-7.1262,6.1181-6.3849,6.3158-7.057,18.7693-7.057,18.7693,5.6338-4.1611,12.5228-5.3867,12.5228-5.3867,2.7477-2.6488,1.6605-9.3896,1.6605-9.3896,3.143-.8599,9.3303-7.3634,15.9722-11.4158,6.6518-4.0622,17.3065-4.2698,20.074-4.6256,2.7971-.3459,3.2518-1.789,2.3523-6.7111-.5436-2.9256-.2669-10.4966.0494-15.0431,2.9849,4.1413,4.3785,9.864,7.8477,15.1914,5.6733,8.7373,5.8512,14.5786,5.6733,18.7298-.1977,4.1512-5.2483,20.4002-6.2169,23.474-.9785,3.0837-5.9797,5.8611-5.9797,5.8611-5.8907,2.1448-7.6303,8.5791-7.6303,8.5791,1.6111,1.9175,11.7321.3361,11.7321.3361,1.7198.3163,4.2105-1.5419,4.2105-1.5419.4942-4.3291,3.2419-8.4506,7.4128-12.0978,4.1907-3.6372.8599-10.2989,1.7-20.6077.85-10.3088,4.0425-12.9576,5.4954-14.7763,1.443-1.8285,2.1151-4.7245-.3657-7.2844-2.4808-2.5698-5.3471-6.2762-7.7588-15.4088-2.3919-9.1425,4.596-9.3204,5.1791-13.096.593-3.7954,11.6234-4.3093,13.5309-17.3658,0,0,1.1268-2.046,1.9274-6.2169,2.0262-.0494,2.975,1.0081,2.7477,6.3355-.257,5.9303,1.0477,7.3239,2.6488,8.0849s3.5384.939,6.5629,2.7773c3.0343,1.8483.2273,6.7506-1.7494,8.4012s-5.3175,1.2552-7.8378,3.746c-2.5204,2.5006,1.4332,6.9187,3.1628,9.0041,1.7396,2.0756,1.3047,2.8959.4151,4.5169-.8797,1.6308-3.4593,2.8861-3.2616,6.8001.3459,7.2646,6.9285,8.4803,12.1076,9.014,4.0919.425,4.3291,3.1035,4.2599,4.2105.9093-6.6123-3.3605-7.9367-5.1-8.3715-1.789-.4645-6.0291-.1977-6.4245-3.6471-.5535-4.6652,3.4494-6.1576,5.0803-6.7111,1.6407-.5436,2.9552-1.4727,1.6605-3.8745-1.2948-2.4018-.6227-3.6471.2471-4.3489.85-.7116,1.0279-.1285,1.0279-.1285,0,0,.5337-.682.5732-2.5895.0395-1.8878,1.5221-2.9948,2.9454-2.9651,1.4134.0198,2.639.9884,3.1925-.4448,0,0-.7413-4.9913,2.6093-5.4657,4.5663-.6424,1.2849,4.3588,1.2849,4.3588,0,0,3.4494-1.3739,1.6407-4.4181-2.5105-4.2006-2.3029-7.3437-.5733-8.6088,1.7396-1.2454,4.5169-2.1843,5.6239-7.0669,1.107-4.8925-4.1907-5.7425-5.8117-8.421-1.6111-2.6686,2.9948-4.4181,2.9948-4.4181-3.1331-4.6059-9.6762-2.5204-12.5623-1.2948-2.8959,1.2157-7.6995.336-5.8809-2.4018,1.7989-2.7477,5.8117-1.8384,5.8117-1.8384-4.0622-4.0128-9.3995-1.7791-12.3745-.6128-2.0361.8006-2.9849,1.9867-4.2896,2.4907l.0198-2.4215v-.0496Z" style="fill: #1e0e59; fill-rule: evenodd;"/>
  <path id="path70" d="M225.6444,424.922c.8006,4.171,1.9273,6.2169,1.9273,6.2169,1.9076,13.0565,12.9379,13.5705,13.5309,17.3658.5733,3.7756,7.571,3.9535,5.1791,13.096-2.4018,9.1425-5.2681,12.8391-7.7489,15.4088-2.4907,2.55-1.8087,5.4559-.3657,7.2844,1.443,1.8088,4.6355,4.4675,5.4855,14.7763.8401,10.3088-2.4907,16.9705,1.7,20.6077,4.171,3.6372,6.9285,7.7686,7.4128,12.0978,0,0,2.4907,1.8582,4.2204,1.5419,0,0,10.1111,1.5913,11.7222-.3361,0,0-1.7494-6.4344-7.6402-8.5791,0,0-5.0012-2.7773-5.9797-5.8611-.9785-3.0738-6.0192-19.3129-6.2169-23.474-.1977-4.1512,0-9.9925,5.6733-18.7298,3.4593-5.3274,4.8529-11.0501,7.8378-15.1914.3262,4.5466.593,12.1175.0593,15.0431-.8994,4.9221-.4448,6.3652,2.3425,6.7111,2.7773.3558,13.4321.5634,20.074,4.6256,6.6518,4.0622,12.8489,10.5658,15.9821,11.4158,0,0-1.0872,6.7408,1.6605,9.3896,0,0,6.889,1.2256,12.5228,5.3867,0,0-.682-12.4536-7.057-18.7693,0,0-2.2634-3.8547-7.1163-6.1181-4.8529-2.2832-22.1002-10.5559-23.6124-13.5012-1.5122-2.9454-.8599-3.5483.939-9.271.5831-1.8878,1.4628-5.1396,2.293-8.2925,3.143-8.2727,11.9396-24.9665,6.2169-34.9788-6.0983-10.6745-13.0664-14.8553-6.2564-24.2845,6.8297-9.4291,30.3235-26.0636,24.413-55.3097,0,0-1.5023-6.553,1.364-11.1193,2.6291-4.1907,3.9535-10.6053,4.171-14.6379,1.1465-5.8413,2.0064-10.5262,4.7245-13.4222.0297-.0593.089-.0593.1186-.0988.8797.6326,1.7395,1.5715,2.3721,2.7081,0,0,2.807,7.1954,3.4396,9.953s1.9669,7.5314-2.4611,13.1454c0,0-3.232,2.8762-3.3111,3.489s1.1564,2.9157,3.321,3.9733c2.1843,1.0674,2.7872,2.3227,3.6965,3.4989.9093,1.1861,3.7163,2.9552,3.7163,2.9552,0,0,.3163-.5436.7709-1.4233,1.1366.9192,2.4808,1.7791,2.4808,1.7791,0,0,5.0803-8.8262,3.5681-12.8094,0,0,.0198-7.314-1.6012-11.0896-1.6209-3.7756-3.7262-8.0355-5.1495-12.7007-1.4233-4.675-5.1396-8.2431-5.7326-8.4012-2.5895-.0791-4.0721-3.2419-5.9797-3.9239-1.4826-.5139-2.6488-.6424-3.6471-.4448-3.5087-1.107-5.2088.0395-7.2646,2.7081-1.6209,2.1151-4.3093,6.1774-7.4623,10.3483-1.1268-.5337-2.1942-1.4529-3.064-2.8169-.6227-.9686-1.3442-1.7396-2.1448-2.3721,0-.0099,0-.0198-.0198-.0198-2.0064-2.1448-8.0751-3.0837-13.5013-4.7442-5.4163-1.6704-12.4536-5.2878-15.6263-7.0867-3.1628-1.7989-4.5663-2.8366-2.7773-5.2285,1.7791-2.382,11.8803-6.9878,13.185-7.5809,1.3047-.593,4.7739.8895,4.7739.8895,1.9768.3558,4.2797,1.7791,8.0454-1.5616,3.7855-3.3506,2.7378-9.0832,2.2634-12.1472-.4547-3.0541-3.2518-4.171-4.7245-4.4477-1.4628-.2767-5.6733,1.1564-8.3617.8105s-12.6216-2.6488-21.0624-4.4576c-8.4309-1.8186-11.3565-.2965-11.3565-.2965,0,0-8.4111-7.9861-13.2542-6.889,0,0-3.3901,2.7279-2.8169,9.2414,0,0-5.5349,3.489-8.8559.2372s3.9733-9.7652,5.8117-10.7931c0,0-8.9053,3.232-7.7785,13.6396,0,0-5.5646,3.5087-1.8977,10.5262,0,0-14.0548-4.3192-12.2954,11.6431,0,0,.3558-3.1826,2.8861-6.6913,2.5204-3.5087,5.4657,2.2832,6.8099,3.2023,1.3442.9291,1.8779,2.1053,2.1151,3.6175.2471,1.5023,1.1762,5.0803,2.3227,5.1791,1.1465.1087,3.657,1.8977,2.0657,3.1925-1.5913,1.3047-2.9553.4448-5.3669-2.293-2.4018-2.7576-6.7803-2.975-8.8163-.4546-2.0361,2.5204-2.0163,6.0785.593,10.546,0,0,3.5285,4.7541-.3064,6.0093-3.5483,1.1564-5.614-7.1163-5.8117-9.5181.0988,2.2733.8204,12.1274,6.4047,12.5821,5.9599.4843,5.5942-6.0687,4.1413-8.4803-1.4529-2.4116-.2669-5.3768,1.1663-3.6274,0,0,3.1035,3.7064,5.9402,4.7442,2.8465,1.0378,4.0524,2.5105,4.1611,3.5878.0988,1.0773.6128,11.8507-12.6018,5.6832,0,0,.3262,2.5204,4.764,4.0524,7.7192,2.6785,10.3582-.4151,11.6431,1.8186,0,0,.6128.6721.9093,2.8366,0,0,1.4727,4.6454-3.7657,4.5466,0,0-13.7484-2.6192-7.8971,6.6913,0,0-.3163-3.3209,2.5401-3.0442,3.4494.3262,2.4215.425,6.9681.6326,0,0,2.4116.6721,8.3419-1.9768,5.9204-2.639,8.332,3.3901,5.8512,5.1297-2.4709,1.7297-8.421,2.639-5.1692,10.7041,0,0-.3855-10.1704,8.7175-7.2349,8.6681,2.7971-3.7558,13.61-9.6663,11.0797,0,0,2.8663,3.5483,8.7867,1.7297,6.8692-2.1151,12.3251-7.5117,13.5803-5.7919,1.2651,1.7198.5535,4.6256-2.1646,7.2448-1.0082.939-2.125,1.9372-3.0936,3.0738-1.6407,1.8681-2.8268,4.1216-2.2337,7.3437h.0099c.4843,4.5268,2.639,10.1704,1.4727,13.3234,0,0-16.4565,10.9117-19.906,31.0154-.6326,3.7064-.9192,6.978-1.0082,9.8838l.0198,2.4215c-1.3145-.5041-2.2634-1.6901-4.2896-2.4808-2.975-1.1762-8.3222-3.4-12.3745.6128,0,0,4.0227-.9093,5.8314,1.8384,1.8087,2.7378-3.0047,3.6175-5.8907,2.4018-2.8861-1.2256-9.4193-3.3111-12.5623,1.2948,0,0,4.6157,1.7494,2.9948,4.4181s-6.9187,3.5285-5.8117,8.421c1.107,4.8727,3.8942,5.8216,5.6239,7.0669,1.7297,1.2651,1.9372,4.4082-.5634,8.6088-1.8186,3.0442,1.6209,4.4181,1.6209,4.4181,0,0-3.2715-5.0111,1.2948-4.3588,3.3506.4744,2.6192,5.4657,2.6192,5.4657.5535,1.443,1.7791.4744,3.2023.4448,1.4233-.0297,2.9058,1.0674,2.9355,2.9651.0297,1.9076.5733,2.5895.5733,2.5895,0,0,.1779-.5732,1.0378.1285.8698.7017,1.532,1.9471.2372,4.3489-1.2849,2.4018.0198,3.3407,1.6605,3.8745,1.6308.5535,5.6338,2.046,5.0803,6.7111-.4052,3.4494-4.6355,3.1826-6.4344,3.6471-1.7395.4349-6.0192,1.7593-5.1,8.3715-.0791-1.107.168-3.7855,4.25-4.2105,5.189-.5337,11.7617-1.7495,12.1175-9.014.1878-3.914-2.3919-5.1692-3.2715-6.8001-.8797-1.621-1.3244-2.4413.425-4.5169,1.7395-2.0954,5.6931-6.5035,3.1628-9.0041-2.5302-2.4907-5.8611-2.0855-7.8378-3.746-1.9768-1.6506-4.7838-6.5431-1.7593-8.4012,3.0343-1.8384,4.9715-2.0163,6.5628-2.7773,1.6111-.761,2.9058-2.1448,2.6489-8.0849-.2273-5.3274.7215-6.3849,2.7477-6.3355" style="fill: #1e0e59; fill-rule: evenodd;"/>
  <path id="path72" d="M321.6951,492.6062l-2.7378,2.5994-4.4477-4.6948-.9686-1.0279-.3558-.3756-.2866-.2965-.2372-.2471-.1878-.1977-.1581-.168-.1285-.1384-.1087-.1087c-.1186-.1186-.2174-.2372-.2965-.3558-.089-.1186-.1483-.2273-.1878-.3459-.1779-.1878-.336-.3954-.4744-.6227-.1384-.2372-.3262-.5733-.5634-1.0279-.939-1.7692-.9291-3.7361.0198-5.8809.3558-.8006.8401-1.6111,1.443-2.4215.6029-.8204,1.3145-1.621,2.1448-2.4018,2.9157-2.7675,5.5547-4.1512,7.9367-4.1512,2.0262,0,3.9436.9686,5.7623,2.8861,1.2058,1.275,1.9866,2.6192,2.3425,4.0425.1087.4349.1779.8698.1977,1.3146.0297.4349,0,.8698-.0791,1.2948-.1483.85-.4942,1.7593-1.0576,2.718-.8698,1.5221-1.9372,2.8861-3.2122,4.0919-1.9471,1.8483-4.0721,2.975-6.375,3.3901l2.0262,2.1349-.0099-.01ZM325.2928,476.0805c-1.0378-1.0971-2.2239-1.532-3.5384-1.2948-1.3244.2372-2.8268,1.1564-4.507,2.7576-1.4529,1.3838-2.4611,2.6686-3.0343,3.8645-.7512,1.6012-.4744,3.0738.8105,4.4279,1.2058,1.2652,2.5895,1.6407,4.1413,1.107,1.1959-.4151,2.5895-1.3739,4.171-2.8762,1.4233-1.3541,2.3721-2.6884,2.8564-4.0128.5238-1.4727.2273-2.807-.8895-3.9733h-.0099ZM323.6916,498.6946l18.1269-13.0861,3.4396,2.4611-6.5134,21.3885-3.4989-2.5006,1.5023-4.9716-5.3372-3.8151-4.2204,3.0244-3.5087-2.5006h.0099ZM340.6127,490.9754l-6.3256,4.6058,4.0029,2.8564,2.3227-7.4623h0ZM351.7715,506.5522l-3.3308,7.3338-3.3407-1.5221,8.7669-19.2932,7.6599,3.4791c2.1942.9983,3.568,2.0361,4.1413,3.1233.3756.7018.5535,1.5221.5337,2.4413-.0198.9291-.2372,1.8384-.6424,2.7477-.8302,1.8285-1.8582,3.0738-3.064,3.7163-.7215.3657-1.5518.5535-2.4907.5337.2471.2669.4546.514.6227.7512s.2965.4744.3855.7116c.168.4349.2471.9983.2471,1.7198-.0198.4942-.089.9983-.1977,1.5122-.0692.2866-.1483.6029-.257.9489-.1087.3459-.2372.6919-.3953,1.0378-.2866.6326-.5139,1.2355-.682,1.8186-.1186.3954-.2076.8204-.2669,1.2553l-3.746-1.7c.089-.5041.3756-1.4134.8401-2.718.4744-1.3146.7215-2.3128.7314-2.9948.0395-.6919-.1087-1.3343-.4448-1.9076-.4151-.6622-1.2058-1.2652-2.3721-1.789l-2.6884-1.2256-.0099.0197ZM353.3331,503.1226l4.675,2.125c.7709.3558,1.3936.4645,1.8582.3361.6919-.1977,1.275-.8303,1.7593-1.8878.5337-1.1663.5041-2.0855-.0988-2.7675-.2076-.2273-.6029-.4843-1.2058-.7512l-4.675-2.125-2.3128,5.0803v-.01ZM365.3321,520.5477l11.742-19.0263,4.1216.9587,2.1646,22.2484-4.1907-.9785-.5139-5.1692-6.3849-1.4826-2.7378,4.4082-4.1907-.9785-.01.0197ZM378.0031,506.9476l-4.082,6.6716,4.7838,1.107-.7116-7.7884.0099.0099ZM390.4962,525.0152l.5436-21.181,9.7355.2471c1.532.0395,2.6291.2768,3.3111.7215.7907.514,1.3739,1.3541,1.7692,2.5105.2767.7907.3953,1.6111.3756,2.4611-.0297,1.0872-.2866,2.0954-.7808,3.0343s-1.107,1.5814-1.8483,1.9372c1.6407.9785,2.4314,2.6686,2.3721,5.0506-.0395,1.364-.3262,2.5204-.8797,3.4593-.4744.8006-1.0872,1.3343-1.8186,1.621-.7413.2866-1.8186.4151-3.2419.3756l-9.528-.2471-.0099.0099ZM394.4794,512.611l4.9913.1285c.5139.0099.8895,0,1.1268-.0692.2471-.0494.4744-.1878.7116-.3954.5535-.4942.8401-1.1861.8599-2.0657.0198-.8303-.2174-1.4727-.7017-1.9076-.3657-.2965-.9587-.4547-1.7989-.4843l-5.0704-.1285-.1285,4.9122.0099.01ZM394.2619,521.3285l4.9913.1285c.5139.0099.8895,0,1.1366-.0692.2471-.0494.4843-.1878.7017-.3954.5535-.4942.8401-1.1861.8599-2.0855.0198-.8303-.2174-1.4727-.7017-1.9175-.3657-.2965-.9587-.4547-1.7989-.4744l-5.0704-.1285-.1285,4.9419h.0099ZM411.5882,525.2623l3.2814-22.1199,4.1611-.7512,10.7635,19.5996-4.2402.7611-2.5105-4.5465-6.4541,1.1564-.7709,5.1297-4.2402.7611.0099.0098ZM417.8743,507.768l-1.1169,7.739,4.8332-.8698-3.7262-6.8692h.0099ZM437.039,506.4831l7.8873-3.1233,4.6454,11.7024-7.1658,2.8366c-1.275.5041-2.3128.7907-3.1233.8401-.8006.0494-1.6111-.089-2.4215-.4151-2.3128-.9192-4.2402-3.3308-5.7919-7.2448-1.0081-2.55-1.4529-4.8233-1.3244-6.8396.0988-1.4628.5535-2.6884,1.3541-3.6669.8006-.9785,2.0163-1.7989,3.657-2.4413l6.9977-2.7773,1.3936,3.5087-6.6123,2.6192c-1.4233.5634-2.3128,1.3541-2.6587,2.3919-.3953,1.2058-.1384,2.975.7907,5.3076.4843,1.2058,1.0081,2.2535,1.5814,3.1233.5732.8797,1.1366,1.4925,1.6803,1.8384.4744.3163,1.018.4547,1.6407.4448.6128-.0099,1.3145-.168,2.1151-.4843l3.0837-1.2256-1.8582-4.6849-4.4675,1.7692-1.3936-3.5087-.0099.0296ZM467.234,490.1846l2.046,3.1727-8.6286,5.5547,4.7442,7.3535-3.0837,1.9867-5.9995-9.3006c-.8599-1.3245-1.5122-2.4611-1.9669-3.4s-.7215-1.7-.8006-2.2733c-.257-1.4529-.0791-2.7378.5337-3.8547.6128-1.107,1.7692-2.2041,3.4593-3.3012l5.0111-3.232,2.046,3.1727-4.6059,2.975c-.682.4448-1.2454.85-1.6605,1.2256-.425.3855-.7017.7116-.8203.9785-.2767.4645-.3657.9884-.2866,1.5913.0791.593.3459,1.2454.7907,1.9372l.6128.9489,8.6286-5.5547-.0198.0197ZM467.9061,477.9881l14.6577,15.3001-2.6488,2.5401-14.6577-15.3001,2.6488-2.5401ZM475.2201,485.4701l-2.4611-12.1274,3.489-3.3407,2.046,12.5326,12.3745,2.9948-3.4989,3.3506-11.9396-3.4099h-.0099Z" style="fill: #fff;"/>
  <path id="path74" d="M376.7874,301.9083l-2.975.6919-2.975-12.8292-2.4709,4.2006-1.2157-3.9436,2.6884-4.5663,2.975-.6919,3.9733,17.1385h0ZM392.384,292.2716l-4.8035.3657c-1.0773.0791-1.8977.0791-2.4314,0-.5436-.089-.9983-.3064-1.3837-.6523-.9983-.8599-1.5616-2.1349-1.6901-3.825-.1483-1.9768.4349-3.5384,1.7692-4.7146.8302-.7116,2.1448-1.1366,3.9535-1.275,1.2849-.0988,2.3227-.0395,3.143.1779.8105.2076,1.532.6227,2.1547,1.2355.761.7709,1.3739,1.8186,1.8285,3.1628.4052,1.2256.6622,2.4808.761,3.7657.1483,1.9471-.0395,3.7361-.5831,5.3768-.5337,1.6308-1.4628,2.7279-2.7872,3.2814-.7215.3064-1.8087.5139-3.2616.6227l-5.268.4052-.2372-3.0936,4.3588-.336c1.9372-.1483,3.1628-.4744,3.657-.9686.3163-.3163.5436-.7907.6919-1.4233.1483-.6227.1977-1.3244.1285-2.1053h0ZM392.1468,289.1681c-.0988-1.2849-.3855-2.2832-.85-2.9849-.3064-.4645-.7017-.7808-1.1861-.939-.4843-.168-1.1762-.2174-2.0756-.1483-1.0279.0791-1.7198.2767-2.0657.593-.4546.425-.6424,1.0477-.5831,1.8681.0593.7314.336,1.2849.8203,1.6605.3163.2471.8698.336,1.6407.2767l4.2896-.3262h.0099ZM405.0056,290.5221c-.7215-.6227-1.2256-1.2849-1.5023-1.957-.2767-.6721-.3855-1.4826-.3064-2.4413.1581-2.0657,1.0378-3.4,2.6291-4.0029.6721-.2471,2.0558-.2965,4.1512-.1285.6721.0494,1.2849.1087,1.8186.168.5436.0692,1.0279.1186,1.4529.168.2965.0198.5535.0692.8006.1581.2372.089.4744.1977.7116.336.761.4448,1.3145,1.1564,1.6506,2.1547.2471.761.3459,1.5616.2767,2.4116-.1384,1.8779-.9785,3.1628-2.5105,3.8547.6128.4843,1.0378.939,1.275,1.3739.4349.8006.6128,1.7396.5238,2.8268-.0988,1.2849-.5831,2.4018-1.4628,3.3605-.425.4744-1.0279.7907-1.8087.9291-.3558.0593-.8302.0988-1.4134.0988s-1.2552-.0198-2.0064-.0791c-.4546-.0395-.8105-.0692-1.0872-.0988-1.0773-.1186-1.6605-.1779-1.7198-.1878-.6424-.0494-1.2157-.2076-1.6901-.4546-.4843-.257-.8895-.6029-1.2355-1.0378-.7709-1.0279-1.107-2.1843-1.0081-3.489.0791-1.0576.3953-1.957.939-2.6884.2965-.4052.8006-.8302,1.5122-1.2651h0l.0098-.0099ZM410.0661,284.9576c-1.2355-.089-2.0361-.0791-2.4215.0494-.682.2273-1.0674.8599-1.1465,1.8779-.089,1.1169.2174,1.8285.9192,2.125.1087.0395.3558.0988.7512.1581.3855.0593.9093.1186,1.5814.1779.3855.0297.761.0494,1.1268.0692.3657.0198.6523.0198.8401.0099.1977,0,.3855-.0494.5732-.1087.6227-.2372.9587-.85,1.0378-1.8384.089-1.1169-.257-1.8384-1.0378-2.1744-.336-.1483-1.0773-.2669-2.2239-.3459h0ZM409.483,292.232c-1.2552-.0988-2.0657-.0692-2.4314.0791-.6622.2471-1.0378.8895-1.1169,1.9372-.089,1.1564.2076,1.8878.8797,2.1942.1087.0395.3558.089.7512.1581.3855.0692.9093.1186,1.5715.168.3756.0297.7413.0494,1.107.0692.3558.0198.6424.0198.85.0099.2076-.0099.3855-.0494.5535-.1285.6128-.2372.9488-.8797,1.0378-1.9175.089-1.1366-.2471-1.8878-1.0081-2.2337-.336-.1483-1.0674-.2669-2.1843-.3459h0l-.0099.0099ZM438.0867,287.725l-.8599,3.0047-12.335,11.5245-3.5779-1.018,12.6315-11.4553-8.7175-2.4907.85-2.9849,12.0088,3.4297v-.0099Z" style="fill: #fff;"/>
  <path id="path76" d="M430.7134,494.7015l1.8285-.6227c.5535.9093,1.3343,1.1861,2.3523.8401.9884-.3361,1.4332-1.0378,1.3343-2.0954l1.8285-.6227c.2273.8698.2669,1.6407.1186,2.3128-.2767,1.3146-1.1268,2.214-2.5401,2.6983-1.0576.3558-2.0262.3163-2.9058-.1087-.4546-.2372-.85-.5436-1.1959-.939s-.6227-.8797-.8105-1.4628" style="fill: #fff;"/>
</svg>