<?xml version="1.0" encoding="UTF-8"?>
<svg id="_图层_1" data-name="图层_1" xmlns="http://www.w3.org/2000/svg" version="1.1" viewBox="0 0 800 800">
  <!-- Generator: Adobe Illustrator 29.1.0, SVG Export Plug-In . SVG Version: 2.1.0 Build 142)  -->
  <g id="Logos">
    <g>
      <polygon points="399.2513 311.9487 404.4615 327.9692 421.3026 327.9692 407.6615 337.8769 412.8718 353.8974 399.2513 343.9898 385.6103 353.8974 390.8205 337.8769 377.2 327.9692 394.041 327.9692 399.2513 311.9487" style="fill: #ffd905;"/>
      <path d="M285.118,287.8256c53.6-16.1846,97.6205-17.9282,114.1128-17.9282s60.5128,1.7436,114.1128,17.9282c.6564.2051,1.3744-.1846,1.559-.841.041-.1231.0615-.2462.0615-.3692,0-.5333-.3692-1.0462-.9026-1.2102-53.9282-16.2667-98.2154-18.0308-114.8308-18.0308s-60.9026,1.7641-114.8308,18.0308c-.5333.1641-.9026.6769-.9026,1.2102,0,.1231,0,.2462.0615.3692.2051.6564.9026,1.0462,1.559.841h0Z" style="fill: #ffd905;"/>
      <path d="M506,322.2257c-50.2359-14.0718-90.9744-15.6923-106.7487-15.6923s-56.5128,1.6-106.7487,15.6923c-.6359.1846-1.0462.841-.9026,1.4974.1231.5949.6564,1.0051,1.2308,1.0051.1026,0,.2051,0,.3282-.041,49.9487-14.0103,90.4-15.5897,106.0718-15.5897s56.1436,1.6,106.0718,15.5897c.1231,0,.2256.041.3282.041.5744,0,1.1077-.4103,1.2308-1.0051.1436-.6564-.2461-1.3128-.9026-1.4974h.0411Z" style="fill: #ffd905;"/>
      <path d="M407.8051,68.8513l-4.6359,1.6205,1.6821-4.8205,5.4769-15.6513h-21.9487l5.4769,15.6513,1.6205,4.6359-4.8205-1.6821-15.6513-5.4769v21.9487l15.6513-5.4769,4.6359-1.6205-1.6821,4.8205-5.0256,14.359c-5.7846,3.5487-9.6616,9.9077-9.6616,17.1897,0,11.1385,9.0256,20.1846,20.1846,20.1846s20.1846-9.0256,20.1846-20.1846c0-7.282-3.8769-13.641-9.6616-17.1897l-5.0256-14.359-1.6205-4.6359,4.8205,1.6821,15.6513,5.4769v-21.9487l-15.6513,5.4769h0Z" style="fill: #ffd905;"/>
      <path d="M269.6103,254.4718l-7.6718,4.2051c-13.9692-10.2769-28.7795-25.2718-28.7795-42.5846,0-26.7077,32.9026-37.4974,45.0872-40.5744-.2462,1.641-.3897,3.3436-.3897,5.1077,0,2.7897.4103,5.8051,1.1077,8.9026-9.0667,2.359-31.3641,10.1538-31.3641,30.2359,0,25.1897,22.0102,34.7282,22.0102,34.7282h0v-.0205Z" style="fill: #ffd905;"/>
      <path d="M527.5795,254.4718l7.6718,4.2051c13.9692-10.2769,28.7795-25.2718,28.7795-42.5846,0-26.7077-32.9026-37.4974-45.0872-40.5744.2461,1.641.3897,3.3436.3897,5.1077,0,2.7897-.4103,5.8051-1.1077,8.9026,9.0667,2.359,31.3641,10.1538,31.3641,30.2359,0,25.1897-22.0102,34.7282-22.0102,34.7282h0v-.0205Z" style="fill: #ffd905;"/>
      <path d="M526.1641,251.1897l-6.7282,2.9128,9.2923,5.0872-6.6256,6.6461c-5.4564,5.4769-13.3128,7.7538-20.8615,6.0718-20.6564-4.5949-64.4102-13.2308-102.0923-13.2308s-81.4359,8.6359-102.1128,13.2308c-7.5282,1.6821-15.4051-.6154-20.8615-6.0718l-6.9949-7.0359,2.1539-1.1692,6.359-3.5077-6.6667-2.9333c-.759-.3282-17.6-7.959-19.6513-27.4667,7.4872-5.8462,19.3846-14.1744,35.1385-22.4,4.4513,10.9538,10.7487,21.6,14.2564,27.241l-12.2462-2.6667,3.1385,25.6615,11.6923-5.7846-2.8103,12.882,25.6615-3.1385-5.7846-11.6923,12.8615,2.8103-1.559-12.841-1.559-12.8205-12.4923,6.1538c1.0667-12.3897-.1436-21.9487-1.1692-29.8462-.4308-3.282-.8-6.1744-.9436-8.8,18.5641-6.8308,40.2667-12.2872,64.6974-14.1949-1.6205,4.1846-2.6872,8.1846-2.6872,11.9795,0,7.5077,4.1641,15.918,8.5949,24.8.2872.6154.5949,1.2102.9026,1.8051l-21.0256-7.5487v36l23.2-8.3487-8.2051,22.7897h36.3487l-8.2051-22.7897,23.2,8.3487v-36l-21.0256,7.5487c.3077-.6154.6154-1.2102.9026-1.8051,4.4308-8.9026,8.5949-17.2923,8.5949-24.8,0-3.7744-1.0461-7.7949-2.6667-11.959,23.8564,1.8872,45.1487,7.159,63.4051,13.8051-.1436,2.7077-.5128,5.7436-.9641,9.1898-1.0051,7.8769-2.2359,17.4359-1.1692,29.8462l-12.4718-6.1538-1.5795,12.8205-1.559,12.8205,12.8615-2.8103-5.7846,11.6923,25.6615,3.1385-2.8102-12.882,11.6923,5.7846,3.159-25.6615-12.2667,2.6667c3.5692-5.7026,9.9897-16.5744,14.441-27.6718,15.5077,8,27.3436,16.1846,35.0154,22.0718-1.6821,20.0615-18.9539,27.8974-19.7128,28.2461h.0615v-.0205Z" style="fill: #215aa1;"/>
      <path d="M404.441,219.1692c5.3333-12.0205,12.882-23.7744,12.882-32.9436,0-14.1949-18.0718-34.5436-18.0718-52.5949,0,18.0308-18.0718,38.4-18.0718,52.5949,0,9.1692,7.5282,20.9026,12.882,32.9231l-24.3897-8.7795v25.8051l25.559-9.1898-9.0462,25.1487h26.1743l-9.0462-25.1487,25.559,9.1898v-25.8051l-24.4102,8.7795h0l-.0205.0205ZM398.6564,226.9846c-2.5436,0-4.6154-1.7436-4.6154-3.918s2.0718-3.918,4.6154-3.918,4.6154,1.7436,4.6154,3.918-2.0718,3.918-4.6154,3.918Z" style="fill: #ffd905;"/>
      <path d="M329.1385,242.041l-.9436-7.8154-.9641-7.8154-10.6872,5.2718-3.1795,1.559c5.2308-36.4103-10.2564-49.9487,6.8718-65.3538,15.282-13.7436,54.5231-28.4718,62.7897-31.4872-3.9385-2.8718-7.0974-6.7897-9.0256-11.3436-2.3179,2.5846-8.3692,8.5538-16.3282,11.0154-10.2769,3.1795-72.6359,11.5077-72.6359,44.5128,0,18.359,21.3333,50.0103,21.3333,50.0103l1.559,3.1795-3.5897-.7795-11.6308-2.5436.9641,7.8154.9641,7.8154,10.6872-5.2923,3.159-1.559-.7795,3.5692-2.5436,11.6308,7.8154-.9641,7.8154-.9641-5.2718-10.6872-1.559-3.159,3.5897.7795,11.6308,2.5436s-.041.0615-.041.0616ZM310.9231,238.7179c-1.6615,0-2.9949-1.1077-2.9949-2.4615s1.3539-2.4615,2.9949-2.4615,2.9949,1.1077,2.9949,2.4615-1.3539,2.4615-2.9949,2.4615Z" style="fill: #ffd905;"/>
      <path d="M489.2615,233.7744l1.559-3.1795s21.3333-31.6513,21.3333-50.0103c0-33.0051-62.359-41.3333-72.6359-44.5128-7.9385-2.4615-14.0103-8.4513-16.3282-11.0154-1.9487,4.5538-5.0872,8.4513-9.0256,11.3436,8.2462,3.0154,47.5077,17.7231,62.7897,31.4872,17.1282,15.4051,1.6205,28.9436,6.8718,65.3538l-3.1795-1.559-10.6872-5.2718-.9641,7.8154-.9436,7.8154,11.6308-2.5436,3.5897-.7795-1.559,3.159-5.2718,10.6872,7.8154.9641,7.8154.9641-2.5436-11.6308-.7795-3.5692,3.159,1.559,10.6872,5.2923.9641-7.8154.9641-7.8154-11.6308,2.5436-3.5897.7795-.041-.0615h0ZM486.2667,239.2513c-1.3539,0-2.4615-1.3539-2.4615-3.0154s1.1077-3.0154,2.4615-3.0154,2.4615,1.3539,2.4615,3.0154-1.1077,3.0154-2.4615,3.0154Z" style="fill: #ffd905;"/>
      <path d="M514.718,296.5231c-.5333-2.5846-2.5026-4.6564-5.0462-5.3744-52.1641-14.7692-94.6257-16.4308-111.0359-16.4308h0c-16.3898,0-58.8718,1.6615-111.0359,16.4308-2.5436.7179-4.4923,2.7897-5.0462,5.3744-.4718,2.2359-.6564,5.3538.041,9.4769.4308,2.5641.9231,4.6564,1.4154,6.3795,1.0872,3.7744,5.0667,5.9487,8.841,4.8615,51.4051-14.8103,93.7026-15.9795,105.8051-15.9795s54.4,1.1692,105.7846,15.9795c3.7744,1.0872,7.7538-1.0872,8.841-4.8615.4923-1.7231,1.0051-3.8154,1.4154-6.3795.718-4.1231.5128-7.241.041-9.4769h-.0205Z" style="fill: #ffd905;"/>
      <path d="M487.8872,344.2974c-31.4872,0-61.2923,7.159-87.8564,19.9385-26.6256-12.7795-56.4308-19.9385-87.9179-19.9385-112.0205,0-202.8513,90.8308-202.8513,202.8513s90.8308,202.8513,202.8513,202.8513c31.4872,0,61.2923-7.159,87.9179-19.9179,26.5641,12.759,56.3692,19.9179,87.8564,19.9179,112.0205,0,202.8513-90.8102,202.8513-202.8513s-90.8308-202.8513-202.8513-202.8513ZM432.318,426.9436c32.1641,32.1026,49.8462,74.7692,49.8462,120.2051s-17.682,88.0615-49.8462,120.2051c-9.8462,9.8667-20.6974,18.359-32.2872,25.3538-11.6513-6.9949-22.5026-15.4872-32.3487-25.3538-32.1026-32.1436-49.7846-74.8103-49.7846-120.2051s17.6821-88.1026,49.7846-120.2051c9.8462-9.8667,20.6974-18.3385,32.3487-25.3949,11.5897,7.0564,22.441,15.5282,32.2872,25.3949h0ZM312.1128,717.1385c-45.3744,0-88.0615-17.682-120.2051-49.7846-32.1026-32.1436-49.7846-74.8103-49.7846-120.2051s17.682-88.1026,49.7846-120.2051c32.1436-32.1436,74.8308-49.8257,120.2051-49.8257,18.4,0,36.2872,2.9128,53.2103,8.4308-48.8205,37.0461-80.2872,95.6308-80.2872,161.6s31.4667,124.5539,80.2256,161.559c-16.9026,5.5795-34.7897,8.4307-53.1487,8.4307h0ZM608.0923,667.3538c-32.1026,32.1026-74.8308,49.7846-120.2051,49.7846-18.2974,0-36.1846-2.8513-53.1077-8.4307,48.6974-37.0051,80.1846-95.6308,80.1846-161.559s-31.4872-124.5538-80.2461-161.6c16.9231-5.518,34.8103-8.4308,53.1692-8.4308,45.3743,0,88.1026,17.682,120.2051,49.8256,32.1026,32.1026,49.7846,74.7692,49.7846,120.2051s-17.682,88.0615-49.7846,120.2051h0Z" style="fill: #215aa1;"/>
      <path d="M190.8205,628.7077c-7.282-7.8974-10.9333-19.2205-10.9333-33.9898v-139.0564h28.6359v141.1282c0,6.2564,1.2513,10.7692,3.7744,13.5385s6.1128,4.1641,10.8103,4.1641,8.2872-1.3949,10.8103-4.1641,3.7744-7.282,3.7744-13.5385v-141.1282h27.6103v139.0564c0,14.7487-3.6513,26.0923-10.9333,33.9898-7.2821,7.8974-17.8872,11.8564-31.7744,11.8564s-24.4718-3.9385-31.7744-11.8564Z" style="fill: #ffd905;"/>
      <path d="M367.2103,630.0205c-7.118-7.8974-10.6667-19.2205-10.6667-33.9898v-10.4205h27.0769v12.4923c0,11.8154,4.9436,17.7026,14.8513,17.7026,4.8615,0,8.5538-1.4359,11.0769-4.2872,2.5231-2.8718,3.7744-7.5077,3.7744-13.9282,0-7.6308-1.7436-14.359-5.2102-20.1846-3.4667-5.8051-9.8872-12.8-19.2615-20.9641-11.8154-10.4205-20.041-19.8359-24.7385-28.2462-4.6974-8.4103-7.0359-17.9282-7.0359-28.5128,0-14.4,3.6513-25.559,10.9333-33.4564,7.282-7.8974,17.8872-11.8564,31.7744-11.8564s24.0821,3.959,31.1179,11.8564,10.5436,19.2205,10.5436,33.9897v7.5487h-27.0769v-9.3744c0-6.2564-1.2102-10.8103-3.6513-13.6615-2.441-2.8718-5.9897-4.2872-10.6667-4.2872-9.559,0-14.3179,5.8256-14.3179,17.4564,0,6.6051,1.7846,12.759,5.3333,18.482s10.0308,12.6769,19.4051,20.841c11.9795,10.4205,20.2256,19.8769,24.7385,28.3897s6.7692,18.4821,6.7692,29.9487c0,14.9333-3.6923,26.4-11.0769,34.3795-7.3846,7.9795-18.0923,11.9795-32.1641,11.9795s-24.3897-3.9385-31.5077-11.8564v-.041h-.0206Z" style="fill: #215aa1;"/>
      <path d="M541.6308,630.0205c-7.2821-7.8974-10.9333-19.2205-10.9333-33.9898v-95.8359c0-14.7487,3.6513-26.0718,10.9333-33.9898,7.2821-7.8974,17.8872-11.8564,31.7744-11.8564s24.4718,3.959,31.7744,11.8564c7.2821,7.8974,10.9333,19.2205,10.9333,33.9898v15.6308h-27.0769v-17.4564c0-11.9795-4.9436-17.9692-14.8513-17.9692s-14.8513,5.9897-14.8513,17.9692v99.7334c0,11.8154,4.9436,17.7026,14.8513,17.7026s14.8513-5.9077,14.8513-17.7026v-35.6718h-14.3179v-26.0308h41.3949v59.6308c0,14.7487-3.6513,26.0923-10.9333,33.9898s-17.8872,11.8564-31.7744,11.8564-24.4718-3.9385-31.7744-11.8564h0Z" style="fill: #ffd905;"/>
      <path d="M487.8872,349.6718c-29.1282,0-56.841,6.3385-81.7231,17.7231-12.3282,5.5795-23.918,12.4308-34.7077,20.3487-49.1077,35.9385-81.0667,93.9898-81.0667,159.4051s31.959,123.4256,81.0667,159.3641c8.0205-2.9744,15.7949-6.5436,23.3026-10.7898-11.0359-6.8923-21.4154-15.1179-30.8718-24.5744-33.1077-33.1282-51.3641-77.1898-51.3641-124s18.2564-90.9128,51.3641-124.041c9.4564-9.4564,19.8359-17.682,30.8718-24.5744,10.9333-6.9538,22.5846-12.5744,34.7487-16.8615,18.5026-6.5436,38.1949-9.9282,58.3795-9.9282,46.8513,0,90.8718,18.2564,123.9795,51.3641,33.1077,33.1077,51.3641,77.1692,51.3641,124.041s-18.2359,90.8718-51.3641,124c-33.1077,33.1077-77.1282,51.3641-123.9795,51.3641-20.1846,0-39.8769-3.3846-58.3795-9.8667-7.4051,5.2103-15.1795,10.0103-23.3026,14.2564,24.9026,11.3436,52.5538,17.682,81.682,17.682,108.9026,0,197.4769-88.5743,197.4769-197.4359s-88.5743-197.4769-197.4769-197.4769h0Z" style="fill: #ffd905;"/>
      <polygon points="489.8564 299.2513 471.641 302.9026 457.3436 291.6615 476.0513 288.7077 489.8564 299.2513" style="fill: #215aa1;"/>
      <polygon points="339.9282 291.6615 325.6103 302.9026 307.3949 299.2513 321.2205 288.7077 339.9282 291.6615" style="fill: #215aa1;"/>
      <path d="M371.3949,276.5026c-.4103.5744-1.0872,1.1282-2.0308,1.7026-.9231.5744-1.8051,1.0256-2.6051,1.3744l.2256,3.159,3.8359-.4103,1.3333,19.0974,4.2667-.2872-1.7436-24.8615-3.282.2256h0Z" style="fill: #215aa1;"/>
      <path d="M392.5641,287.3949c1.7026-1.2102,2.5026-3.1179,2.441-5.7231-.041-2.0103-.5949-3.5692-1.641-4.6769-1.0461-1.1077-2.5846-1.641-4.5949-1.5795-1.9897.041-3.4872.6564-4.5128,1.8051s-1.4974,2.7282-1.4564,4.7385c.041,1.3539.2872,2.482.7795,3.4051s1.1487,1.641,1.9692,2.1744c-1.9692,1.1487-2.9128,3.1795-2.8308,6.0923.1231,4.9641,2.3385,7.3846,6.6667,7.2821s6.441-2.6051,6.318-7.5077c-.0615-2.9539-1.1077-4.9641-3.118-6.0513v.041h-.0205ZM387.2923,279.5385c.3282-.5744.841-.8821,1.5385-.9026.6974,0,1.2102.2667,1.559.8205.3487.5744.5333,1.3333.5539,2.3179.0615,2.6256-.5744,3.959-1.9282,4.0205-1.3949,0-2.1333-1.3128-2.1949-3.959-.0205-.9641.1231-1.7436.4718-2.3179h0v.0205ZM391.1487,296.4821c-.2872.8-.9026,1.2102-1.8461,1.2308-.9231,0-1.559-.3487-1.9077-1.0872-.3487-.759-.5333-1.7231-.5539-2.9333-.0205-1.2513.1231-2.2564.4513-3.0359.3282-.7795.9436-1.1897,1.8256-1.2308.882,0,1.4974.3692,1.8667,1.0872s.5539,1.6821.5744,2.8718c.0205,1.2923-.1026,2.3385-.3897,3.1385v-.041h-.0205Z" style="fill: #215aa1;"/>
      <path d="M406.3282,275.4564c-2.2564-.0615-3.918.6154-5.0051,2.0513-1.0667,1.4359-1.641,3.4667-1.7231,6.0718-.1436,4.882,1.5385,7.3641,5.0256,7.4667.8205,0,1.5385-.0821,2.1333-.3487.5949-.2462,1.0461-.6154,1.3539-1.1077l-.082,2.9539c-.0615,1.8872-.2461,3.2-.5949,3.9795-.3487.759-.9026,1.1282-1.7026,1.1077-.8615,0-1.4359-.2872-1.7231-.8205-.2872-.5128-.4103-1.3744-.3692-2.5641l-4.0821-.1231v.3692c-.0205,2.0923.4513,3.6718,1.4154,4.759s2.5231,1.6615,4.6564,1.7231c2.4.0615,4.1026-.6564,5.1282-2.1744s1.559-3.6103,1.641-6.318l.2461-8.8205c.0615-2.4615-.4103-4.4308-1.4359-5.9077s-2.6461-2.2359-4.8615-2.2974h-.0206ZM408.2154,286.5538c-.5333.8821-1.2718,1.3128-2.1949,1.2923-.6974,0-1.1897-.2256-1.4974-.6359-.3077-.3897-.4923-.9026-.5333-1.5385-.0615-.6359-.0615-1.4974-.041-2.6256.041-1.4359.2256-2.5231.5744-3.2615s.9231-1.1077,1.7436-1.0667c.8205,0,1.3744.3897,1.6821,1.0872s.4308,1.6615.3897,2.8718l-.1026,3.8769h-.0205Z" style="fill: #215aa1;"/>
      <polygon points="417.4872 276.1744 417.2615 279.4154 423.9897 279.9077 417.4667 301.159 421.5692 301.4462 428.2154 279.5385 428.4 276.9538 417.4872 276.1744" style="fill: #215aa1;"/>
    </g>
  </g>
</svg>