<?xml version="1.0" encoding="UTF-8"?>
<svg id="_图层_1" data-name="图层_1" xmlns="http://www.w3.org/2000/svg" version="1.1" viewBox="0 0 800 800">
  <!-- Generator: Adobe Illustrator 29.1.0, SVG Export Plug-In . SVG Version: 2.1.0 Build 142)  -->
  <polygon id="Fill-52" points="345.7111 112.832 378.7428 88.9359 337.9269 88.9359 325.2439 50 312.5609 88.9359 271.7648 88.9359 304.7792 112.8246 292.1554 151.5777 325.2464 127.6371 358.3324 151.5777 345.7111 112.832" style="fill: #c5a664; fill-rule: evenodd;"/>
  <polygon id="Fill-56" points="474.6627 520.619 715.121 520.619 520.5231 379.8361 594.877 151.5767 399.9629 292.6189 205.0044 151.5767 279.3731 379.8806 84.879 520.619 325.2212 520.619 399.9432 750 474.6627 520.619" style="fill: #fffffe; fill-rule: evenodd;"/>
  <polygon id="Fill-58" points="339.7014 500.6706 146.4721 500.6706 302.8431 387.5191 242.9435 203.6452 399.9642 317.2413 556.933 203.6551 497.0532 387.4796 653.518 500.6706 460.1825 500.6706 399.9419 685.5969 339.7014 500.6706" style="fill: #d82333; fill-rule: evenodd;"/>
  <polygon id="Fill-54" points="495.2065 112.832 528.2382 88.9359 487.4223 88.9359 474.7393 50 462.0563 88.9359 421.2602 88.9359 454.2746 112.8246 441.6509 151.5777 474.7418 127.6371 507.8278 151.5777 495.2065 112.832" style="fill: #c5a664; fill-rule: evenodd;"/>
</svg>