<?xml version="1.0" encoding="UTF-8"?>
<svg id="_图层_1" data-name="图层_1" xmlns="http://www.w3.org/2000/svg" version="1.1" viewBox="0 0 800 800">
  <!-- Generator: Adobe Illustrator 29.1.0, SVG Export Plug-In . SVG Version: 2.1.0 Build 142)  -->
  <path id="icon-badge-back" d="M400,750c81.3131-27.5758,148.4848-73.5354,195.1515-133.6364,44.5455-57.9798,70-129.3939,70-212.1212,0-39.5959-2.1212-74.2424-8.4848-106.7677-5.6566-30.404-13.4273-58.6869-25.4545-86.9697-31.1111-1.4141-52.3232-4.2424-69.2929-8.4849-18.398-4.9495-34.6465-13.4343-51.6232-21.9192-26.8757-13.4343-53.0303-26.8687-110.3101-26.8687s-83.4343,13.4343-110.303,26.8687c-16.9697,8.4849-33.2323,16.9697-51.6162,21.9192-16.9697,4.9495-38.1818,7.7778-69.2929,8.4849-11.299,28.9899-19.7839,56.5657-25.4405,86.9697-6.3636,32.5252-8.4848,67.1717-8.4848,106.7677,0,82.7273,25.4545,154.8485,70,212.1212,46.6667,60.101,113.8384,105.3535,195.1515,133.6364h0Z" style="fill: #fff;"/>
  <g>
    <path id="icon-badge-v9" d="M260.7071,267.0707c1.4141-1.4141,2.1212-2.8283,2.1212-4.2424v-3.5354c0-.7071-.7071-2.1212-1.4141-2.8283s-2.1212-1.4141-3.5354-1.4141-2.8283,0-3.5354.7071c-1.4141.7071-2.8283,1.4141-4.2424,2.1212-1.4141.7071-2.8283,2.1212-4.9495,3.5354l-2.8283,2.1212,9.1919,11.3131,4.2424-3.5354c2.1212-1.4141,4.2424-2.8283,4.9495-4.2424Z" style="fill: #008863;"/>
    <path id="icon-badge-v8" d="M295.3535,613.5353c-1.4141-1.4141-2.1212-2.1212-3.5354-2.8283s-2.8283-1.4141-4.2424-1.4141c-1.4141-.7071-2.8283-.7071-4.2424,0-1.4141,0-2.8283.7212-4.2424,2.1283-1.4141,1.4071-2.8283,2.8212-3.5354,4.2353-1.4141,2.1212-1.4141,3.5354-2.1212,5.6566v4.9495c.7071,1.4141,1.4141,2.8283,2.1212,3.5354,1.4141,1.4141,2.1212,2.1212,3.5354,2.8283s2.8283,1.4071,4.2424,1.4071h4.2424c1.4141-.7141,2.8283-1.4071,4.2424-2.1283,1.4141-1.4071,2.1212-2.1212,3.5354-4.2424,1.4141-2.1283,1.4141-4.2565,2.1212-5.6637v-4.9424c-.7071-1.4-1.4141-2.107-2.1212-3.5212Z" style="fill: #008863;"/>
    <path id="icon-badge-v7" d="M253.6364,588.0808c-.7071-.7071-2.1212-2.1212-3.5354-3.5354l-2.1212-2.1212-7.7778,8.4848,3.5354,3.5354c1.4141,1.4141,2.8283,2.1212,4.2424,3.5354,1.4141.7071,2.1212,1.4141,3.5354,1.4141h2.8283c.7071,0,1.4141-.7141,2.1212-1.4141v-4.2424c0-.7212,0-2.1283-.7071-2.8283-.7071-1.4141-1.4141-2.1212-2.1212-2.8283Z" style="fill: #008863;"/>
    <path id="icon-badge-v6" d="M370.303,226.0606c2.1212,0,4.2424-.7071,5.6566-.7071s2.8283-.7071,4.2424-1.4141c.7071-.7071,1.4141-1.4141,2.1212-2.1212.7071-.7071.7071-2.1212.7071-3.5354s-.7071-2.1212-1.4141-2.8283-1.4141-1.4141-3.5354-1.4141c-1.4141,0-2.1212-.7071-3.5354,0h-4.9495l-6.3636.7071,1.4141,12.7273,5.6566-1.4141Z" style="fill: #008863;"/>
    <path id="icon-badge-v5" d="M299.596,253.6364c1.4141,1.4141,2.8283,2.8283,4.9495,3.5354,1.4141.7071,3.5354.7071,5.6566.7071s4.2424-.7071,5.6566-1.4141c2.1212-.7071,3.5354-2.1212,4.9495-3.5354s2.8283-2.8283,3.5354-4.2424c.7071-2.1212,1.4141-4.2424,1.4141-6.3636s-.7071-4.2424-1.4141-7.0707c-1.4141-2.8283-2.1212-4.9495-4.2424-6.3636-1.4141-1.4141-3.5354-2.8283-4.9495-3.5354s-3.5354-.7071-5.6566-.7071-4.2424.7071-5.6566,1.4141c-1.4141.7071-3.5354,2.1212-4.9495,2.8283-1.4141,1.4141-2.1212,2.8283-3.5354,4.2424-.7071,1.4141-1.4141,3.5354-1.4141,5.6566s.7071,4.9495,1.4141,7.0707c1.4141,4.2424,2.8283,6.3636,4.2424,7.7778Z" style="fill: #008863;"/>
    <path id="icon-badge-v4" d="M339.1919,629.0909c-.7071-.7212-1.4141-.7212-2.8283-1.4141-1.4141-.7071-2.1212-.7071-3.5354-1.4142l-4.9495-1.4141-3.5354,9.899,4.2424,1.4141c1.4141.7071,3.5354,1.4071,4.9495,1.4071h3.5354c1.4141,0,1.4141-.7141,2.1212-1.4071.7071-.7212,1.4141-1.4141,1.4141-2.1283v-2.8212c0-.7071-.7071-1.4141-1.4141-2.1212Z" style="fill: #008863;"/>
    <polygon id="icon-badge-v3" points="532.9293 613.5353 520.9091 604.3434 523.0303 619.1919 532.9293 613.5353" style="fill: #008863;"/>
    <path id="icon-badge-v2" d="M654.5455,430.404c.7071-7.7778.7071-16.2626.7071-24.0333v-10.6061h-110.303c-.7071-7.7778-2.8283-15.5556-4.2424-23.3333-.7071-4.2495-1.4141-7.7849-2.1212-12.0273h115.9596c-3.5354-53.7374-14.1414-98.9899-32.5252-144.2424-62.2222-1.4142-83.4344-12.0202-108.1818-24.7475-28.9899-14.1414-53.7374-29.697-114.5455-29.697-61.5152,0-86.2626,15.5556-114.5455,29.697-25.4545,12.7273-45.9596,23.3333-108.1818,24.7475-19.0909,45.2525-28.9899,90.505-32.5253,144.2424h116.6667c-.7071,4.2424-1.4141,7.7778-2.1212,12.0202-1.4141,7.7778-2.1212,15.5556-2.8283,23.3333h-112.4242v10.6061c0,7.7778,0,16.2626.7071,24.0263h111.0101c0,12.0202,1.4141,24.0404,3.5354,35.3535h-110.303c2.1212,12.0202,4.2424,23.3404,7.7778,34.6465h113.1313c4.9495,12.7273,11.3131,24.0263,19.0909,35.3535h-120.202c38.8889,96.8616,122.3232,167.5687,233.3333,205.0505,110.303-37.4818,194.4444-108.1889,233.3333-205.0505h-120.202c7.7778-10.6061,14.1414-22.6262,19.0909-35.3535h113.1313c2.8142-11.3273,5.6566-23.3404,7.7778-34.6465h-110.303c2.1212-11.3131,3.5354-22.6192,3.5354-35.3535l106.7677.0142h0ZM570.404,272.0202c7.0707,1.4141,13.4344,7.0707,19.8051,14.8485,2.1283,2.8283,4.2495,6.3636,6.3566,9.1919,1.4141,2.8283,2.8283,8.4849,4.2495,13.4344l-9.199,7.0707c-.7071-5.6566-2.1212-12.7273-4.2424-16.9697-.7071-2.1212-2.1212-3.5354-3.5354-5.6566-2.8283-3.5354-7.0707-7.0707-11.3131-8.4849-2.1283-.7071-4.2566-.7071-6.3636,0-2.1212.7071-4.2424,1.4141-6.3636,2.8283-4.2424,2.8283-6.3495,7.0707-6.3495,11.3131,0,6.3636,6.3495,16.2626,10.6061,21.2121l7.0707-4.9495-4.9495-7.0707,7.0707-4.9495,12.7273,19.798-16.9697,12.7273c-2.1283-1.4141-7.0707-6.3636-10.6061-9.1919-3.5354-2.8283-6.3636-6.3636-8.4849-9.899-6.3636-7.7778-9.1919-15.5556-9.1919-22.6263s3.5354-13.4344,9.8848-17.6768c6.3637-5.6565,12.7273-7.0707,19.798-4.9495ZM513.1313,228.1818l12.7273,39.596,16.2626-24.7475,12.0202,7.0707-26.1616,41.0101-10.6061-7.0707-12.0202-38.8889-12.0202,26.1616-12.0202-4.9495,19.798-43.8384,12.0202,5.6566ZM482.0202,215.4545l-13.4343,45.9596-13.4344-3.5354,13.4344-45.9596,13.4343,3.5354ZM404.2424,201.3131l51.6232,5.6566-1.4071,9.899-19.0909-2.1212-4.2565,37.4748-14.1414-1.4141,4.2495-37.4748-19.0909-2.1212,2.1141-9.899ZM374.5455,204.1414c3.5354,0,6.3636-.7071,9.1919,0,2.8283,0,4.9495.7071,7.0707,1.4141s4.2424,2.1212,5.6566,3.5354,2.1212,3.5354,2.1212,6.3636c0,3.5354-.7071,6.3636-2.1212,8.4849-1.4141,2.1212-4.2424,4.9495-7.7778,6.3636,8.4849,4.9495,12.7273,12.0202,16.9697,19.798l-16.2626.7071c-2.8283-5.6566-8.4849-11.3131-14.8485-16.2626l-7.7778.7071,1.4141,17.6768-14.1414,1.4141-4.2424-48.0808,24.7475-2.1212ZM281.9192,233.8384c3.5354-6.3636,9.1919-11.3131,18.3838-14.8485,8.4849-3.5354,16.9697-4.9495,23.3333-2.8283,7.0707,2.1212,12.0202,6.3636,14.8485,13.4343,2.8283,7.0707,2.8283,13.4343-.7071,19.798s-9.1919,11.3131-18.3838,14.8485c-9.1919,3.5354-16.9697,4.9495-23.3333,2.8283-7.0707-2.1212-11.3131-6.3636-14.8485-13.4343s-2.8283-13.4343.7071-19.798ZM237.3737,325.0505c-2.8283,4.2424-5.6566,7.0707-8.4848,9.899s-3.5354,3.5354-6.3636,5.6566l-9.899-6.3636c3.5354-2.1212,6.3636-3.5354,9.899-6.3636,3.5354-2.1212,5.6566-4.9495,7.7778-7.7778.7071-.7071,1.4141-1.4141,2.1212-2.8283s1.4141-2.1212,1.4141-3.5354c.7071-1.4141.7071-2.1212.7071-2.8283s-.7071-1.4141-1.4141-2.1212-2.1212-.7071-3.5354,0-2.8283,1.4141-4.2424,2.8283c-1.4141,1.4141-3.5354,3.5354-4.9495,4.9495s-3.5354,3.5354-4.9495,4.9495c-4.2424,3.5354-7.7778,4.9495-10.6061,5.6566-2.8283.7071-6.3636-.7071-8.4848-2.1212-3.5354-2.8283-4.9495-7.0707-4.9495-12.0202.7071-5.6566,3.5354-11.3131,7.7778-17.6768,2.1212-2.8283,4.9495-6.3636,7.7778-8.4849,2.1212-2.1212,4.2424-4.2424,6.3636-5.6566l7.0707,7.0707c-4.9495,2.8283-10.6061,7.7778-14.1414,12.7273-.7071.7071-1.4141,2.1212-2.1212,2.8283-.7071,1.4141-1.4141,2.1212-1.4141,3.5354-.7071,1.4141-.7071,2.1212-.7071,2.8283s.7071,1.4141,1.4141,2.1212c.7071.7071,2.1212.7071,3.5354,0s2.8283-2.1212,5.6566-4.2424c1.4141-1.4141,2.8283-2.8283,4.2424-4.2424,1.4141-1.4141,2.8283-2.8283,4.9495-4.2424,3.5354-2.8283,7.0707-4.9495,9.899-4.9495s5.6566,0,8.4848,2.1212c3.5354,2.8283,5.6566,7.0707,4.9495,12.7273,0,2.1212-2.8283,8.4848-7.7778,15.5555ZM256.4647,303.1313l-30.404-36.7677,19.0909-16.2626c2.8283-2.1212,5.6566-4.2424,7.7778-5.6566,2.1212-1.4141,4.9495-2.1212,7.0707-2.8283,2.8283-.7071,4.9495-.7071,7.0707,0s4.2424,2.1212,5.6566,4.2424c1.4141,1.4141,2.1212,3.5354,2.8283,5.6566s.7071,4.2424,0,6.3636c-.7071,2.8283-1.4141,5.6566-3.5354,8.4849-1.4141,2.8283-4.2424,4.9495-7.0707,7.7778l-7.7778,6.3636,9.899,12.0202-10.606,10.606ZM255.0505,608.5859c-2.1212,0-4.9495-.7071-7.0707-1.4141-2.1212-.7071-4.9495-2.8212-7.0707-4.9495l-5.6566-6.3637-8.4848,9.1919-8.4848-7.7778,26.1616-27.5758,14.8485,13.4344c2.1212,2.1212,3.5354,4.2424,4.9495,5.6566,2.1212,2.8212,3.5354,7.7778,2.8283,11.3131,0,2.1212-1.4141,3.5354-2.8283,4.9495-1.4141,1.4141-2.8283,2.1212-4.2424,2.8283-1.4141,0-2.8283.7071-4.9495.7071ZM293.2323,643.2323c-5.6566.7071-11.3131-.7071-18.3838-4.2424-6.3636-3.5354-10.6061-8.4848-12.7273-13.4273s-1.4141-10.6061,1.4141-15.5485c2.8283-5.6637,7.0707-8.4848,12.7273-9.199s11.3131.7141,17.6768,4.2495,10.6061,8.4848,12.7273,13.4273c2.1212,4.9424,1.4141,10.6061-1.4141,16.2697-2.1212,4.2283-6.3636,7.7636-12.0202,8.4707ZM352.6263,636.8687c-.7071,2.8283-2.1212,4.9495-4.2424,5.6566-2.1212,1.4141-4.9495,2.1212-7.7778,2.1212,3.5354,4.9495,7.0707,12.0202,8.4849,19.8051l-13.4343-4.2495c-.7071-5.6566-3.5354-11.3131-7.0707-16.9626l-5.6566-2.1283-4.2424,13.4344-11.3131-3.5354,12.0202-36.0606,19.0909,6.3495c2.8283.7212,4.9495,1.4141,6.3636,2.8283,2.1212.7071,3.5354,2.1212,4.9495,3.5354,1.4141,1.4071,2.1212,2.8142,2.8283,4.2424.7071,1.4283.7071,2.8424,0,4.9636ZM397.1717,636.8687l-15.5556-1.4141-2.8283,30.4041-9.899-.7071,2.8283-30.4041-15.5556-1.4141.7071-7.7778,41.0101,3.5354-.7071,7.7778ZM443.1313,660.9091c-3.5354,2.8283-8.4848,4.9495-14.8485,4.9495-7.0707.7212-12.0202,0-16.2626-2.1212-3.5354-2.1212-5.6566-5.6566-6.3636-10.6061l-2.1212-24.7474,11.3131-.7071,2.1212,23.3333c0,2.8283,1.4071,4.9495,2.8141,5.6566,1.4141,1.4141,4.2566,1.4141,7.0707,1.4141,2.8283,0,5.6636-1.4141,7.0707-2.1212,1.4141-1.4141,2.1283-3.5354,1.4141-6.3636l-2.1071-24.0404,12.0202-1.4141,2.1212,24.7475c.7071,4.9495-.7071,9.1919-4.2424,12.0202ZM497.5758,648.8889c-2.8283,1.4142-6.3636,2.8283-9.899,4.2425-7.7919,2.1212-14.1414,2.1212-19.805.7141-5.6636-2.1283-9.199-6.3566-10.6061-12.0131-1.4071-5.6707-.7-11.3273,2.1283-15.5697,3.5354-4.9495,9.1919-8.4848,16.9555-10.6061,2.8283-.7071,5.6636-1.4141,8.4849-2.1212,2.8212-.7141,6.3566-.7141,9.8919,0l2.8212,8.4848c-3.5354-.7212-8.4849-1.4141-12.0202-1.4141-1.4071,0-3.5354.7071-4.9424.7071-2.1.7071-4.2212,1.4142-5.6353,2.8283-2.8141,2.1212-4.9424,4.9495-5.6566,8.4848,0,1.4071,0,3.5354.7142,5.6566,1.4071,4.2424,3.5354,7.0707,7.0707,7.7778,4.9424,2.1212,12.7343,0,17.6768-2.1212l-2.1283-7.0707-6.3636,2.1212-2.1212-7.0707,16.9555-4.9495,5.6636,17.6768c-2.8212.707-5.6495,2.1212-9.1848,4.2424ZM545.6566,573.9394l20.5051,22.6262,16.2626-14.8485,4.9495,5.6566-24.0404,22.6262-26.1546-28.2828,8.4778-7.7778ZM522.3232,592.3232l33.9394,24.0333-10.6061,6.3707-7.0707-4.9495-14.8485,8.4848.7071,8.4848-10.6061,6.3636-4.2424-41.7172,12.7273-7.0707ZM502.5253,537.8788c-24.0404,31.1111-58.6869,54.4444-101.1111,68.5858h-2.1212c-42.4242-14.1414-77.0707-37.4748-101.1111-68.5858-23.3333-29.6969-36.0606-67.1717-36.0606-109.596,0-19.798,1.4141-37.4747,4.2424-53.7374,2.8283-16.2626,7.7778-31.8182,14.1414-47.3737l.7071-2.1212c12.7273-.7071,25.4545-.7071,37.4748-4.2424,8.4849-2.1212,16.2626-6.3636,24.0404-9.899,14.1414-7.0707,27.5758-14.1414,57.9798-14.1414s43.8384,7.0707,57.9798,14.1414c7.7849,4.2424,15.5556,7.7778,24.0404,9.899,12.0202,3.5354,24.7475,3.5354,37.4747,4.2424l.7071,2.1212c6.3636,15.5556,10.6061,30.404,14.1414,47.3737,2.8283,16.2626,4.2566,33.9394,4.2566,53.7374-.7212,43.1313-14.1556,79.899-36.7818,109.596Z" style="fill: #008863;"/>
    <path id="icon-badge-v1" d="M513.8384,332.1212c-15.5485-.7071-26.1546-2.1212-33.9394-4.2424-9.1919-2.1212-16.9626-6.3636-25.4545-10.6061-13.4344-7.0707-26.1616-13.4344-54.4444-13.4344s-41.7172,6.3636-54.4444,13.4344c-8.4849,4.2424-16.2626,8.4849-25.4545,10.6061-8.4849,2.1212-19.0909,3.5354-33.9394,4.2424-5.6566,14.1414-9.899,28.2828-12.7273,43.1313-2.8283,16.2626-4.2424,33.2323-4.2424,53.0303,0,41.0101,12.7273,76.3637,34.6465,105.3535,22.6263,29.6899,55.8586,52.3091,96.1616,65.7576,40.303-14.1414,73.5354-36.0677,96.1616-65.7576,21.9192-28.2828,34.6465-64.3435,34.6465-105.3535,0-19.798-1.4141-36.7677-4.2424-53.0303-3.5354-15.5556-7.0707-28.9899-12.7273-43.1313Z" style="fill: #008863;"/>
  </g>
  <g>
    <path id="icon-badge-s" d="M234.5455,156.7677c4.9495,0,23.3333.7071,38.1818-3.5354,11.3131-2.8283,21.9192-9.899,19.0909-16.2626-2.1212-5.6566-12.7273-5.6566-25.4545-2.8283-15.5556,3.5354-31.8182,2.1212-36.7677,0-6.3636-2.8283-11.3131-7.7778-13.4343-14.1414-2.1212-7.0707.7071-16.2626,7.0707-24.0404,6.3636-7.0707,16.2626-13.4343,29.697-17.6768,12.7273-4.9495,24.7475-7.0707,38.1818-8.4848l8.4849,17.6768c-7.0707,0-15.5556,0-24.7475,2.1212-9.1919,1.4141-19.0909,4.9495-24.7475,9.899-4.9495,4.9495-2.8283,12.0202,4.9495,11.3131,4.2424-.7071,9.899-.7071,14.1414-1.4141,12.0202-1.4141,24.7475-2.8283,36.7677.7071,24.0404,7.0707,17.6768,29.697,3.5354,43.1313-5.6566,4.9495-12.0202,9.1919-17.6768,11.3131-14.8485,7.0707-31.8182,9.1919-47.3737,10.6061l-9.899-18.3838h0Z" style="fill: #008863;"/>
    <path id="icon-badge-c" d="M452.3232,58.4848c-6.3636-2.8283-13.4344-4.9495-21.2121-6.3636-7.0707-1.4141-14.8485-2.1212-23.3334-2.1212-9.8848,0-19.798,1.4141-28.9899,3.5354-14.8485,4.2424-31.8182,12.0202-40.303,25.4545-3.5354,5.6566-5.6566,12.0202-5.6566,18.3838,0,7.7778,2.1212,14.8485,7.0707,21.2121,9.899,13.4343,27.5758,20.5051,43.1313,24.0404,7.7778,1.4141,15.5556,2.1212,24.0404,2.1212,7.7778,0,15.5556-.7071,22.6263-2.1212s16.2626-4.9495,22.6263-7.7778v-21.9192c-13.4344,7.0707-28.2828,11.3131-43.8384,11.3131-16.9697,0-42.4242-5.6566-42.4242-27.5758,0-21.2121,26.1616-26.8687,42.4242-26.8687,14.1414,0,31.104,3.5354,42.4242,10.6061v-21.9192h1.4141Z" style="fill: #008863;"/>
    <path id="icon-badge-p" d="M502.5253,159.596l10.6061-33.2323,24.0404,7.7778c7.7778,2.1212,20.4909,4.2424,31.8182.7071,15.5485-5.6566,20.4909-22.6263,10.6061-36.0606-4.2566-5.6566-9.899-9.899-15.5556-12.7273-6.3636-2.8283-17.6768-6.3636-28.997-9.899l-34.6394-11.3131-26.8687,85.5556,28.9899,9.1919h0ZM555.5556,111.5152c-2.1212,7.0707-16.2626,5.6566-21.2121,4.2424l-16.2626-4.9495,6.3636-19.798,18.3839,5.6566c6.3636,1.4141,15.5556,7.0707,12.7273,14.8485h0Z" style="fill: #008863;"/>
  </g>
  <g id="icon-badge-lion">
    <path id="icon-badge-l4" d="M484.8485,381.6162c.7071.7071,2.1212,1.4141,4.2424,1.4141,2.8283,0,6.3636-.7071,7.7919-1.4141s2.8141-1.4141,4.2424-1.4141c-.7071,0-2.8141,0-4.2424.7071-2.8283.7071-9.199,0-9.199-3.5354h.7142c2.1212.7071,4.2495,1.4141,7.0707,1.4141,2.1212,0,3.5354-.7071,4.9495-1.4141,1.4071-.7071,2.1212-1.4141,4.2424-1.4141-2.1212-1.4141-4.2424,0-7.0707,0-2.1212,0-3.5354-.7071-4.9424-1.4141-.7142-.7071-1.4071-.7071-2.8212-1.4141-2.1212-.7071-4.9495-1.4141-7.0707-1.4141-1.4141,0-3.5354.7071-4.9495,1.4141-1.4141.7071-2.1212,2.1212-2.8283,3.5354h0c-4.9778-.7071-8.5131.7071-12.0485,2.8283s-6.3636,5.6566-8.4849,9.899c-2.8283,5.6566-2.8283,11.3131-2.1212,17.6768.7071,5.6566,3.5354,11.3131,6.3495,16.9697,5.6707,10.6061,9.206,17.6768,11.3273,22.6262,2.1212,4.9424,2.8141,8.4778,2.8141,12.7343,0,2.8141-.7071,5.6566-2.1212,7.7778s-3.5354,4.2424-6.3566,4.9495c-2.8212,1.4141-5.6636,1.4141-8.4778.7071-3.5354-.7071-7.0707-2.8212-10.6061-6.3566-2.1212-2.1353-5.6566-7.7919-8.4849-14.1555-2.8283-4.9495-4.9495-10.6061-4.9495-13.4344-.7071-4.9495-.7071-12.0202-.7071-19.0909v-2.8212c-1.4141,1.4071-2.1283,2.1283-2.8283,3.5354s-1.4141,3.5354-1.4141,5.6636h-.7071c-1.4141-1.4283-2.8283-4.2566-2.8283-6.3778-.7071-2.8212,0-5.6566.7142-9.1919,1.4071-4.2424,2.1283-7.7778,2.1283-11.3131s-.7212-7.0707-3.5354-9.1919v-.7071c1.4071,0,3.5354,1.4141,4.9424,2.8283s2.8212,2.8283,3.5354,4.9495c.7142,1.4141.7142,2.8283,1.4071,4.9495,1.4141,5.6566,2.8283,11.3202,9.199,12.0202-3.5354-3.5354-3.5354-9.899-3.5354-15.5556v-8.4849c-.7142-3.5354-2.1283-5.6566-3.5424-7.7778-2.1283-2.1212-4.9495-2.8283-7.0707-2.8283v-.7071c.7071-.7071,1.4071-1.4141,1.4071-2.1212.7141-.7071,2.1283-1.4141,3.5424-1.4141s2.1283,0,3.5354.7071c.7212.7071,1.4141.7071,1.4141,1.4141,1.4141,1.4141,2.1212,2.8283,2.8283,4.9495,1.4141,3.5354,3.5354,7.0707,7.0707,7.7778-1.4141-2.1212-1.4141-4.2424-1.4141-7.0707,0-3.5354-.7071-7.0707-3.5354-12.0202-1.4141-2.1212-2.8283-3.5354-4.9495-4.9495s-4.2424-1.4141-7.0707-1.4141c0,0-.7071,0,0-.7071.7142-1.4141,2.1212-2.8283,3.5354-3.5354s2.8283-.7071,4.2495-.7071c3.5354.7071,4.9424,2.8283,7.0707,4.9495,1.4071,1.4141,2.1283,3.5354,4.2495,4.2424-.7142-1.4141-1.4141-2.8283-1.4141-4.2424-.7071-1.4141-.7071-3.5354-.7071-5.6566s-1.4141-4.2424-2.8283-5.6566c-2.1212-1.4141-4.2424-2.8283-7.0707-2.8283-1.4071,0-2.1212,0-3.5354.7071-1.4071,0-2.8141.7071-4.2424,1.4141h-.7212c0-1.4141,0-2.8283.7212-4.2424.7071-.7071,1.4071-1.4141,2.1212-2.1212s2.1212-.7071,3.5354-.7071c2.8212,0,6.3566.7071,9.1919,2.1212,0-1.4141-.7071-2.8283-1.4071-3.5354-1.4071-1.4141-2.1283-2.1212-4.2495-2.1212-2.8212-.7071-5.6566-.7071-8.4849-.7071-2.8141,0-5.6566,0-7.7778-.7071v-.7071c2.8141-.7071,5.6566-2.8283,9.1919-5.6566h0c-6.3566.7071-10.6061-.7071-14.8556-1.4141-4.9424-1.4141-9.8919-2.8283-16.9626,2.1212h0c-2.1212-.7071-4.2424-.7071-6.3636-1.4141h-4.9495c-1.4141,0-2.8283.7071-2.8283,1.4141s-.7071.7071-.7071,1.4141,0,.7071.7071,1.4141c.7071.7071,1.4141,1.4141,2.8283,2.1212,1.4141,0,3.5354.7071,5.6566.7071s4.9495,0,8.4849-.7071v.7071c-.7071,1.4141-3.5354,2.1212-5.6566,3.5354-2.1212.7071-4.2424,1.4141-5.6566,2.1212h-.7071c-1.4141-2.1212-3.5354-3.5354-6.3636-3.5354s-7.0707.7071-12.7273,2.1212l-1.4283,2.1212c-.7071.7071-.7071,1.4141,0,1.4141.7071.7071,1.4141.7071,3.5354.7071h1.4141v.7071c-1.4141,0-2.1212.7071-2.8283,2.1212-.7071.7071-.7071,1.4141-.7071,2.1212s0,1.4141.7071,2.1212,1.4141,1.4141,2.8283,2.1212c4.9495-4.2424,10.6061-5.6566,15.5556-4.9495,1.4141,0,3.5354.7071,4.2424,1.4141,1.4141.7071,2.1212,1.4141,3.5354,2.1212,1.4141,1.4141,2.1212,3.5354,1.4141,4.9495-.7071,2.8283-1.4141,4.9495-4.9495,5.6566-2.8283.7071-7.7778.7071-15.5556-.7071-.7071,1.4141,0,3.5354.7071,4.9495,1.4141,2.1212,3.5354,3.5354,6.3636,4.9495,2.1212-1.4141,4.2424-2.8283,5.6566-4.2424,2.1212-.7071,3.5354-1.4141,4.9495-1.4141.7071,0,1.4141,0,1.4141.7071.7071,0,.7071.7071.7071,1.4141v1.4141c0,.7071-.7071,2.1212-1.4141,2.8283-2.1212,2.1212-6.3636,3.5354-9.899,4.9495-1.4141.7071-2.1212.7071-3.5354,1.4141-2.8283,1.4141-5.6566,2.1212-7.7778,3.5354s-2.8283,2.1212-3.5354,4.2424h4.9495c3.5354,0,6.3636,0,11.3131-1.4141h0c-.7071,3.5354-6.3636,5.6566-12.7273,7.7778-2.8283.7071-5.6566,2.1212-8.4849,3.5354-2.1212,1.4141-4.9495,2.8212-6.3636,4.9495-1.4141,2.1212-2.8283,4.9424-3.5354,7.7778,1.4141,0,2.8283,0,4.9495-.7071,2.1212-.7071,4.9495-2.1212,7.7778-4.2424,1.4141-.7071,2.8283-1.4141,4.2424-1.4141,2.8283-.7071,5.6566-1.4071,9.899-4.9495h.7071c-.7071,2.1212-1.4141,4.2424-2.1212,5.6566-1.4141,1.4141-2.8283,3.5354-4.2424,4.9495-1.4141,1.4071-4.9495,2.1212-7.7778,2.8141-.7071,0-1.4141,0-2.1212.7212-2.8283.7071-4.9495,1.4071-7.0707,1.4071s-3.5354-.7142-4.2424-1.4071c-3.5354,1.4071-7.0707,3.5354-11.3131,6.3495-1.4141.7212-2.1212,1.4141-3.5354,2.1283-2.8283,2.1283-5.6566,3.5354-8.4849,4.2495-2.8283,1.4142-5.6566,2.1212-9.1919,2.1212-4.2424,0-7.7778-1.4141-10.6061-3.5354-2.8283-1.4141-5.6566-2.8283-8.4849-3.5354-1.4141,0-2.1212.7071-2.8283,1.4141-.7071.7071-1.4141,2.1212-1.4141,3.5354h3.5354c1.4141,0,2.8283,0,3.5354.7071.7071.7142,1.4141,1.4141,2.1212,2.8283v.7071c-2.1212,0-7.0707,0-9.899,1.4141s-4.9495,3.5354-2.8283,8.4849c0-.7142.7071-1.4141.7071-1.4141,0-.7071.7071-.7071,1.4141-1.4141.7071,0,2.1212-.7071,2.8283-.7071,3.5354-1.4141,4.9495-2.1212,7.7778,1.4141v.7071h-1.4141c-2.8283.7071-4.9495,2.1212-5.6566,3.5354-1.4141,1.4141-1.4141,3.5354-1.4141,5.6566v1.4141c1.4141-1.4141,2.8283-1.4141,3.5354-1.4141s1.4141-.7071,1.4141-.7071c.7071-.7142,1.4141-.7142,1.4141-1.4141,2.1212-1.4141,3.5354-2.8283,9.899-4.2424,1.4141-.7212,2.1212-.7212,3.5354-1.4141,2.8283-.7142,4.9495-2.1212,7.7778-2.1212,2.1212,0,4.9495.7071,7.0707,1.4071,2.1212.7142,4.9495,1.4071,7.7778,2.1283-.7071-1.4141-1.4141-2.8283-2.8283-3.5354-1.4141-1.4141-2.8283-2.1212-4.9495-2.8283v-.7071c2.1212-2.1283,4.9495-2.1283,7.0707-1.4141,2.8283.7071,4.9495,1.4141,7.7778,2.8212,3.5354,1.4071,5.6566,3.5354,8.4848,3.5354s5.6566,0,9.1919-2.1283c-3.5354-.7071-5.6566-2.8141-7.0707-4.2424-2.1212-2.1071-4.9495-4.2283-9.1919-3.5212v-.7142c.7071-1.4071,2.1212-2.1283,3.5354-2.8212,1.4141-.7142,2.8283-.7142,4.9495-.7142s4.9495,1.4071,8.4849,3.5354c4.9495,2.8212,9.899,5.6636,15.5556,5.6636v.7071c-1.4141,1.4141-3.5354,2.8283-5.6566,3.5354.7071,1.4141,2.1212,3.5354,4.2424,5.6566s4.9495,4.2495,7.0707,5.6566c2.1212,1.4141,4.9495,2.1283,7.7778,3.5354,2.8283.7212,5.6566,1.4141,9.899,2.1283,4.2424.7142,7.7778,2.1283,9.1919,3.5354,2.1212,1.4071,2.1212,2.8212,1.4141,4.2495,1.4071.7142.7071,2.8212,0,4.9495-.7071,1.4-1.4141,2.8142-2.8283,4.2283-.7071,1.4141-2.1212,2.8283-2.8283,4.9495-2.1212,3.5354-2.1212,7.7778-2.1212,12.7273v.7071c0,1.4071,1.4141,2.8141,2.8283,4.9424s2.8212,3.5353,4.2424,4.9424l.7071.7212c3.5354,4.2424,6.3495,7.0707,5.6566,14.8485,2.8212-2.1212,5.6566-2.8283,7.7778-2.8283,1.4141,0,2.8283,0,4.2495,1.4141h0c.7142.7141,1.4071,2.1212,2.1283,3.5354.7071,2.1212,0,5.6566-.7212,9.1919-1.4141,2.8283-2.8283,5.6566-4.9495,7.7778-2.1212,2.1212-4.2424,4.9495-6.3636,6.3636-2.1212.7212-4.9495,0-7.0707,0-3.5354-.7071-7.0707-1.4071-9.1919,1.4141-.7071.7071-.7071,1.4142-1.4141,2.1212v3.5354c1.4141,0,2.8283,0,4.9495-.7071,3.5354-.7071,7.0707-1.4141,8.4849,1.4141h0c-.7212.7071-1.4141,1.4141-2.1283,2.1212s-1.4071,1.4141-2.1283,2.1212c-.7071,1.4141-1.4071,3.5354-2.1212,6.3636v.7071h2.8212c2.8212,0,5.6636,0,7.7849-2.1212.7142-.7071,1.4141-1.4141,2.1212-2.1212,1.4141-1.4141,2.8283-3.5354,4.2566-3.5354h0c0,1.4141,0,2.1212.7071,2.8212.7071,2.1283.7071,3.5354-.7071,6.3566,2.8141,0,5.6566-.7141,7.7778-2.1212,1.4141-1.4141,2.8283-2.8283,2.8283-4.2565,0-1.4071-.7212-2.8142-.7212-4.2424-.7071-2.1212-1.4071-4.2424-.7071-7.0707.7071-2.1212,1.4071-4.2424,2.1212-5.6566s2.1212-2.8283,3.5354-3.5354c2.1212-.7141,4.2495-2.1212,5.6566-3.5354,1.4141-1.4141,2.8283-2.8283,3.5354-4.9495-.7071,0-2.1212.7071-2.8141.7071-1.4141,0-2.8283,0-3.5354.7212h-.7212c-.7071-.7212-.7071-2.1283-.7071-2.8283s.7071-2.1212,1.4071-3.5354h0c.7142-.7071,2.1283-2.1212,3.5354-2.8142,1.4353-.707,2.1424-1.4141,2.8494-2.1212h1.4141c1.4141-.7071,4.9495-1.4071,9.899-5.6566,1.4071-1.4141,2.8141-3.5354,2.8141-4.9495,0-1.4071,0-3.5354-1.4071-4.9424-2.1283,4.2495-6.3566,5.6637-9.199,7.0707-2.1071.7-4.2283,1.4071-4.9354,2.8212h-.7071c-.7071-2.1212,0-4.9495.7071-7.0707,1.4141-2.1212,3.5354-4.2424,5.6636-5.6566.7142,0,1.4071-.7071,2.1283-1.4141,6.3495-3.5354,12.0131-6.3566,11.3131-14.1414-2.1212,2.1212-4.9424,2.8283-6.3495,3.5354h-4.2566c-1.4071-.7071-2.1212-1.4141-2.8141-2.1212-1.4141-1.4141-2.1283-3.5354-2.1283-5.6566v-.7071c4.9283.7071,9.1707.7071,13.4132-.7071,2.8283-1.4141,5.6566-3.5354,7.0707-6.3636-1.4141.7212-2.1212,1.4141-3.5354,2.1283s-2.8283,0-4.2424-.7142v-.7071c4.2424-2.1212,7.0707-4.9495,8.4778-7.7849,2.1283-3.5354,2.8212-7.0707,3.5354-11.3202,0-2.1212,0-4.2495-.7142-6.3566-.7142-2.1283-1.4141-4.9424-2.8212-7.0707-1.4071-2.1141-2.1142-4.2353-3.5283-6.3565-1.4141-2.1212-2.8283-4.9495-4.2424-7.0707-2.1212-3.5354-4.9495-7.7849-7.0707-11.3202-2.1212-3.5354-4.2424-7.7849-4.9495-11.3202-1.4141-4.2424-2.1212-9.1919-1.4141-13.4344.7212-4.2424,2.1283-7.7778,4.9495-10.6061,1.4141-1.4141,3.5354-3.5354,5.6566-4.2424,2.1283-.7071,4.2566-1.4141,6.3636-.7071h0c-.7071,2.1212-.7071,4.2424,0,5.6566.7071,2.8283,3.5354,4.9495,6.3636,4.9495,4.9424.7071,8.4778-.7071,12.7273-2.1212,2.1212-.7071,3.5354-1.4141,5.6566-2.1212-2.1212-.7071-3.5354,0-5.6566,0-1.4141,0-2.8283.7071-4.2495,0-1.4071-.6929-2.8212-1.4-2.8212-2.8141q-5.6566.7071-4.9495,0c-.7071,0,0,0,0,0ZM407.0707,413.4344c2.1212-1.4141,4.2424-3.5354,4.9495-6.3636.7071-2.1212.7071-4.9495,0-7.7778,0,0,.7071-.7071.7071,0,2.8283,4.9495,3.5354,9.1919,2.8283,12.7273-1.4141,3.5354-3.5354,6.3566-7.7849,8.4849-2.1141,1.4141-4.2353,1.4141-6.3566,1.4141-2.8283.7212-5.6566.7212-9.1919,3.5354h-.7071c1.4141-4.2424,5.6566-6.3495,9.899-9.1919,1.4141-.7071,3.5353-1.4141,5.6565-2.8283ZM373.1313,417.6768c1.4141-1.4141,4.2424-3.5354,7.0707-4.2424,1.4141-.7212,2.8283-1.4141,4.9495-2.1283,5.6566-2.1283,9.899-4.2495,12.7273-11.3202h.7071c1.4141,4.2495,1.4141,7.7849,0,10.6061-1.4141,3.5354-4.2424,5.6566-7.7778,7.0707s-6.3636,1.4141-8.4849,2.1212c-2.8283.7212-5.6566.7212-9.1919,2.1353h-.7071c-1.4141-2.1212-.7071-2.8283.7071-4.2424ZM377.3737,430.404c-2.1212-1.4141-3.5354-2.8283-5.6566-2.8283v-.7071c5.6566-2.8212,9.899,0,14.1414,2.8283,1.4141,1.4141,3.5354,2.1212,5.6566,2.8212v.7142c-7.0707,2.8283-10.6061,0-14.1414-2.8283ZM383.0303,443.8384s0-.7071,0,0c2.1212,0,4.2424.7071,5.6566,1.4141,2.1212,0,4.2424.7071,6.3636,0,2.8283,0,5.6566-.7212,8.4849-1.4141,2.8283-.7142,5.6566-1.4141,7.7778-2.8283,0,0,.7212,0,.7212.7142-1.4283,2.1141-3.5495,4.2353-5.6707,4.9424-2.8283,1.4141-5.6566,2.1212-8.4849,2.1212s-4.9495-.7212-7.7778-1.4141c-3.5354-.7071-5.6566-2.1212-7.0707-3.5354ZM407.7778,455.8586c-2.8141,0-5.6566,0-7.7778-1.4141-2.1212-.7142-4.2424-2.1212-5.6566-3.5354v-.7071c4.2424.7212,7.7778,1.4141,12.7273.7212,4.9495,0,9.1919-.7212,14.1414-2.1283,0,0,.7071.7142,0,.7142s-1.4141.7142-1.4141,1.4141c-2.8283,2.107-5.6566,4.9353-12.0202,4.9353ZM423.3333,508.1818s-.7071,0,0,0c-2.1212-3.5354-3.5354-6.3566-4.9495-8.4849-1.4141-2.8283-3.5354-4.9495-3.5354-8.4849,0-2.1283,0-4.9495,1.4141-7.7919.7142-2.8141,2.1212-4.9424,4.2495-7.0707h.7142c-.7142,2.1283-.7142,3.5354-1.4141,5.6636v5.6636c0,4.2424,1.4141,6.3495,2.8283,9.1919-.0142,3.5354,1.4,6.3636.6929,11.3132Z" style="fill: #f2be4b;"/>
    <path id="icon-badge-l3" d="M312.3232,374.5455c1.4141.7071,3.5354.7071,5.6566,1.4141,2.8283.7071,4.9495,1.4141,6.3636,2.8283,1.4141.7071,2.1212,1.4141,2.1212,2.8283.7071,1.4141.7071,2.1212,0,3.5354,0,1.4141-.7071,2.8283-2.1212,4.2424,2.1212,0,4.9495-.7071,7.0707-1.4141,3.5354-.7071,6.3636-1.4141,7.7778-.7071v.7071c-1.4141.7071-2.8283,1.4141-4.2424,2.8283s-4.2424,3.5354-9.899,6.3636c2.1212.7071,4.2424,1.4141,5.6566,1.4141,2.1212,0,4.2424-.7071,6.3636-2.1212,0,0,.7071-.7071,1.4141-.7071,2.8283-1.4141,7.0707-4.9495,10.6061-2.1212v.7071c-3.5354,0-4.9495,2.1212-7.0707,4.9495-1.4141,2.1212-3.5354,4.2424-6.3636,5.6566,5.6566.7071,10.6061,0,14.1414-2.1212s6.3636-5.6566,8.4849-9.1919c2.1212-3.5354,4.2424-4.9495,5.6566-6.3636l1.4141-1.4141c-2.1212-.7071-4.9495-.7071-7.0707-.7071s-4.9495,0-7.0707-.7071c-2.8283-.7071-4.9495-1.4141-7.0707-2.1212s-4.2424-2.1212-6.3636-2.8283c-3.5354-2.1212-6.3636-4.9495-7.7778-7.0707-2.1212-2.1212-3.5354-4.9495-4.2424-6.3636-.7071-.7071-.7071-1.4141-.7071-2.1212-2.1212-4.9495-3.5354-9.1919-10.6061-8.4849,1.4141,1.4141,2.1212,3.5354,2.8283,4.9495s1.4141,3.5354,1.4141,4.9495c0,0-.7071.7071-.7071,0-1.4141-3.5354-4.2424-6.3636-6.3636-7.7778-1.4141-.7071-2.1212-1.4141-3.5354-1.4141s-2.1212,0-3.5354.7071-2.1212,1.4141-3.5354,3.5354c.7071,0,1.4141.7071,2.1212.7071l.7071.7071c1.4141.7071,2.1212,1.4141,3.5354,2.1212.7071.7071,1.4141,2.1212,2.1212,2.8283v.7071c-1.4141,0-2.1212-.7071-3.5354-1.4141-1.4141-1.4141-3.5354-2.1212-7.0707-1.4141,2.8283,8.4848,5.6566,9.1919,13.4343,9.899Z" style="fill: #f2be4b;"/>
    <path id="icon-badge-l2" d="M401.4141,485.5555c1.4141-4.2424,3.5354-9.1919,6.3566-13.4202-2.1283-.7212-4.2495-.7212-7.0707.7071-2.1212,1.4141-4.9495,3.5354-8.4849,6.3636h-.7071c1.4141-3.5354,2.8283-6.3636,4.2424-8.4849,1.4141-2.1212,3.5354-2.8212,5.6566-4.2495-2.8283,0-5.6566,0-8.4849.7142-3.5354.7142-7.7778,2.1212-11.3131,4.9495h-.7071c0-2.1283,1.4141-4.2566,3.5354-5.6636,1.4141-1.4071,4.2424-2.1283,5.6566-3.5354,1.4141-.7142,2.8283-1.4071,3.5354-2.1283.7071-.7071,1.4141-.7071,2.1212-1.4071-2.1212,0-4.2424,0-7.0707.7142-2.1212,0-4.2424.7142-6.3636.7142h-3.5354c-2.1212,0-4.2424,0-6.3636.7142-2.8283.7071-5.6566,2.1212-7.7778,4.2424-1.4141,2.1212-2.1212,4.2495-2.1212,7.7849,0,2.8212,1.4141,5.6636,2.8283,7.7849,1.4141,2.8212,3.5354,5.6566,3.5354,9.8919,0,4.2495-2.8283,6.3566-5.6566,7.7849-2.8283,1.4141-7.0707,1.4141-9.899,1.4141h-5.6566c-1.4141,0-2.8283-.7212-4.2424-1.4141s-2.1212-1.4141-3.5354-1.4141c-1.4141-.7071-3.5354-2.1212-5.6566-2.1212s-4.2424,0-6.3636,1.4141c-1.4141,1.4071-2.8283,2.8141-3.5354,4.2424h3.5354c2.8283-.7071,4.9495-.7071,6.3636,0,1.4141.7212,2.1212,1.4141,2.1212,2.8283v.7071h-3.5354c-2.8283,0-4.9495,0-6.3636.7212-1.4141.7071-2.8283,1.4071-3.5354,2.8142-.7071,1.4141-1.4141,2.8283-1.4141,4.2565v2.1212c0,.7142.7071,1.4141.7071,2.1212,1.4141-2.8283,3.5354-4.2424,5.6566-4.9424,2.1212-1.4212,4.9495-1.4212,7.7778-.7141v.7141c-1.4141.7071-4.2424,2.8212-5.6566,4.9424-1.4141,1.4141-2.1212,3.5354-2.8283,4.9495,2.1212-.7141,4.2424,0,6.3636,0,2.1212.7141,4.2424.7141,5.6566-.7141.7071-.7141,1.4141-1.4071,1.4141-2.1283,1.4141-1.4071,2.8283-2.8142,4.2424-4.2424.7071-.7212,1.4141-1.4141,2.1212-1.4141s1.4141-.7141,2.1212-.7141h14.1414c2.8283.7141,5.6566,1.4071,6.3636,2.1283,0-1.4141-.7071-2.1283-1.4141-2.8283-1.4141-1.4071-2.8283-2.1212-4.9495-3.5354v-.7071c4.9495-2.1283,9.1919-.7212,14.1414.7071,5.6566,2.1283,11.3131,3.5354,16.2626-.7071-2.1212,0-3.5354-1.4141-4.9495-2.8283-2.1212-1.4071-4.9495-3.5354-9.1919-3.5354v-.7071c.7071-1.4141,2.1212-2.8283,3.5354-3.5354,1.4141-.7212,3.5354-1.4141,5.6566-1.4141s4.9495.7142,6.3636,1.4141c2.8283.7071,4.9495,1.4071,7.7778,1.4071-2.1141-2.8638-2.1141-7.8133-1.4071-12.7628Z" style="fill: #f2be4b;"/>
    <path id="icon-badge-l1" d="M351.9192,363.2323c2.1212,1.4141,4.9495,2.1212,7.7778,2.1212s5.6566-1.4141,9.1919-2.8283c4.9495-2.1212,10.6061-4.9495,17.6768-4.2424-7.7778-2.1212-14.1414,0-19.798,1.4141-2.8283.7071-4.9495,1.4141-7.0707,1.4141-2.8283,0-5.6566,0-7.0707-.7071-2.1212-.7071-3.5354-1.4141-4.2424-2.1212,0,2.1212,1.4141,3.5353,3.5353,4.9495Z" style="fill: #f2be4b;"/>
  </g>
</svg>